<?xml version="1.0" encoding="UTF-8" standalone="no"?>
<!DOCTYPE svg PUBLIC "-//W3C//DTD SVG 1.1//EN"
 "http://www.w3.org/Graphics/SVG/1.1/DTD/svg11.dtd">
<!-- Generated by graphviz version 12.2.1 (20241206.2353)
 -->
<!-- Title: example Pages: 1 -->
<svg width="211pt" height="221pt"
 viewBox="0.00 0.00 211.00 221.00" xmlns="http://www.w3.org/2000/svg" xmlns:xlink="http://www.w3.org/1999/xlink">
<g id="graph0" class="graph" transform="scale(1 1) rotate(0) translate(4 217)">
<title>example</title>
<polygon fill="white" stroke="none" points="-4,4 -4,-217 207,-217 207,4 -4,4"/>
<!-- 3 -->
<g id="node1" class="node">
<title>3</title>
<ellipse fill="none" stroke="black" cx="27" cy="-195" rx="27" ry="18"/>
<text text-anchor="middle" x="27" y="-189.95" font-family="Times,serif" font-size="14.00">3</text>
</g>
<!-- 5 -->
<g id="node2" class="node">
<title>5</title>
<ellipse fill="none" stroke="black" cx="27" cy="-18" rx="27" ry="18"/>
<text text-anchor="middle" x="27" y="-12.95" font-family="Times,serif" font-size="14.00">5</text>
</g>
<!-- 3&#45;&#45;5 -->
<g id="edge1" class="edge">
<title>3&#45;&#45;5</title>
<path fill="none" stroke="black" d="M22.99,-176.98C19.9,-162.98 15.89,-142.58 14.25,-124.5 12.8,-108.57 12.8,-104.43 14.25,-88.5 15.89,-70.42 19.9,-50.02 22.99,-36.02"/>
<text text-anchor="middle" x="17.62" y="-101.45" font-family="Times,serif" font-size="14.00">0</text>
</g>
<!-- 4 -->
<g id="node3" class="node">
<title>4</title>
<ellipse fill="none" stroke="black" cx="57" cy="-106.5" rx="27" ry="18"/>
<text text-anchor="middle" x="57" y="-101.45" font-family="Times,serif" font-size="14.00">4</text>
</g>
<!-- 3&#45;&#45;4 -->
<g id="edge6" class="edge">
<title>3&#45;&#45;4</title>
<path fill="none" stroke="black" d="M32.78,-177.32C38.06,-162.1 45.83,-139.72 51.13,-124.42"/>
<text text-anchor="middle" x="48.06" y="-145.7" font-family="Times,serif" font-size="14.00">5</text>
</g>
<!-- 4&#45;&#45;5 -->
<g id="edge2" class="edge">
<title>4&#45;&#45;5</title>
<path fill="none" stroke="black" d="M51.22,-88.82C45.94,-73.6 38.17,-51.22 32.87,-35.92"/>
<text text-anchor="middle" x="48.06" y="-57.2" font-family="Times,serif" font-size="14.00">1</text>
</g>
<!-- 1 -->
<g id="node4" class="node">
<title>1</title>
<ellipse fill="none" stroke="black" cx="129" cy="-106.5" rx="27" ry="18"/>
<text text-anchor="middle" x="129" y="-101.45" font-family="Times,serif" font-size="14.00">1</text>
</g>
<!-- 2 -->
<g id="node5" class="node">
<title>2</title>
<ellipse fill="none" stroke="black" cx="176" cy="-18" rx="27" ry="18"/>
<text text-anchor="middle" x="176" y="-12.95" font-family="Times,serif" font-size="14.00">2</text>
</g>
<!-- 1&#45;&#45;2 -->
<g id="edge3" class="edge">
<title>1&#45;&#45;2</title>
<path fill="none" stroke="black" d="M137.84,-89.23C146.24,-73.77 158.81,-50.64 167.2,-35.2"/>
<text text-anchor="middle" x="160.08" y="-57.2" font-family="Times,serif" font-size="14.00">2</text>
</g>
<!-- 0 -->
<g id="node6" class="node">
<title>0</title>
<ellipse fill="none" stroke="black" cx="176" cy="-195" rx="27" ry="18"/>
<text text-anchor="middle" x="176" y="-189.95" font-family="Times,serif" font-size="14.00">0</text>
</g>
<!-- 0&#45;&#45;1 -->
<g id="edge5" class="edge">
<title>0&#45;&#45;1</title>
<path fill="none" stroke="black" d="M167.16,-177.73C158.76,-162.27 146.19,-139.14 137.8,-123.7"/>
<text text-anchor="middle" x="160.08" y="-145.7" font-family="Times,serif" font-size="14.00">4</text>
</g>
<!-- 0&#45;&#45;2 -->
<g id="edge4" class="edge">
<title>0&#45;&#45;2</title>
<path fill="none" stroke="black" d="M176,-176.58C176,-143.04 176,-69.84 176,-36.35"/>
<text text-anchor="middle" x="179.38" y="-101.45" font-family="Times,serif" font-size="14.00">3</text>
</g>
</g>
</svg>
