<?xml version="1.0" encoding="UTF-8" standalone="no"?>
<!DOCTYPE svg PUBLIC "-//W3C//DTD SVG 1.1//EN"
 "http://www.w3.org/Graphics/SVG/1.1/DTD/svg11.dtd">
<!-- Generated by graphviz version 12.2.1 (20241206.2353)
 -->
<!-- Title: example Pages: 1 -->
<svg width="260pt" height="176pt"
 viewBox="0.00 0.00 260.21 176.41" xmlns="http://www.w3.org/2000/svg" xmlns:xlink="http://www.w3.org/1999/xlink">
<g id="graph0" class="graph" transform="scale(1 1) rotate(0) translate(4 172.41)">
<title>example</title>
<polygon fill="white" stroke="none" points="-4,4 -4,-172.41 256.21,-172.41 256.21,4 -4,4"/>
<!-- 3 -->
<g id="node1" class="node">
<title>3</title>
<ellipse fill="none" stroke="black" cx="27" cy="-79.93" rx="27" ry="18"/>
<text text-anchor="middle" x="27" y="-74.88" font-family="Times,serif" font-size="14.00">3</text>
</g>
<!-- 5 -->
<g id="node2" class="node">
<title>5</title>
<ellipse fill="none" stroke="black" cx="99.21" cy="-80.41" rx="27" ry="18"/>
<text text-anchor="middle" x="99.21" y="-75.36" font-family="Times,serif" font-size="14.00">5</text>
</g>
<!-- 3&#45;&#45;5 -->
<g id="edge1" class="edge">
<title>3&#45;&#45;5</title>
<path fill="none" stroke="black" d="M54.3,-80.11C60.05,-80.15 66.12,-80.19 71.87,-80.23"/>
<text text-anchor="middle" x="59.71" y="-83.37" font-family="Times,serif" font-size="14.00">0</text>
</g>
<!-- 4 -->
<g id="node3" class="node">
<title>4</title>
<ellipse fill="none" stroke="black" cx="63.59" cy="-18" rx="27" ry="18"/>
<text text-anchor="middle" x="63.59" y="-12.95" font-family="Times,serif" font-size="14.00">4</text>
</g>
<!-- 3&#45;&#45;4 -->
<g id="edge6" class="edge">
<title>3&#45;&#45;4</title>
<path fill="none" stroke="black" d="M37,-63.01C42.16,-54.27 48.44,-43.64 53.61,-34.9"/>
<text text-anchor="middle" x="43.61" y="-35.66" font-family="Times,serif" font-size="14.00">5</text>
</g>
<!-- 4&#45;&#45;5 -->
<g id="edge2" class="edge">
<title>4&#45;&#45;5</title>
<path fill="none" stroke="black" d="M73.32,-35.05C78.35,-43.86 84.46,-54.57 89.49,-63.38"/>
<text text-anchor="middle" x="81.41" y="-35.91" font-family="Times,serif" font-size="14.00">1</text>
</g>
<!-- 1 -->
<g id="node4" class="node">
<title>1</title>
<ellipse fill="none" stroke="black" cx="153" cy="-149.93" rx="27" ry="18"/>
<text text-anchor="middle" x="153" y="-144.88" font-family="Times,serif" font-size="14.00">1</text>
</g>
<!-- 2 -->
<g id="node5" class="node">
<title>2</title>
<ellipse fill="none" stroke="black" cx="225.21" cy="-150.41" rx="27" ry="18"/>
<text text-anchor="middle" x="225.21" y="-145.36" font-family="Times,serif" font-size="14.00">2</text>
</g>
<!-- 1&#45;&#45;2 -->
<g id="edge3" class="edge">
<title>1&#45;&#45;2</title>
<path fill="none" stroke="black" d="M180.3,-150.11C186.05,-150.15 192.12,-150.19 197.87,-150.23"/>
<text text-anchor="middle" x="185.71" y="-153.37" font-family="Times,serif" font-size="14.00">2</text>
</g>
<!-- 0 -->
<g id="node6" class="node">
<title>0</title>
<ellipse fill="none" stroke="black" cx="189.59" cy="-88" rx="27" ry="18"/>
<text text-anchor="middle" x="189.59" y="-82.95" font-family="Times,serif" font-size="14.00">0</text>
</g>
<!-- 0&#45;&#45;1 -->
<g id="edge5" class="edge">
<title>0&#45;&#45;1</title>
<path fill="none" stroke="black" d="M179.59,-104.92C174.43,-113.66 168.15,-124.29 162.99,-133.03"/>
<text text-anchor="middle" x="169.6" y="-105.68" font-family="Times,serif" font-size="14.00">4</text>
</g>
<!-- 0&#45;&#45;2 -->
<g id="edge4" class="edge">
<title>0&#45;&#45;2</title>
<path fill="none" stroke="black" d="M199.32,-105.05C204.35,-113.86 210.46,-124.57 215.49,-133.38"/>
<text text-anchor="middle" x="204.03" y="-122.41" font-family="Times,serif" font-size="14.00">3</text>
</g>
</g>
</svg>
