<?xml version="1.0" encoding="UTF-8" standalone="no"?>
<!DOCTYPE svg PUBLIC "-//W3C//DTD SVG 1.1//EN"
 "http://www.w3.org/Graphics/SVG/1.1/DTD/svg11.dtd">
<!-- Generated by graphviz version 12.2.1 (20241206.2353)
 -->
<!-- Title: example Pages: 1 -->
<svg width="288pt" height="284pt"
 viewBox="0.00 0.00 288.24 284.20" xmlns="http://www.w3.org/2000/svg" xmlns:xlink="http://www.w3.org/1999/xlink">
<g id="graph0" class="graph" transform="scale(1 1) rotate(0) translate(4 280.2)">
<title>example</title>
<polygon fill="white" stroke="none" points="-4,4 -4,-280.2 284.24,-280.2 284.24,4 -4,4"/>
<!-- 3 -->
<g id="node1" class="node">
<title>3</title>
<ellipse fill="none" stroke="black" cx="27" cy="-18" rx="27" ry="18"/>
<text text-anchor="middle" x="27" y="-12.95" font-family="Times,serif" font-size="14.00">3</text>
</g>
<!-- 5 -->
<g id="node2" class="node">
<title>5</title>
<ellipse fill="none" stroke="black" cx="27" cy="-122.2" rx="27" ry="18"/>
<text text-anchor="middle" x="27" y="-117.15" font-family="Times,serif" font-size="14.00">5</text>
</g>
<!-- 3&#45;&#45;5 -->
<g id="edge1" class="edge">
<title>3&#45;&#45;5</title>
<path fill="none" stroke="black" d="M27,-36.15C27,-55.16 27,-84.85 27,-103.91"/>
<text text-anchor="middle" x="23.63" y="-73.23" font-family="Times,serif" font-size="14.00">0</text>
</g>
<!-- 4 -->
<g id="node3" class="node">
<title>4</title>
<ellipse fill="none" stroke="black" cx="117.24" cy="-70.1" rx="27" ry="18"/>
<text text-anchor="middle" x="117.24" y="-65.05" font-family="Times,serif" font-size="14.00">4</text>
</g>
<!-- 3&#45;&#45;4 -->
<g id="edge6" class="edge">
<title>3&#45;&#45;4</title>
<path fill="none" stroke="black" d="M47.48,-29.82C62.14,-38.29 81.82,-49.65 96.53,-58.14"/>
<text text-anchor="middle" x="68.63" y="-47.18" font-family="Times,serif" font-size="14.00">5</text>
</g>
<!-- 4&#45;&#45;5 -->
<g id="edge2" class="edge">
<title>4&#45;&#45;5</title>
<path fill="none" stroke="black" d="M96.76,-81.92C82.1,-90.39 62.43,-101.75 47.71,-110.25"/>
<text text-anchor="middle" x="68.86" y="-99.28" font-family="Times,serif" font-size="14.00">1</text>
</g>
<!-- 1 -->
<g id="node4" class="node">
<title>1</title>
<ellipse fill="none" stroke="black" cx="163" cy="-154" rx="27" ry="18"/>
<text text-anchor="middle" x="163" y="-148.95" font-family="Times,serif" font-size="14.00">1</text>
</g>
<!-- 2 -->
<g id="node5" class="node">
<title>2</title>
<ellipse fill="none" stroke="black" cx="163" cy="-258.2" rx="27" ry="18"/>
<text text-anchor="middle" x="163" y="-253.15" font-family="Times,serif" font-size="14.00">2</text>
</g>
<!-- 1&#45;&#45;2 -->
<g id="edge3" class="edge">
<title>1&#45;&#45;2</title>
<path fill="none" stroke="black" d="M163,-172.15C163,-191.16 163,-220.85 163,-239.91"/>
<text text-anchor="middle" x="159.63" y="-209.23" font-family="Times,serif" font-size="14.00">2</text>
</g>
<!-- 0 -->
<g id="node6" class="node">
<title>0</title>
<ellipse fill="none" stroke="black" cx="253.24" cy="-206.1" rx="27" ry="18"/>
<text text-anchor="middle" x="253.24" y="-201.05" font-family="Times,serif" font-size="14.00">0</text>
</g>
<!-- 0&#45;&#45;1 -->
<g id="edge5" class="edge">
<title>0&#45;&#45;1</title>
<path fill="none" stroke="black" d="M232.76,-194.28C218.1,-185.81 198.43,-174.45 183.71,-165.96"/>
<text text-anchor="middle" x="204.86" y="-183.32" font-family="Times,serif" font-size="14.00">4</text>
</g>
<!-- 0&#45;&#45;2 -->
<g id="edge4" class="edge">
<title>0&#45;&#45;2</title>
<path fill="none" stroke="black" d="M232.76,-217.92C218.1,-226.39 198.43,-237.75 183.71,-246.25"/>
<text text-anchor="middle" x="204.86" y="-235.28" font-family="Times,serif" font-size="14.00">3</text>
</g>
</g>
</svg>
