<?xml version="1.0" encoding="UTF-8" standalone="no"?>
<!DOCTYPE svg PUBLIC "-//W3C//DTD SVG 1.1//EN"
 "http://www.w3.org/Graphics/SVG/1.1/DTD/svg11.dtd">
<!-- Generated by graphviz version 12.2.1 (20241206.2353)
 -->
<!-- Title: example Pages: 1 -->
<svg width="531pt" height="463pt"
 viewBox="0.00 0.00 530.79 463.09" xmlns="http://www.w3.org/2000/svg" xmlns:xlink="http://www.w3.org/1999/xlink">
<g id="graph0" class="graph" transform="scale(1 1) rotate(0) translate(4 459.09)">
<title>example</title>
<polygon fill="white" stroke="none" points="-4,4 -4,-459.09 526.79,-459.09 526.79,4 -4,4"/>
<!-- 3 -->
<g id="node1" class="node">
<title>3</title>
<ellipse fill="none" stroke="black" cx="271.79" cy="-245.09" rx="27" ry="18"/>
<text text-anchor="middle" x="271.79" y="-240.04" font-family="Times,serif" font-size="14.00">3</text>
</g>
<!-- 5 -->
<g id="node2" class="node">
<title>5</title>
<ellipse fill="none" stroke="black" cx="27" cy="-211.55" rx="27" ry="18"/>
<text text-anchor="middle" x="27" y="-206.5" font-family="Times,serif" font-size="14.00">5</text>
</g>
<!-- 3&#45;&#45;5 -->
<g id="edge1" class="edge">
<title>3&#45;&#45;5</title>
<path fill="none" stroke="black" d="M245.13,-241.44C198.04,-234.99 100.69,-221.65 53.63,-215.2"/>
<text text-anchor="middle" x="146" y="-231.52" font-family="Times,serif" font-size="14.00">0</text>
</g>
<!-- 4 -->
<g id="node3" class="node">
<title>4</title>
<ellipse fill="none" stroke="black" cx="178.67" cy="-18" rx="27" ry="18"/>
<text text-anchor="middle" x="178.67" y="-12.95" font-family="Times,serif" font-size="14.00">4</text>
</g>
<!-- 3&#45;&#45;4 -->
<g id="edge6" class="edge">
<title>3&#45;&#45;4</title>
<path fill="none" stroke="black" d="M264.48,-227.27C247.07,-184.82 203.32,-78.1 185.95,-35.74"/>
<text text-anchor="middle" x="221.84" y="-134.71" font-family="Times,serif" font-size="14.00">5</text>
</g>
<!-- 4&#45;&#45;5 -->
<g id="edge2" class="edge">
<title>4&#45;&#45;5</title>
<path fill="none" stroke="black" d="M166,-34.17C137.45,-70.6 68.36,-158.77 39.74,-195.29"/>
<text text-anchor="middle" x="99.5" y="-117.93" font-family="Times,serif" font-size="14.00">1</text>
</g>
<!-- 1 -->
<g id="node4" class="node">
<title>1</title>
<ellipse fill="none" stroke="black" cx="495.79" cy="-437.09" rx="27" ry="18"/>
<text text-anchor="middle" x="495.79" y="-432.04" font-family="Times,serif" font-size="14.00">1</text>
</g>
<!-- 2 -->
<g id="node5" class="node">
<title>2</title>
<ellipse fill="none" stroke="black" cx="251" cy="-403.55" rx="27" ry="18"/>
<text text-anchor="middle" x="251" y="-398.5" font-family="Times,serif" font-size="14.00">2</text>
</g>
<!-- 1&#45;&#45;2 -->
<g id="edge3" class="edge">
<title>1&#45;&#45;2</title>
<path fill="none" stroke="black" d="M469.13,-433.44C422.04,-426.99 324.69,-413.65 277.63,-407.2"/>
<text text-anchor="middle" x="370" y="-423.52" font-family="Times,serif" font-size="14.00">2</text>
</g>
<!-- 0 -->
<g id="node6" class="node">
<title>0</title>
<ellipse fill="none" stroke="black" cx="402.67" cy="-210" rx="27" ry="18"/>
<text text-anchor="middle" x="402.67" y="-204.95" font-family="Times,serif" font-size="14.00">0</text>
</g>
<!-- 0&#45;&#45;1 -->
<g id="edge5" class="edge">
<title>0&#45;&#45;1</title>
<path fill="none" stroke="black" d="M409.98,-227.82C427.39,-270.27 471.14,-376.99 488.51,-419.36"/>
<text text-anchor="middle" x="445.87" y="-326.79" font-family="Times,serif" font-size="14.00">4</text>
</g>
<!-- 0&#45;&#45;2 -->
<g id="edge4" class="edge">
<title>0&#45;&#45;2</title>
<path fill="none" stroke="black" d="M390,-226.17C361.45,-262.6 292.36,-350.77 263.74,-387.29"/>
<text text-anchor="middle" x="323.5" y="-309.93" font-family="Times,serif" font-size="14.00">3</text>
</g>
</g>
</svg>
