<?xml version="1.0" encoding="UTF-8" standalone="no"?>
<!DOCTYPE svg PUBLIC "-//W3C//DTD SVG 1.1//EN"
 "http://www.w3.org/Graphics/SVG/1.1/DTD/svg11.dtd">
<!-- Generated by graphviz version 12.2.1 (20241206.2353)
 -->
<!-- Title: example Pages: 1 -->
<svg width="131pt" height="310pt"
 viewBox="0.00 0.00 130.55 309.50" xmlns="http://www.w3.org/2000/svg" xmlns:xlink="http://www.w3.org/1999/xlink">
<g id="graph0" class="graph" transform="scale(1 1) rotate(0) translate(4 305.5)">
<title>example</title>
<polygon fill="white" stroke="none" points="-4,4 -4,-305.5 126.55,-305.5 126.55,4 -4,4"/>
<!-- 0 -->
<g id="node1" class="node">
<title>0</title>
<ellipse fill="none" stroke="black" cx="90" cy="-283.5" rx="27" ry="18"/>
<text text-anchor="middle" x="90" y="-278.45" font-family="Times,serif" font-size="14.00">0</text>
</g>
<!-- 1 -->
<g id="node2" class="node">
<title>1</title>
<ellipse fill="none" stroke="black" cx="27" cy="-195" rx="27" ry="18"/>
<text text-anchor="middle" x="27" y="-189.95" font-family="Times,serif" font-size="14.00">1</text>
</g>
<!-- 0&#45;&#45;1 -->
<g id="edge1" class="edge">
<title>0&#45;&#45;1</title>
<path fill="none" stroke="black" d="M78.74,-267.04C67.34,-251.39 49.82,-227.33 38.38,-211.62"/>
<text text-anchor="middle" x="67.52" y="-234.2" font-family="Times,serif" font-size="14.00">0</text>
</g>
<!-- 2 -->
<g id="node3" class="node">
<title>2</title>
<ellipse fill="none" stroke="black" cx="74" cy="-106.5" rx="27" ry="18"/>
<text text-anchor="middle" x="74" y="-101.45" font-family="Times,serif" font-size="14.00">2</text>
</g>
<!-- 0&#45;&#45;2 -->
<g id="edge2" class="edge">
<title>0&#45;&#45;2</title>
<path fill="none" stroke="black" d="M88.41,-265.08C85.34,-231.54 78.65,-158.34 75.59,-124.85"/>
<text text-anchor="middle" x="86.97" y="-189.95" font-family="Times,serif" font-size="14.00">1</text>
</g>
<!-- 3 -->
<g id="node4" class="node">
<title>3</title>
<ellipse fill="none" stroke="black" cx="74" cy="-18" rx="27" ry="18"/>
<text text-anchor="middle" x="74" y="-12.95" font-family="Times,serif" font-size="14.00">3</text>
</g>
<!-- 0&#45;&#45;3 -->
<g id="edge3" class="edge">
<title>0&#45;&#45;3</title>
<path fill="none" stroke="black" d="M95.53,-265.63C105.84,-231.63 125.63,-152.65 110,-88.5 105.18,-68.7 93.65,-48.24 84.92,-34.69"/>
<text text-anchor="middle" x="119.17" y="-145.7" font-family="Times,serif" font-size="14.00">2</text>
</g>
<!-- 1&#45;&#45;2 -->
<g id="edge4" class="edge">
<title>1&#45;&#45;2</title>
<path fill="none" stroke="black" d="M35.84,-177.73C44.24,-162.27 56.81,-139.14 65.2,-123.7"/>
<text text-anchor="middle" x="58.08" y="-145.7" font-family="Times,serif" font-size="14.00">3</text>
</g>
<!-- 1&#45;&#45;3 -->
<g id="edge5" class="edge">
<title>1&#45;&#45;3</title>
<path fill="none" stroke="black" d="M25.07,-176.75C23.28,-155.48 22.11,-118.48 31.25,-88.5 37.49,-68.04 51.24,-47.54 61.47,-34.16"/>
<text text-anchor="middle" x="34.62" y="-101.45" font-family="Times,serif" font-size="14.00">4</text>
</g>
<!-- 2&#45;&#45;3 -->
<g id="edge6" class="edge">
<title>2&#45;&#45;3</title>
<path fill="none" stroke="black" d="M74,-88.41C74,-73.34 74,-51.49 74,-36.35"/>
<text text-anchor="middle" x="77.38" y="-57.2" font-family="Times,serif" font-size="14.00">5</text>
</g>
</g>
</svg>
