<?xml version="1.0" encoding="UTF-8" standalone="no"?>
<!DOCTYPE svg PUBLIC "-//W3C//DTD SVG 1.1//EN"
 "http://www.w3.org/Graphics/SVG/1.1/DTD/svg11.dtd">
<!-- Generated by graphviz version 12.2.1 (20241206.2353)
 -->
<!-- Title: example Pages: 1 -->
<svg width="222pt" height="204pt"
 viewBox="0.00 0.00 222.43 204.43" xmlns="http://www.w3.org/2000/svg" xmlns:xlink="http://www.w3.org/1999/xlink">
<g id="graph0" class="graph" transform="scale(1 1) rotate(0) translate(4 200.43)">
<title>example</title>
<polygon fill="white" stroke="none" points="-4,4 -4,-200.43 218.43,-200.43 218.43,4 -4,4"/>
<!-- 0 -->
<g id="node1" class="node">
<title>0</title>
<ellipse fill="none" stroke="black" cx="107.21" cy="-18" rx="27" ry="18"/>
<text text-anchor="middle" x="107.21" y="-12.95" font-family="Times,serif" font-size="14.00">0</text>
</g>
<!-- 1 -->
<g id="node2" class="node">
<title>1</title>
<ellipse fill="none" stroke="black" cx="187.43" cy="-98.21" rx="27" ry="18"/>
<text text-anchor="middle" x="187.43" y="-93.16" font-family="Times,serif" font-size="14.00">1</text>
</g>
<!-- 0&#45;&#45;1 -->
<g id="edge1" class="edge">
<title>0&#45;&#45;1</title>
<path fill="none" stroke="black" d="M122.3,-33.09C136.55,-47.34 157.82,-68.6 172.14,-82.92"/>
<text text-anchor="middle" x="143.84" y="-61.2" font-family="Times,serif" font-size="14.00">0</text>
</g>
<!-- 2 -->
<g id="node3" class="node">
<title>2</title>
<ellipse fill="none" stroke="black" cx="107.21" cy="-178.43" rx="27" ry="18"/>
<text text-anchor="middle" x="107.21" y="-173.38" font-family="Times,serif" font-size="14.00">2</text>
</g>
<!-- 0&#45;&#45;2 -->
<g id="edge2" class="edge">
<title>0&#45;&#45;2</title>
<path fill="none" stroke="black" d="M107.21,-36.4C107.21,-67.35 107.21,-129.44 107.21,-160.24"/>
<text text-anchor="middle" x="103.84" y="-101.52" font-family="Times,serif" font-size="14.00">1</text>
</g>
<!-- 3 -->
<g id="node4" class="node">
<title>3</title>
<ellipse fill="none" stroke="black" cx="27" cy="-98.21" rx="27" ry="18"/>
<text text-anchor="middle" x="27" y="-93.16" font-family="Times,serif" font-size="14.00">3</text>
</g>
<!-- 0&#45;&#45;3 -->
<g id="edge3" class="edge">
<title>0&#45;&#45;3</title>
<path fill="none" stroke="black" d="M92.13,-33.09C77.88,-47.34 56.61,-68.6 42.29,-82.92"/>
<text text-anchor="middle" x="63.83" y="-61.2" font-family="Times,serif" font-size="14.00">2</text>
</g>
<!-- 1&#45;&#45;2 -->
<g id="edge4" class="edge">
<title>1&#45;&#45;2</title>
<path fill="none" stroke="black" d="M172.34,-113.3C158.09,-127.55 136.82,-148.82 122.51,-163.14"/>
<text text-anchor="middle" x="144.05" y="-141.42" font-family="Times,serif" font-size="14.00">3</text>
</g>
<!-- 1&#45;&#45;3 -->
<g id="edge5" class="edge">
<title>1&#45;&#45;3</title>
<path fill="none" stroke="black" d="M160.21,-98.21C130.71,-98.21 83.9,-98.21 54.35,-98.21"/>
<text text-anchor="middle" x="103.91" y="-84.91" font-family="Times,serif" font-size="14.00">4</text>
</g>
<!-- 2&#45;&#45;3 -->
<g id="edge6" class="edge">
<title>2&#45;&#45;3</title>
<path fill="none" stroke="black" d="M92.13,-163.34C77.88,-149.09 56.61,-127.82 42.29,-113.51"/>
<text text-anchor="middle" x="63.83" y="-141.62" font-family="Times,serif" font-size="14.00">5</text>
</g>
</g>
</svg>
