<?xml version="1.0" encoding="UTF-8" standalone="no"?>
<!DOCTYPE svg PUBLIC "-//W3C//DTD SVG 1.1//EN"
 "http://www.w3.org/Graphics/SVG/1.1/DTD/svg11.dtd">
<!-- Generated by graphviz version 12.2.1 (20241206.2353)
 -->
<!-- Title: example Pages: 1 -->
<svg width="362pt" height="340pt"
 viewBox="0.00 0.00 361.70 340.13" xmlns="http://www.w3.org/2000/svg" xmlns:xlink="http://www.w3.org/1999/xlink">
<g id="graph0" class="graph" transform="scale(1 1) rotate(0) translate(4 336.13)">
<title>example</title>
<polygon fill="white" stroke="none" points="-4,4 -4,-336.13 357.7,-336.13 357.7,4 -4,4"/>
<!-- 0 -->
<g id="node1" class="node">
<title>0</title>
<ellipse fill="none" stroke="black" cx="188.07" cy="-314.13" rx="27" ry="18"/>
<text text-anchor="middle" x="188.07" y="-309.08" font-family="Times,serif" font-size="14.00">0</text>
</g>
<!-- 1 -->
<g id="node2" class="node">
<title>1</title>
<ellipse fill="none" stroke="black" cx="27" cy="-180.11" rx="27" ry="18"/>
<text text-anchor="middle" x="27" y="-175.06" font-family="Times,serif" font-size="14.00">1</text>
</g>
<!-- 0&#45;&#45;1 -->
<g id="edge1" class="edge">
<title>0&#45;&#45;1</title>
<path fill="none" stroke="black" d="M170.83,-299.79C139.83,-273.99 75.02,-220.07 44.11,-194.35"/>
<text text-anchor="middle" x="104.1" y="-250.27" font-family="Times,serif" font-size="14.00">0</text>
</g>
<!-- 2 -->
<g id="node3" class="node">
<title>2</title>
<ellipse fill="none" stroke="black" cx="160.1" cy="-18" rx="27" ry="18"/>
<text text-anchor="middle" x="160.1" y="-12.95" font-family="Times,serif" font-size="14.00">2</text>
</g>
<!-- 0&#45;&#45;2 -->
<g id="edge2" class="edge">
<title>0&#45;&#45;2</title>
<path fill="none" stroke="black" d="M186.36,-296.05C181.37,-243.18 166.83,-89.26 161.82,-36.22"/>
<text text-anchor="middle" x="170.72" y="-169.33" font-family="Times,serif" font-size="14.00">1</text>
</g>
<!-- 3 -->
<g id="node4" class="node">
<title>3</title>
<ellipse fill="none" stroke="black" cx="326.7" cy="-152.47" rx="27" ry="18"/>
<text text-anchor="middle" x="326.7" y="-147.42" font-family="Times,serif" font-size="14.00">3</text>
</g>
<!-- 0&#45;&#45;3 -->
<g id="edge3" class="edge">
<title>0&#45;&#45;3</title>
<path fill="none" stroke="black" d="M201.61,-298.33C228.19,-267.35 286.86,-198.93 313.31,-168.09"/>
<text text-anchor="middle" x="254.09" y="-236.41" font-family="Times,serif" font-size="14.00">2</text>
</g>
<!-- 1&#45;&#45;2 -->
<g id="edge4" class="edge">
<title>1&#45;&#45;2</title>
<path fill="none" stroke="black" d="M40.25,-163.97C65.76,-132.9 121.43,-65.09 146.91,-34.07"/>
<text text-anchor="middle" x="90.2" y="-102.22" font-family="Times,serif" font-size="14.00">3</text>
</g>
<!-- 1&#45;&#45;3 -->
<g id="edge5" class="edge">
<title>1&#45;&#45;3</title>
<path fill="none" stroke="black" d="M54.13,-177.61C111.19,-172.34 243.04,-160.18 299.85,-154.94"/>
<text text-anchor="middle" x="180.36" y="-169.47" font-family="Times,serif" font-size="14.00">4</text>
</g>
<!-- 2&#45;&#45;3 -->
<g id="edge6" class="edge">
<title>2&#45;&#45;3</title>
<path fill="none" stroke="black" d="M177.61,-32.14C209.61,-57.96 277.16,-112.48 309.17,-138.32"/>
<text text-anchor="middle" x="240.02" y="-88.43" font-family="Times,serif" font-size="14.00">5</text>
</g>
</g>
</svg>
