<?xml version="1.0" encoding="UTF-8" standalone="no"?>
<!DOCTYPE svg PUBLIC "-//W3C//DTD SVG 1.1//EN"
 "http://www.w3.org/Graphics/SVG/1.1/DTD/svg11.dtd">
<!-- Generated by graphviz version 12.2.1 (20241206.2353)
 -->
<!-- Title: example Pages: 1 -->
<svg width="207pt" height="193pt"
 viewBox="0.00 0.00 206.86 192.73" xmlns="http://www.w3.org/2000/svg" xmlns:xlink="http://www.w3.org/1999/xlink">
<g id="graph0" class="graph" transform="scale(1 1) rotate(0) translate(4 188.73)">
<title>example</title>
<polygon fill="white" stroke="none" points="-4,4 -4,-188.73 202.86,-188.73 202.86,4 -4,4"/>
<!-- 2 -->
<g id="node1" class="node">
<title>2</title>
<ellipse fill="none" stroke="black" cx="84.08" cy="-79.42" rx="27" ry="18"/>
<text text-anchor="middle" x="84.08" y="-74.37" font-family="Times,serif" font-size="14.00">2</text>
</g>
<!-- 3 -->
<g id="node2" class="node">
<title>3</title>
<ellipse fill="none" stroke="black" cx="171.86" cy="-77.97" rx="27" ry="18"/>
<text text-anchor="middle" x="171.86" y="-72.92" font-family="Times,serif" font-size="14.00">3</text>
</g>
<!-- 2&#45;&#45;3 -->
<g id="edge1" class="edge">
<title>2&#45;&#45;3</title>
<path fill="none" stroke="black" d="M111.37,-78.97C121.94,-78.8 134.02,-78.6 144.58,-78.42"/>
</g>
<!-- 7 -->
<g id="node3" class="node">
<title>7</title>
<ellipse fill="none" stroke="black" cx="122.85" cy="-18" rx="27" ry="18"/>
<text text-anchor="middle" x="122.85" y="-12.95" font-family="Times,serif" font-size="14.00">7</text>
</g>
<!-- 2&#45;&#45;7 -->
<g id="edge2" class="edge">
<title>2&#45;&#45;7</title>
<path fill="none" stroke="black" d="M94.67,-62.64C100.15,-53.97 106.8,-43.43 112.27,-34.76"/>
</g>
<!-- 6 -->
<g id="node5" class="node">
<title>6</title>
<ellipse fill="none" stroke="black" cx="91.46" cy="-166.73" rx="27" ry="18"/>
<text text-anchor="middle" x="91.46" y="-161.68" font-family="Times,serif" font-size="14.00">6</text>
</g>
<!-- 2&#45;&#45;6 -->
<g id="edge10" class="edge">
<title>2&#45;&#45;6</title>
<path fill="none" stroke="black" d="M85.61,-97.51C86.87,-112.4 88.64,-133.4 89.91,-148.36"/>
</g>
<!-- 4 -->
<g id="node6" class="node">
<title>4</title>
<ellipse fill="none" stroke="black" cx="27" cy="-124.09" rx="27" ry="18"/>
<text text-anchor="middle" x="27" y="-119.04" font-family="Times,serif" font-size="14.00">4</text>
</g>
<!-- 2&#45;&#45;4 -->
<g id="edge14" class="edge">
<title>2&#45;&#45;4</title>
<path fill="none" stroke="black" d="M66.33,-93.31C59.39,-98.74 51.46,-104.95 44.54,-110.36"/>
</g>
<!-- 3&#45;&#45;7 -->
<g id="edge11" class="edge">
<title>3&#45;&#45;7</title>
<path fill="none" stroke="black" d="M158.73,-61.9C151.7,-53.3 143.06,-42.73 136.02,-34.12"/>
</g>
<!-- 8 -->
<g id="node9" class="node">
<title>8</title>
<ellipse fill="none" stroke="black" cx="98.73" cy="-127.02" rx="27" ry="18"/>
<text text-anchor="middle" x="98.73" y="-121.97" font-family="Times,serif" font-size="14.00">8</text>
</g>
<!-- 3&#45;&#45;8 -->
<g id="edge13" class="edge">
<title>3&#45;&#45;8</title>
<path fill="none" stroke="black" d="M152.65,-90.86C141.98,-98.01 128.75,-106.88 118.07,-114.05"/>
</g>
<!-- 1 -->
<g id="node4" class="node">
<title>1</title>
<ellipse fill="none" stroke="black" cx="166.43" cy="-153.79" rx="27" ry="18"/>
<text text-anchor="middle" x="166.43" y="-148.74" font-family="Times,serif" font-size="14.00">1</text>
</g>
<!-- 1&#45;&#45;3 -->
<g id="edge18" class="edge">
<title>1&#45;&#45;3</title>
<path fill="none" stroke="black" d="M167.75,-135.44C168.59,-123.6 169.69,-108.27 170.54,-96.42"/>
</g>
<!-- 1&#45;&#45;6 -->
<g id="edge3" class="edge">
<title>1&#45;&#45;6</title>
<path fill="none" stroke="black" d="M140.21,-158.32C133.03,-159.55 125.25,-160.9 118.05,-162.14"/>
</g>
<!-- 5 -->
<g id="node8" class="node">
<title>5</title>
<ellipse fill="none" stroke="black" cx="133.01" cy="-88.85" rx="27" ry="18"/>
<text text-anchor="middle" x="133.01" y="-83.8" font-family="Times,serif" font-size="14.00">5</text>
</g>
<!-- 1&#45;&#45;5 -->
<g id="edge9" class="edge">
<title>1&#45;&#45;5</title>
<path fill="none" stroke="black" d="M157.47,-136.39C152.68,-127.07 146.79,-115.63 141.99,-106.3"/>
</g>
<!-- 1&#45;&#45;8 -->
<g id="edge17" class="edge">
<title>1&#45;&#45;8</title>
<path fill="none" stroke="black" d="M142.75,-144.43C136.04,-141.77 128.74,-138.89 122.05,-136.24"/>
</g>
<!-- 4&#45;&#45;6 -->
<g id="edge4" class="edge">
<title>4&#45;&#45;6</title>
<path fill="none" stroke="black" d="M46.34,-136.88C54.5,-142.28 63.98,-148.55 72.13,-153.94"/>
</g>
<!-- 4&#45;&#45;8 -->
<g id="edge12" class="edge">
<title>4&#45;&#45;8</title>
<path fill="none" stroke="black" d="M54.12,-125.2C59.83,-125.43 65.86,-125.68 71.57,-125.91"/>
</g>
<!-- 0 -->
<g id="node7" class="node">
<title>0</title>
<ellipse fill="none" stroke="black" cx="53.65" cy="-51.77" rx="27" ry="18"/>
<text text-anchor="middle" x="53.65" y="-46.72" font-family="Times,serif" font-size="14.00">0</text>
</g>
<!-- 0&#45;&#45;7 -->
<g id="edge7" class="edge">
<title>0&#45;&#45;7</title>
<path fill="none" stroke="black" d="M75.55,-41.08C83.62,-37.14 92.77,-32.68 100.86,-28.73"/>
</g>
<!-- 0&#45;&#45;4 -->
<g id="edge5" class="edge">
<title>0&#45;&#45;4</title>
<path fill="none" stroke="black" d="M47.06,-69.65C42.96,-80.77 37.71,-95.03 33.6,-106.17"/>
</g>
<!-- 0&#45;&#45;5 -->
<g id="edge6" class="edge">
<title>0&#45;&#45;5</title>
<path fill="none" stroke="black" d="M76.18,-62.3C86.9,-67.31 99.69,-73.28 110.42,-78.3"/>
</g>
<!-- 0&#45;&#45;8 -->
<g id="edge8" class="edge">
<title>0&#45;&#45;8</title>
<path fill="none" stroke="black" d="M63.88,-68.84C71.26,-81.16 81.17,-97.71 88.54,-110.01"/>
</g>
<!-- 5&#45;&#45;7 -->
<g id="edge16" class="edge">
<title>5&#45;&#45;7</title>
<path fill="none" stroke="black" d="M130.39,-70.6C128.86,-59.94 126.94,-46.55 125.42,-35.94"/>
</g>
<!-- 5&#45;&#45;6 -->
<g id="edge15" class="edge">
<title>5&#45;&#45;6</title>
<path fill="none" stroke="black" d="M123.79,-106.13C116.9,-119.04 107.53,-136.6 100.65,-149.49"/>
</g>
</g>
</svg>
