<?xml version="1.0" encoding="UTF-8" standalone="no"?>
<!DOCTYPE svg PUBLIC "-//W3C//DTD SVG 1.1//EN"
 "http://www.w3.org/Graphics/SVG/1.1/DTD/svg11.dtd">
<!-- Generated by graphviz version 12.2.1 (20241206.2353)
 -->
<!-- Title: example Pages: 1 -->
<svg width="311pt" height="260pt"
 viewBox="0.00 0.00 311.42 260.00" xmlns="http://www.w3.org/2000/svg" xmlns:xlink="http://www.w3.org/1999/xlink">
<g id="graph0" class="graph" transform="scale(1 1) rotate(0) translate(4 256)">
<title>example</title>
<polygon fill="white" stroke="none" points="-4,4 -4,-256 307.42,-256 307.42,4 -4,4"/>
<!-- 2 -->
<g id="node1" class="node">
<title>2</title>
<ellipse fill="none" stroke="black" cx="151.71" cy="-90" rx="27" ry="18"/>
<text text-anchor="middle" x="151.71" y="-84.95" font-family="Times,serif" font-size="14.00">2</text>
</g>
<!-- 3 -->
<g id="node2" class="node">
<title>3</title>
<ellipse fill="none" stroke="black" cx="187.71" cy="-152.35" rx="27" ry="18"/>
<text text-anchor="middle" x="187.71" y="-147.3" font-family="Times,serif" font-size="14.00">3</text>
</g>
<!-- 2&#45;&#45;3 -->
<g id="edge1" class="edge">
<title>2&#45;&#45;3</title>
<path fill="none" stroke="black" d="M161.54,-107.04C166.62,-115.84 172.8,-126.54 177.88,-135.34"/>
</g>
<!-- 7 -->
<g id="node3" class="node">
<title>7</title>
<ellipse fill="none" stroke="black" cx="79.71" cy="-90" rx="27" ry="18"/>
<text text-anchor="middle" x="79.71" y="-84.95" font-family="Times,serif" font-size="14.00">7</text>
</g>
<!-- 2&#45;&#45;7 -->
<g id="edge2" class="edge">
<title>2&#45;&#45;7</title>
<path fill="none" stroke="black" d="M124.49,-90C118.75,-90 112.7,-90 106.97,-90"/>
</g>
<!-- 6 -->
<g id="node5" class="node">
<title>6</title>
<ellipse fill="none" stroke="black" cx="151.71" cy="-18" rx="27" ry="18"/>
<text text-anchor="middle" x="151.71" y="-12.95" font-family="Times,serif" font-size="14.00">6</text>
</g>
<!-- 2&#45;&#45;6 -->
<g id="edge10" class="edge">
<title>2&#45;&#45;6</title>
<path fill="none" stroke="black" d="M151.71,-71.83C151.71,-61 151.71,-47.29 151.71,-36.41"/>
</g>
<!-- 4 -->
<g id="node6" class="node">
<title>4</title>
<ellipse fill="none" stroke="black" cx="214.06" cy="-54" rx="27" ry="18"/>
<text text-anchor="middle" x="214.06" y="-48.95" font-family="Times,serif" font-size="14.00">4</text>
</g>
<!-- 2&#45;&#45;4 -->
<g id="edge14" class="edge">
<title>2&#45;&#45;4</title>
<path fill="none" stroke="black" d="M172.47,-78.01C179.27,-74.09 186.82,-69.73 193.6,-65.81"/>
</g>
<!-- 3&#45;&#45;7 -->
<g id="edge11" class="edge">
<title>3&#45;&#45;7</title>
<path fill="none" stroke="black" d="M166.88,-140.33C147.76,-129.29 119.57,-113.02 100.47,-101.99"/>
</g>
<!-- 8 -->
<g id="node9" class="node">
<title>8</title>
<ellipse fill="none" stroke="black" cx="276.42" cy="-162" rx="27" ry="18"/>
<text text-anchor="middle" x="276.42" y="-156.95" font-family="Times,serif" font-size="14.00">8</text>
</g>
<!-- 3&#45;&#45;8 -->
<g id="edge13" class="edge">
<title>3&#45;&#45;8</title>
<path fill="none" stroke="black" d="M214.8,-155.3C225.81,-156.5 238.5,-157.88 249.48,-159.07"/>
</g>
<!-- 1 -->
<g id="node4" class="node">
<title>1</title>
<ellipse fill="none" stroke="black" cx="151.71" cy="-234" rx="27" ry="18"/>
<text text-anchor="middle" x="151.71" y="-228.95" font-family="Times,serif" font-size="14.00">1</text>
</g>
<!-- 1&#45;&#45;3 -->
<g id="edge18" class="edge">
<title>1&#45;&#45;3</title>
<path fill="none" stroke="black" d="M159.52,-216.28C165.56,-202.59 173.88,-183.72 179.91,-170.04"/>
</g>
<!-- 1&#45;&#45;6 -->
<g id="edge3" class="edge">
<title>1&#45;&#45;6</title>
<path fill="none" stroke="black" d="M151.71,-215.58C151.71,-174.78 151.71,-77.13 151.71,-36.37"/>
</g>
<!-- 5 -->
<g id="node8" class="node">
<title>5</title>
<ellipse fill="none" stroke="black" cx="27" cy="-18" rx="27" ry="18"/>
<text text-anchor="middle" x="27" y="-12.95" font-family="Times,serif" font-size="14.00">5</text>
</g>
<!-- 1&#45;&#45;5 -->
<g id="edge9" class="edge">
<title>1&#45;&#45;5</title>
<path fill="none" stroke="black" d="M141.92,-217.05C118.67,-176.77 60.29,-75.67 36.91,-35.17"/>
</g>
<!-- 1&#45;&#45;8 -->
<g id="edge17" class="edge">
<title>1&#45;&#45;8</title>
<path fill="none" stroke="black" d="M172.3,-222.11C195.41,-208.77 232.67,-187.25 255.79,-173.91"/>
</g>
<!-- 4&#45;&#45;6 -->
<g id="edge4" class="edge">
<title>4&#45;&#45;6</title>
<path fill="none" stroke="black" d="M193.3,-42.01C186.5,-38.09 178.95,-33.73 172.17,-29.81"/>
</g>
<!-- 4&#45;&#45;8 -->
<g id="edge12" class="edge">
<title>4&#45;&#45;8</title>
<path fill="none" stroke="black" d="M223.8,-70.87C235.45,-91.05 254.83,-124.61 266.54,-144.89"/>
</g>
<!-- 0 -->
<g id="node7" class="node">
<title>0</title>
<ellipse fill="none" stroke="black" cx="27" cy="-162" rx="27" ry="18"/>
<text text-anchor="middle" x="27" y="-156.95" font-family="Times,serif" font-size="14.00">0</text>
</g>
<!-- 0&#45;&#45;7 -->
<g id="edge7" class="edge">
<title>0&#45;&#45;7</title>
<path fill="none" stroke="black" d="M38.96,-145.66C47.59,-133.88 59.18,-118.04 67.79,-106.27"/>
</g>
<!-- 0&#45;&#45;4 -->
<g id="edge5" class="edge">
<title>0&#45;&#45;4</title>
<path fill="none" stroke="black" d="M47.73,-150.03C83.69,-129.27 157.21,-86.82 193.24,-66.02"/>
</g>
<!-- 0&#45;&#45;5 -->
<g id="edge6" class="edge">
<title>0&#45;&#45;5</title>
<path fill="none" stroke="black" d="M27,-143.76C27,-116.06 27,-63.7 27,-36.09"/>
</g>
<!-- 0&#45;&#45;8 -->
<g id="edge8" class="edge">
<title>0&#45;&#45;8</title>
<path fill="none" stroke="black" d="M54.17,-162C102.14,-162 201.33,-162 249.28,-162"/>
</g>
<!-- 5&#45;&#45;7 -->
<g id="edge16" class="edge">
<title>5&#45;&#45;7</title>
<path fill="none" stroke="black" d="M38.96,-34.34C47.59,-46.12 59.18,-61.96 67.79,-73.73"/>
</g>
<!-- 5&#45;&#45;6 -->
<g id="edge15" class="edge">
<title>5&#45;&#45;6</title>
<path fill="none" stroke="black" d="M54.37,-18C75.16,-18 103.63,-18 124.4,-18"/>
</g>
</g>
</svg>
