<?xml version="1.0" encoding="UTF-8" standalone="no"?>
<!DOCTYPE svg PUBLIC "-//W3C//DTD SVG 1.1//EN"
 "http://www.w3.org/Graphics/SVG/1.1/DTD/svg11.dtd">
<!-- Generated by graphviz version 12.2.1 (20241206.2353)
 -->
<!-- Title: example Pages: 1 -->
<svg width="466pt" height="329pt"
 viewBox="0.00 0.00 466.34 329.22" xmlns="http://www.w3.org/2000/svg" xmlns:xlink="http://www.w3.org/1999/xlink">
<g id="graph0" class="graph" transform="scale(1 1) rotate(0) translate(4 325.22)">
<title>example</title>
<polygon fill="white" stroke="none" points="-4,4 -4,-325.22 462.34,-325.22 462.34,4 -4,4"/>
<!-- 2 -->
<g id="node1" class="node">
<title>2</title>
<ellipse fill="none" stroke="black" cx="161.29" cy="-18" rx="27" ry="18"/>
<text text-anchor="middle" x="161.29" y="-12.95" font-family="Times,serif" font-size="14.00">2</text>
</g>
<!-- 3 -->
<g id="node2" class="node">
<title>3</title>
<ellipse fill="none" stroke="black" cx="27" cy="-154.29" rx="27" ry="18"/>
<text text-anchor="middle" x="27" y="-149.24" font-family="Times,serif" font-size="14.00">3</text>
</g>
<!-- 2&#45;&#45;3 -->
<g id="edge1" class="edge">
<title>2&#45;&#45;3</title>
<path fill="none" stroke="black" d="M146.15,-33.37C120.22,-59.69 67.63,-113.06 41.88,-139.19"/>
</g>
<!-- 7 -->
<g id="node3" class="node">
<title>7</title>
<ellipse fill="none" stroke="black" cx="162.32" cy="-295.33" rx="27" ry="18"/>
<text text-anchor="middle" x="162.32" y="-290.28" font-family="Times,serif" font-size="14.00">7</text>
</g>
<!-- 2&#45;&#45;7 -->
<g id="edge2" class="edge">
<title>2&#45;&#45;7</title>
<path fill="none" stroke="black" d="M161.36,-36.2C161.55,-86.45 162.06,-226.74 162.25,-277.07"/>
</g>
<!-- 6 -->
<g id="node5" class="node">
<title>6</title>
<ellipse fill="none" stroke="black" cx="297.56" cy="-25.61" rx="27" ry="18"/>
<text text-anchor="middle" x="297.56" y="-20.56" font-family="Times,serif" font-size="14.00">6</text>
</g>
<!-- 2&#45;&#45;6 -->
<g id="edge10" class="edge">
<title>2&#45;&#45;6</title>
<path fill="none" stroke="black" d="M188.54,-19.52C212.31,-20.85 246.6,-22.77 270.36,-24.09"/>
</g>
<!-- 4 -->
<g id="node6" class="node">
<title>4</title>
<ellipse fill="none" stroke="black" cx="429.33" cy="-39.55" rx="27" ry="18"/>
<text text-anchor="middle" x="429.33" y="-34.5" font-family="Times,serif" font-size="14.00">4</text>
</g>
<!-- 2&#45;&#45;4 -->
<g id="edge14" class="edge">
<title>2&#45;&#45;4</title>
<path fill="none" stroke="black" d="M188.47,-20.18C239.84,-24.31 350.65,-33.22 402.08,-37.36"/>
</g>
<!-- 3&#45;&#45;7 -->
<g id="edge11" class="edge">
<title>3&#45;&#45;7</title>
<path fill="none" stroke="black" d="M41.74,-169.66C67.77,-196.79 121.58,-252.87 147.6,-279.99"/>
</g>
<!-- 8 -->
<g id="node9" class="node">
<title>8</title>
<ellipse fill="none" stroke="black" cx="292.64" cy="-157.97" rx="27" ry="18"/>
<text text-anchor="middle" x="292.64" y="-152.92" font-family="Times,serif" font-size="14.00">8</text>
</g>
<!-- 3&#45;&#45;8 -->
<g id="edge13" class="edge">
<title>3&#45;&#45;8</title>
<path fill="none" stroke="black" d="M54.43,-154.67C105.46,-155.38 214.44,-156.89 265.36,-157.6"/>
</g>
<!-- 1 -->
<g id="node4" class="node">
<title>1</title>
<ellipse fill="none" stroke="black" cx="151.83" cy="-164.86" rx="27" ry="18"/>
<text text-anchor="middle" x="151.83" y="-159.81" font-family="Times,serif" font-size="14.00">1</text>
</g>
<!-- 1&#45;&#45;3 -->
<g id="edge18" class="edge">
<title>1&#45;&#45;3</title>
<path fill="none" stroke="black" d="M124.74,-162.57C103.8,-160.8 74.96,-158.35 54.03,-156.58"/>
</g>
<!-- 1&#45;&#45;6 -->
<g id="edge3" class="edge">
<title>1&#45;&#45;6</title>
<path fill="none" stroke="black" d="M167.42,-149.96C195.47,-123.16 254.11,-67.13 282.07,-40.41"/>
</g>
<!-- 5 -->
<g id="node8" class="node">
<title>5</title>
<ellipse fill="none" stroke="black" cx="300.31" cy="-303.22" rx="27" ry="18"/>
<text text-anchor="middle" x="300.31" y="-298.17" font-family="Times,serif" font-size="14.00">5</text>
</g>
<!-- 1&#45;&#45;5 -->
<g id="edge9" class="edge">
<title>1&#45;&#45;5</title>
<path fill="none" stroke="black" d="M167.72,-179.67C196.3,-206.3 256.04,-261.97 284.54,-288.52"/>
</g>
<!-- 1&#45;&#45;8 -->
<g id="edge17" class="edge">
<title>1&#45;&#45;8</title>
<path fill="none" stroke="black" d="M178.98,-163.53C203.91,-162.31 240.67,-160.52 265.57,-159.3"/>
</g>
<!-- 4&#45;&#45;6 -->
<g id="edge4" class="edge">
<title>4&#45;&#45;6</title>
<path fill="none" stroke="black" d="M402.34,-36.69C379.6,-34.29 347.23,-30.87 324.5,-28.46"/>
</g>
<!-- 4&#45;&#45;8 -->
<g id="edge12" class="edge">
<title>4&#45;&#45;8</title>
<path fill="none" stroke="black" d="M412.57,-54.07C386.19,-76.92 335.31,-121.01 309.11,-143.7"/>
</g>
<!-- 0 -->
<g id="node7" class="node">
<title>0</title>
<ellipse fill="none" stroke="black" cx="431.34" cy="-266.65" rx="27" ry="18"/>
<text text-anchor="middle" x="431.34" y="-261.6" font-family="Times,serif" font-size="14.00">0</text>
</g>
<!-- 0&#45;&#45;7 -->
<g id="edge7" class="edge">
<title>0&#45;&#45;7</title>
<path fill="none" stroke="black" d="M404.31,-269.53C352.75,-275.03 240.88,-286.96 189.33,-292.45"/>
</g>
<!-- 0&#45;&#45;4 -->
<g id="edge5" class="edge">
<title>0&#45;&#45;4</title>
<path fill="none" stroke="black" d="M431.18,-248.45C430.8,-205.93 429.87,-100.44 429.49,-57.83"/>
</g>
<!-- 0&#45;&#45;5 -->
<g id="edge6" class="edge">
<title>0&#45;&#45;5</title>
<path fill="none" stroke="black" d="M406.08,-273.7C382.87,-280.18 348.68,-289.73 325.5,-296.2"/>
</g>
<!-- 0&#45;&#45;8 -->
<g id="edge8" class="edge">
<title>0&#45;&#45;8</title>
<path fill="none" stroke="black" d="M413.49,-252.67C386.86,-231.8 337.01,-192.74 310.42,-171.91"/>
</g>
<!-- 5&#45;&#45;7 -->
<g id="edge16" class="edge">
<title>5&#45;&#45;7</title>
<path fill="none" stroke="black" d="M273.05,-301.66C248.86,-300.28 213.7,-298.27 189.52,-296.89"/>
</g>
<!-- 5&#45;&#45;6 -->
<g id="edge15" class="edge">
<title>5&#45;&#45;6</title>
<path fill="none" stroke="black" d="M300.13,-285.01C299.63,-234.71 298.24,-94.28 297.74,-43.89"/>
</g>
</g>
</svg>
