<?xml version="1.0" encoding="UTF-8" standalone="no"?>
<!DOCTYPE svg PUBLIC "-//W3C//DTD SVG 1.1//EN"
 "http://www.w3.org/Graphics/SVG/1.1/DTD/svg11.dtd">
<!-- Generated by graphviz version 12.2.1 (20241206.2353)
 -->
<!-- Title: example Pages: 1 -->
<svg width="412pt" height="399pt"
 viewBox="0.00 0.00 412.08 399.48" xmlns="http://www.w3.org/2000/svg" xmlns:xlink="http://www.w3.org/1999/xlink">
<g id="graph0" class="graph" transform="scale(1 1) rotate(0) translate(4 395.48)">
<title>example</title>
<polygon fill="white" stroke="none" points="-4,4 -4,-395.48 408.08,-395.48 408.08,4 -4,4"/>
<!-- 2 -->
<g id="node1" class="node">
<title>2</title>
<ellipse fill="none" stroke="black" cx="334.85" cy="-79.73" rx="27" ry="18"/>
<text text-anchor="middle" x="334.85" y="-74.68" font-family="Times,serif" font-size="14.00">2</text>
</g>
<!-- 3 -->
<g id="node2" class="node">
<title>3</title>
<ellipse fill="none" stroke="black" cx="227.94" cy="-18" rx="27" ry="18"/>
<text text-anchor="middle" x="227.94" y="-12.95" font-family="Times,serif" font-size="14.00">3</text>
</g>
<!-- 2&#45;&#45;3 -->
<g id="edge1" class="edge">
<title>2&#45;&#45;3</title>
<path fill="none" stroke="black" d="M314.24,-67.83C295.31,-56.9 267.4,-40.78 248.49,-29.87"/>
</g>
<!-- 7 -->
<g id="node3" class="node">
<title>7</title>
<ellipse fill="none" stroke="black" cx="106.36" cy="-39.44" rx="27" ry="18"/>
<text text-anchor="middle" x="106.36" y="-34.39" font-family="Times,serif" font-size="14.00">7</text>
</g>
<!-- 2&#45;&#45;7 -->
<g id="edge2" class="edge">
<title>2&#45;&#45;7</title>
<path fill="none" stroke="black" d="M308.64,-75.11C264.68,-67.36 176.6,-51.82 132.61,-44.07"/>
</g>
<!-- 6 -->
<g id="node5" class="node">
<title>6</title>
<ellipse fill="none" stroke="black" cx="27" cy="-257.47" rx="27" ry="18"/>
<text text-anchor="middle" x="27" y="-252.42" font-family="Times,serif" font-size="14.00">6</text>
</g>
<!-- 2&#45;&#45;6 -->
<g id="edge10" class="edge">
<title>2&#45;&#45;6</title>
<path fill="none" stroke="black" d="M314.18,-91.67C258.09,-124.05 103.56,-213.26 47.59,-245.58"/>
</g>
<!-- 4 -->
<g id="node6" class="node">
<title>4</title>
<ellipse fill="none" stroke="black" cx="334.85" cy="-311.75" rx="27" ry="18"/>
<text text-anchor="middle" x="334.85" y="-306.7" font-family="Times,serif" font-size="14.00">4</text>
</g>
<!-- 2&#45;&#45;4 -->
<g id="edge14" class="edge">
<title>2&#45;&#45;4</title>
<path fill="none" stroke="black" d="M334.85,-97.93C334.85,-141.2 334.85,-249.8 334.85,-293.31"/>
</g>
<!-- 3&#45;&#45;7 -->
<g id="edge11" class="edge">
<title>3&#45;&#45;7</title>
<path fill="none" stroke="black" d="M201.56,-22.65C181.16,-26.25 153.07,-31.2 132.69,-34.8"/>
</g>
<!-- 8 -->
<g id="node9" class="node">
<title>8</title>
<ellipse fill="none" stroke="black" cx="227.94" cy="-373.48" rx="27" ry="18"/>
<text text-anchor="middle" x="227.94" y="-368.43" font-family="Times,serif" font-size="14.00">8</text>
</g>
<!-- 3&#45;&#45;8 -->
<g id="edge13" class="edge">
<title>3&#45;&#45;8</title>
<path fill="none" stroke="black" d="M227.94,-36.12C227.94,-97.1 227.94,-294.47 227.94,-355.4"/>
</g>
<!-- 1 -->
<g id="node4" class="node">
<title>1</title>
<ellipse fill="none" stroke="black" cx="106.36" cy="-352.04" rx="27" ry="18"/>
<text text-anchor="middle" x="106.36" y="-346.99" font-family="Times,serif" font-size="14.00">1</text>
</g>
<!-- 1&#45;&#45;3 -->
<g id="edge18" class="edge">
<title>1&#45;&#45;3</title>
<path fill="none" stroke="black" d="M112.89,-334.08C134.05,-275.95 200.52,-93.32 221.52,-35.64"/>
</g>
<!-- 1&#45;&#45;6 -->
<g id="edge3" class="edge">
<title>1&#45;&#45;6</title>
<path fill="none" stroke="black" d="M92.89,-336C78.21,-318.5 54.87,-290.68 40.26,-273.27"/>
</g>
<!-- 5 -->
<g id="node8" class="node">
<title>5</title>
<ellipse fill="none" stroke="black" cx="27" cy="-134.01" rx="27" ry="18"/>
<text text-anchor="middle" x="27" y="-128.96" font-family="Times,serif" font-size="14.00">5</text>
</g>
<!-- 1&#45;&#45;5 -->
<g id="edge9" class="edge">
<title>1&#45;&#45;5</title>
<path fill="none" stroke="black" d="M99.86,-334.2C84.94,-293.21 48.37,-192.72 33.47,-151.79"/>
</g>
<!-- 1&#45;&#45;8 -->
<g id="edge17" class="edge">
<title>1&#45;&#45;8</title>
<path fill="none" stroke="black" d="M132.74,-356.69C153.13,-360.29 181.23,-365.24 201.61,-368.84"/>
</g>
<!-- 4&#45;&#45;6 -->
<g id="edge4" class="edge">
<title>4&#45;&#45;6</title>
<path fill="none" stroke="black" d="M308.34,-307.08C250.15,-296.81 111.79,-272.42 53.56,-262.15"/>
</g>
<!-- 4&#45;&#45;8 -->
<g id="edge12" class="edge">
<title>4&#45;&#45;8</title>
<path fill="none" stroke="black" d="M314.24,-323.65C295.31,-334.58 267.4,-350.7 248.49,-361.61"/>
</g>
<!-- 0 -->
<g id="node7" class="node">
<title>0</title>
<ellipse fill="none" stroke="black" cx="377.08" cy="-195.74" rx="27" ry="18"/>
<text text-anchor="middle" x="377.08" y="-190.69" font-family="Times,serif" font-size="14.00">0</text>
</g>
<!-- 0&#45;&#45;7 -->
<g id="edge7" class="edge">
<title>0&#45;&#45;7</title>
<path fill="none" stroke="black" d="M356.29,-183.73C305.89,-154.64 177.69,-80.62 127.22,-51.48"/>
</g>
<!-- 0&#45;&#45;4 -->
<g id="edge5" class="edge">
<title>0&#45;&#45;4</title>
<path fill="none" stroke="black" d="M370.57,-213.61C362.62,-235.48 349.23,-272.26 341.3,-294.05"/>
</g>
<!-- 0&#45;&#45;5 -->
<g id="edge6" class="edge">
<title>0&#45;&#45;5</title>
<path fill="none" stroke="black" d="M350.48,-191.05C285.38,-179.57 118.62,-150.17 53.56,-138.69"/>
</g>
<!-- 0&#45;&#45;8 -->
<g id="edge8" class="edge">
<title>0&#45;&#45;8</title>
<path fill="none" stroke="black" d="M363.58,-211.83C335.19,-245.67 269.57,-323.86 241.3,-357.56"/>
</g>
<!-- 5&#45;&#45;7 -->
<g id="edge16" class="edge">
<title>5&#45;&#45;7</title>
<path fill="none" stroke="black" d="M40.46,-117.97C55.14,-100.47 78.49,-72.65 93.09,-55.24"/>
</g>
<!-- 5&#45;&#45;6 -->
<g id="edge15" class="edge">
<title>5&#45;&#45;6</title>
<path fill="none" stroke="black" d="M27,-152.49C27,-175.9 27,-215.99 27,-239.26"/>
</g>
</g>
</svg>
