<?xml version="1.0" encoding="UTF-8" standalone="no"?>
<!DOCTYPE svg PUBLIC "-//W3C//DTD SVG 1.1//EN"
 "http://www.w3.org/Graphics/SVG/1.1/DTD/svg11.dtd">
<!-- Generated by graphviz version 12.2.1 (20241206.2353)
 -->
<!-- Title: example Pages: 1 -->
<svg width="377pt" height="188pt"
 viewBox="0.00 0.00 376.64 188.00" xmlns="http://www.w3.org/2000/svg" xmlns:xlink="http://www.w3.org/1999/xlink">
<g id="graph0" class="graph" transform="scale(1 1) rotate(0) translate(4 184)">
<title>example</title>
<polygon fill="white" stroke="none" points="-4,4 -4,-184 372.64,-184 372.64,4 -4,4"/>
<!-- 2 -->
<g id="node1" class="node">
<title>2</title>
<ellipse fill="none" stroke="black" cx="53.92" cy="-162" rx="27" ry="18"/>
<text text-anchor="middle" x="53.92" y="-156.95" font-family="Times,serif" font-size="14.00">2</text>
</g>
<!-- 3 -->
<g id="node2" class="node">
<title>3</title>
<ellipse fill="none" stroke="black" cx="255.92" cy="-90" rx="27" ry="18"/>
<text text-anchor="middle" x="255.92" y="-84.95" font-family="Times,serif" font-size="14.00">3</text>
</g>
<!-- 2&#45;&#45;3 -->
<g id="edge1" class="edge">
<title>2&#45;&#45;3</title>
<path fill="none" stroke="black" d="M78.74,-154.19C111.51,-144.94 170.8,-127.34 219.92,-108 224.8,-106.08 229.96,-103.8 234.8,-101.54"/>
</g>
<!-- 7 -->
<g id="node3" class="node">
<title>7</title>
<ellipse fill="none" stroke="black" cx="70.92" cy="-18" rx="27" ry="18"/>
<text text-anchor="middle" x="70.92" y="-12.95" font-family="Times,serif" font-size="14.00">7</text>
</g>
<!-- 2&#45;&#45;7 -->
<g id="edge2" class="edge">
<title>2&#45;&#45;7</title>
<path fill="none" stroke="black" d="M36.3,-147.86C24.97,-138.25 11.22,-124.1 4.92,-108 -0.92,-93.1 -2,-86.43 4.92,-72 14.13,-52.79 34.08,-38.33 49.65,-29.41"/>
</g>
<!-- 6 -->
<g id="node5" class="node">
<title>6</title>
<ellipse fill="none" stroke="black" cx="169.92" cy="-18" rx="27" ry="18"/>
<text text-anchor="middle" x="169.92" y="-12.95" font-family="Times,serif" font-size="14.00">6</text>
</g>
<!-- 2&#45;&#45;6 -->
<g id="edge10" class="edge">
<title>2&#45;&#45;6</title>
<path fill="none" stroke="black" d="M54.23,-143.53C55.43,-124.21 59.93,-93.04 75.92,-72 93.49,-48.88 124.24,-34.33 145.77,-26.44"/>
</g>
<!-- 4 -->
<g id="node6" class="node">
<title>4</title>
<ellipse fill="none" stroke="black" cx="183.92" cy="-90" rx="27" ry="18"/>
<text text-anchor="middle" x="183.92" y="-84.95" font-family="Times,serif" font-size="14.00">4</text>
</g>
<!-- 2&#45;&#45;4 -->
<g id="edge14" class="edge">
<title>2&#45;&#45;4</title>
<path fill="none" stroke="black" d="M74.52,-149.91C98.86,-136.8 139.11,-115.12 163.41,-102.04"/>
</g>
<!-- 3&#45;&#45;7 -->
<g id="edge11" class="edge">
<title>3&#45;&#45;7</title>
<path fill="none" stroke="black" d="M234.75,-78.58C229.92,-76.32 224.77,-74 219.92,-72 176.52,-54.09 124.62,-36.46 94.93,-26.72"/>
</g>
<!-- 8 -->
<g id="node9" class="node">
<title>8</title>
<ellipse fill="none" stroke="black" cx="301.92" cy="-18" rx="27" ry="18"/>
<text text-anchor="middle" x="301.92" y="-12.95" font-family="Times,serif" font-size="14.00">8</text>
</g>
<!-- 3&#45;&#45;8 -->
<g id="edge13" class="edge">
<title>3&#45;&#45;8</title>
<path fill="none" stroke="black" d="M266.35,-73.12C273.88,-61.66 284,-46.26 291.52,-34.82"/>
</g>
<!-- 1 -->
<g id="node4" class="node">
<title>1</title>
<ellipse fill="none" stroke="black" cx="266.92" cy="-162" rx="27" ry="18"/>
<text text-anchor="middle" x="266.92" y="-156.95" font-family="Times,serif" font-size="14.00">1</text>
</g>
<!-- 1&#45;&#45;3 -->
<g id="edge18" class="edge">
<title>1&#45;&#45;3</title>
<path fill="none" stroke="black" d="M264.2,-143.7C262.49,-132.85 260.3,-118.92 258.6,-108.1"/>
</g>
<!-- 1&#45;&#45;6 -->
<g id="edge3" class="edge">
<title>1&#45;&#45;6</title>
<path fill="none" stroke="black" d="M278.55,-145.34C290.95,-126.58 306.88,-94.81 291.92,-72 270.83,-39.85 225.57,-27.1 196.49,-22.12"/>
</g>
<!-- 5 -->
<g id="node8" class="node">
<title>5</title>
<ellipse fill="none" stroke="black" cx="111.92" cy="-90" rx="27" ry="18"/>
<text text-anchor="middle" x="111.92" y="-84.95" font-family="Times,serif" font-size="14.00">5</text>
</g>
<!-- 1&#45;&#45;5 -->
<g id="edge9" class="edge">
<title>1&#45;&#45;5</title>
<path fill="none" stroke="black" d="M244.92,-151.38C220.99,-140.87 181.63,-123.47 147.92,-108 143.27,-105.87 138.3,-103.55 133.58,-101.33"/>
</g>
<!-- 1&#45;&#45;8 -->
<g id="edge17" class="edge">
<title>1&#45;&#45;8</title>
<path fill="none" stroke="black" d="M292.07,-154.9C315.06,-147.84 347.72,-133.74 362.92,-108 371.05,-94.22 369.55,-86.56 362.92,-72 354.6,-53.75 336.54,-39.35 322.22,-30.19"/>
</g>
<!-- 4&#45;&#45;6 -->
<g id="edge4" class="edge">
<title>4&#45;&#45;6</title>
<path fill="none" stroke="black" d="M180.46,-71.7C178.29,-60.85 175.5,-46.92 173.34,-36.1"/>
</g>
<!-- 4&#45;&#45;8 -->
<g id="edge12" class="edge">
<title>4&#45;&#45;8</title>
<path fill="none" stroke="black" d="M203.67,-77.28C225.45,-64.36 260.29,-43.69 282.1,-30.75"/>
</g>
<!-- 0 -->
<g id="node7" class="node">
<title>0</title>
<ellipse fill="none" stroke="black" cx="171.92" cy="-162" rx="27" ry="18"/>
<text text-anchor="middle" x="171.92" y="-156.95" font-family="Times,serif" font-size="14.00">0</text>
</g>
<!-- 0&#45;&#45;7 -->
<g id="edge7" class="edge">
<title>0&#45;&#45;7</title>
<path fill="none" stroke="black" d="M147.09,-154.7C124.33,-147.51 91.83,-133.3 75.92,-108 62.24,-86.25 64.2,-55.29 67.27,-36.2"/>
</g>
<!-- 0&#45;&#45;4 -->
<g id="edge5" class="edge">
<title>0&#45;&#45;4</title>
<path fill="none" stroke="black" d="M174.88,-143.7C176.74,-132.85 179.13,-118.92 180.98,-108.1"/>
</g>
<!-- 0&#45;&#45;5 -->
<g id="edge6" class="edge">
<title>0&#45;&#45;5</title>
<path fill="none" stroke="black" d="M158.9,-145.81C148.83,-134.07 134.97,-117.89 124.91,-106.16"/>
</g>
<!-- 0&#45;&#45;8 -->
<g id="edge8" class="edge">
<title>0&#45;&#45;8</title>
<path fill="none" stroke="black" d="M196.27,-153.44C227.78,-143.15 280.05,-124.15 291.92,-108 307.29,-87.07 306.86,-55.57 304.7,-36.2"/>
</g>
<!-- 5&#45;&#45;7 -->
<g id="edge16" class="edge">
<title>5&#45;&#45;7</title>
<path fill="none" stroke="black" d="M102.41,-72.76C95.78,-61.46 86.99,-46.44 80.37,-35.15"/>
</g>
<!-- 5&#45;&#45;6 -->
<g id="edge15" class="edge">
<title>5&#45;&#45;6</title>
<path fill="none" stroke="black" d="M124.5,-73.81C134.23,-62.07 147.63,-45.89 157.36,-34.16"/>
</g>
</g>
</svg>
