<?xml version="1.0" encoding="UTF-8" standalone="no"?>
<!DOCTYPE svg PUBLIC "-//W3C//DTD SVG 1.1//EN"
 "http://www.w3.org/Graphics/SVG/1.1/DTD/svg11.dtd">
<!-- Generated by graphviz version 12.2.1 (20241206.2353)
 -->
<!-- Title: example Pages: 1 -->
<svg width="303pt" height="252pt"
 viewBox="0.00 0.00 302.64 252.40" xmlns="http://www.w3.org/2000/svg" xmlns:xlink="http://www.w3.org/1999/xlink">
<g id="graph0" class="graph" transform="scale(1 1) rotate(0) translate(4 248.4)">
<title>example</title>
<polygon fill="white" stroke="none" points="-4,4 -4,-248.4 298.64,-248.4 298.64,4 -4,4"/>
<!-- 0 -->
<g id="node1" class="node">
<title>0</title>
<ellipse fill="none" stroke="black" cx="207.48" cy="-18" rx="27" ry="18"/>
<text text-anchor="middle" x="207.48" y="-12.95" font-family="Times,serif" font-size="14.00">0</text>
</g>
<!-- 1 -->
<g id="node2" class="node">
<title>1</title>
<ellipse fill="none" stroke="black" cx="267.64" cy="-122.2" rx="27" ry="18"/>
<text text-anchor="middle" x="267.64" y="-117.15" font-family="Times,serif" font-size="14.00">1</text>
</g>
<!-- 0&#45;&#45;1 -->
<g id="edge1" class="edge">
<title>0&#45;&#45;1</title>
<path fill="none" stroke="black" d="M217.42,-35.21C228.56,-54.51 246.54,-85.65 257.69,-104.97"/>
<text text-anchor="middle" x="234.18" y="-73.29" font-family="Times,serif" font-size="14.00">0</text>
</g>
<!-- 2 -->
<g id="node3" class="node">
<title>2</title>
<ellipse fill="none" stroke="black" cx="207.48" cy="-226.4" rx="27" ry="18"/>
<text text-anchor="middle" x="207.48" y="-221.35" font-family="Times,serif" font-size="14.00">2</text>
</g>
<!-- 0&#45;&#45;2 -->
<g id="edge2" class="edge">
<title>0&#45;&#45;2</title>
<path fill="none" stroke="black" d="M207.48,-36.49C207.48,-76.04 207.48,-168.44 207.48,-207.95"/>
<text text-anchor="middle" x="204.11" y="-125.42" font-family="Times,serif" font-size="14.00">1</text>
</g>
<!-- 3 -->
<g id="node4" class="node">
<title>3</title>
<ellipse fill="none" stroke="black" cx="27" cy="-122.2" rx="27" ry="18"/>
<text text-anchor="middle" x="27" y="-117.15" font-family="Times,serif" font-size="14.00">3</text>
</g>
<!-- 0&#45;&#45;3 -->
<g id="edge4" class="edge">
<title>0&#45;&#45;3</title>
<path fill="none" stroke="black" d="M186.78,-29.95C152.06,-50 82.48,-90.17 47.74,-110.23"/>
<text text-anchor="middle" x="113.88" y="-73.29" font-family="Times,serif" font-size="14.00">3</text>
</g>
<!-- 4 -->
<g id="node5" class="node">
<title>4</title>
<ellipse fill="none" stroke="black" cx="87.16" cy="-18" rx="27" ry="18"/>
<text text-anchor="middle" x="87.16" y="-12.95" font-family="Times,serif" font-size="14.00">4</text>
</g>
<!-- 0&#45;&#45;4 -->
<g id="edge5" class="edge">
<title>0&#45;&#45;4</title>
<path fill="none" stroke="black" d="M180.18,-18C160.49,-18 134.02,-18 114.36,-18"/>
<text text-anchor="middle" x="143.89" y="-21.2" font-family="Times,serif" font-size="14.00">4</text>
</g>
<!-- 1&#45;&#45;2 -->
<g id="edge3" class="edge">
<title>1&#45;&#45;2</title>
<path fill="none" stroke="black" d="M257.71,-139.41C246.56,-158.71 228.58,-189.85 217.43,-209.17"/>
<text text-anchor="middle" x="234.19" y="-177.49" font-family="Times,serif" font-size="14.00">2</text>
</g>
<!-- 1&#45;&#45;3 -->
<g id="edge7" class="edge">
<title>1&#45;&#45;3</title>
<path fill="none" stroke="black" d="M240.51,-122.2C194.29,-122.2 100.81,-122.2 54.41,-122.2"/>
<text text-anchor="middle" x="144.08" y="-125.4" font-family="Times,serif" font-size="14.00">6</text>
</g>
<!-- 5 -->
<g id="node6" class="node">
<title>5</title>
<ellipse fill="none" stroke="black" cx="87.16" cy="-226.4" rx="27" ry="18"/>
<text text-anchor="middle" x="87.16" y="-221.35" font-family="Times,serif" font-size="14.00">5</text>
</g>
<!-- 1&#45;&#45;5 -->
<g id="edge8" class="edge">
<title>1&#45;&#45;5</title>
<path fill="none" stroke="black" d="M246.94,-134.15C212.22,-154.2 142.65,-194.37 107.9,-214.43"/>
<text text-anchor="middle" x="174.04" y="-177.49" font-family="Times,serif" font-size="14.00">7</text>
</g>
<!-- 2&#45;&#45;4 -->
<g id="edge10" class="edge">
<title>2&#45;&#45;4</title>
<path fill="none" stroke="black" d="M197.64,-209.35C175.02,-170.17 119.56,-74.12 96.97,-35"/>
<text text-anchor="middle" x="143.93" y="-108.87" font-family="Times,serif" font-size="14.00">9</text>
</g>
<!-- 2&#45;&#45;5 -->
<g id="edge11" class="edge">
<title>2&#45;&#45;5</title>
<path fill="none" stroke="black" d="M180.18,-226.4C160.49,-226.4 134.02,-226.4 114.36,-226.4"/>
<text text-anchor="middle" x="140.52" y="-229.6" font-family="Times,serif" font-size="14.00">10</text>
</g>
<!-- 3&#45;&#45;4 -->
<g id="edge6" class="edge">
<title>3&#45;&#45;4</title>
<path fill="none" stroke="black" d="M36.93,-104.99C48.08,-85.69 66.06,-54.55 77.21,-35.23"/>
<text text-anchor="middle" x="53.7" y="-73.31" font-family="Times,serif" font-size="14.00">5</text>
</g>
<!-- 3&#45;&#45;5 -->
<g id="edge9" class="edge">
<title>3&#45;&#45;5</title>
<path fill="none" stroke="black" d="M36.93,-139.41C48.08,-158.71 66.06,-189.85 77.21,-209.17"/>
<text text-anchor="middle" x="53.7" y="-177.49" font-family="Times,serif" font-size="14.00">8</text>
</g>
<!-- 4&#45;&#45;5 -->
<g id="edge12" class="edge">
<title>4&#45;&#45;5</title>
<path fill="none" stroke="black" d="M87.16,-36.49C87.16,-76.04 87.16,-168.44 87.16,-207.95"/>
<text text-anchor="middle" x="80.41" y="-125.42" font-family="Times,serif" font-size="14.00">11</text>
</g>
</g>
</svg>
