<?xml version="1.0" encoding="UTF-8" standalone="no"?>
<!DOCTYPE svg PUBLIC "-//W3C//DTD SVG 1.1//EN"
 "http://www.w3.org/Graphics/SVG/1.1/DTD/svg11.dtd">
<!-- Generated by graphviz version 12.2.1 (20241206.2353)
 -->
<!-- Title: example Pages: 1 -->
<svg width="175pt" height="398pt"
 viewBox="0.00 0.00 174.78 398.00" xmlns="http://www.w3.org/2000/svg" xmlns:xlink="http://www.w3.org/1999/xlink">
<g id="graph0" class="graph" transform="scale(1 1) rotate(0) translate(4 394)">
<title>example</title>
<polygon fill="white" stroke="none" points="-4,4 -4,-394 170.78,-394 170.78,4 -4,4"/>
<!-- 0 -->
<g id="node1" class="node">
<title>0</title>
<ellipse fill="none" stroke="black" cx="59.78" cy="-372" rx="27" ry="18"/>
<text text-anchor="middle" x="59.78" y="-366.95" font-family="Times,serif" font-size="14.00">0</text>
</g>
<!-- 1 -->
<g id="node2" class="node">
<title>1</title>
<ellipse fill="none" stroke="black" cx="139.78" cy="-283.5" rx="27" ry="18"/>
<text text-anchor="middle" x="139.78" y="-278.45" font-family="Times,serif" font-size="14.00">1</text>
</g>
<!-- 0&#45;&#45;1 -->
<g id="edge1" class="edge">
<title>0&#45;&#45;1</title>
<path fill="none" stroke="black" d="M74.8,-357C81.38,-350.71 89.11,-343.12 95.78,-336 106.88,-324.16 118.8,-310.12 127.43,-299.69"/>
<text text-anchor="middle" x="112.88" y="-322.7" font-family="Times,serif" font-size="14.00">0</text>
</g>
<!-- 2 -->
<g id="node3" class="node">
<title>2</title>
<ellipse fill="none" stroke="black" cx="43.78" cy="-195" rx="27" ry="18"/>
<text text-anchor="middle" x="43.78" y="-189.95" font-family="Times,serif" font-size="14.00">2</text>
</g>
<!-- 0&#45;&#45;2 -->
<g id="edge2" class="edge">
<title>0&#45;&#45;2</title>
<path fill="none" stroke="black" d="M58.05,-353.58C56.66,-339.53 54.67,-319.24 53.03,-301.5 50.16,-270.38 47.02,-234.07 45.24,-213.18"/>
<text text-anchor="middle" x="56.41" y="-278.45" font-family="Times,serif" font-size="14.00">1</text>
</g>
<!-- 3 -->
<g id="node4" class="node">
<title>3</title>
<ellipse fill="none" stroke="black" cx="115.78" cy="-195" rx="27" ry="18"/>
<text text-anchor="middle" x="115.78" y="-189.95" font-family="Times,serif" font-size="14.00">3</text>
</g>
<!-- 0&#45;&#45;3 -->
<g id="edge4" class="edge">
<title>0&#45;&#45;3</title>
<path fill="none" stroke="black" d="M63.9,-353.94C72.32,-319.18 91.14,-242.45 95.78,-231 98.42,-224.51 102.04,-217.76 105.49,-211.93"/>
<text text-anchor="middle" x="89.24" y="-278.45" font-family="Times,serif" font-size="14.00">3</text>
</g>
<!-- 4 -->
<g id="node5" class="node">
<title>4</title>
<ellipse fill="none" stroke="black" cx="72.78" cy="-106.5" rx="27" ry="18"/>
<text text-anchor="middle" x="72.78" y="-101.45" font-family="Times,serif" font-size="14.00">4</text>
</g>
<!-- 0&#45;&#45;4 -->
<g id="edge5" class="edge">
<title>0&#45;&#45;4</title>
<path fill="none" stroke="black" d="M48.92,-355.27C27.18,-321.74 -17.5,-241.06 7.78,-177 17.19,-153.18 39.03,-132.73 54.81,-120.3"/>
<text text-anchor="middle" x="6.3" y="-234.2" font-family="Times,serif" font-size="14.00">4</text>
</g>
<!-- 1&#45;&#45;2 -->
<g id="edge3" class="edge">
<title>1&#45;&#45;2</title>
<path fill="none" stroke="black" d="M124.36,-268.6C106.55,-252.56 77.42,-226.3 59.49,-210.15"/>
<text text-anchor="middle" x="103.76" y="-234.2" font-family="Times,serif" font-size="14.00">2</text>
</g>
<!-- 1&#45;&#45;3 -->
<g id="edge7" class="edge">
<title>1&#45;&#45;3</title>
<path fill="none" stroke="black" d="M135.04,-265.41C130.84,-250.25 124.72,-228.21 120.52,-213.05"/>
<text text-anchor="middle" x="133.31" y="-234.2" font-family="Times,serif" font-size="14.00">6</text>
</g>
<!-- 5 -->
<g id="node6" class="node">
<title>5</title>
<ellipse fill="none" stroke="black" cx="119.78" cy="-18" rx="27" ry="18"/>
<text text-anchor="middle" x="119.78" y="-12.95" font-family="Times,serif" font-size="14.00">5</text>
</g>
<!-- 1&#45;&#45;5 -->
<g id="edge8" class="edge">
<title>1&#45;&#45;5</title>
<path fill="none" stroke="black" d="M143.62,-265.18C146.52,-251.19 150.25,-230.93 151.78,-213 157.86,-142.09 150.7,-122.88 132.78,-54 131.22,-47.98 129,-41.55 126.84,-35.87"/>
<text text-anchor="middle" x="157.04" y="-145.7" font-family="Times,serif" font-size="14.00">7</text>
</g>
<!-- 2&#45;&#45;4 -->
<g id="edge10" class="edge">
<title>2&#45;&#45;4</title>
<path fill="none" stroke="black" d="M49.51,-176.91C54.6,-161.75 61.99,-139.71 67.07,-124.55"/>
<text text-anchor="middle" x="64.26" y="-145.7" font-family="Times,serif" font-size="14.00">9</text>
</g>
<!-- 2&#45;&#45;5 -->
<g id="edge11" class="edge">
<title>2&#45;&#45;5</title>
<path fill="none" stroke="black" d="M34.46,-177.73C23.44,-156.19 8.4,-117.56 23.28,-88.5 38.62,-58.55 73.55,-38.56 96.9,-27.99"/>
<text text-anchor="middle" x="30.03" y="-101.45" font-family="Times,serif" font-size="14.00">10</text>
</g>
<!-- 3&#45;&#45;4 -->
<g id="edge6" class="edge">
<title>3&#45;&#45;4</title>
<path fill="none" stroke="black" d="M107.7,-177.73C100.06,-162.36 88.66,-139.43 80.98,-123.99"/>
<text text-anchor="middle" x="101.51" y="-145.7" font-family="Times,serif" font-size="14.00">5</text>
</g>
<!-- 3&#45;&#45;5 -->
<g id="edge9" class="edge">
<title>3&#45;&#45;5</title>
<path fill="none" stroke="black" d="M116.18,-176.58C116.95,-143.04 118.62,-69.84 119.39,-36.35"/>
<text text-anchor="middle" x="121.56" y="-101.45" font-family="Times,serif" font-size="14.00">8</text>
</g>
<!-- 4&#45;&#45;5 -->
<g id="edge12" class="edge">
<title>4&#45;&#45;5</title>
<path fill="none" stroke="black" d="M81.62,-89.23C90.03,-73.77 102.59,-50.64 110.98,-35.2"/>
<text text-anchor="middle" x="107.24" y="-57.2" font-family="Times,serif" font-size="14.00">11</text>
</g>
</g>
</svg>
