<?xml version="1.0" encoding="UTF-8" standalone="no"?>
<!DOCTYPE svg PUBLIC "-//W3C//DTD SVG 1.1//EN"
 "http://www.w3.org/Graphics/SVG/1.1/DTD/svg11.dtd">
<!-- Generated by graphviz version 12.2.1 (20241206.2353)
 -->
<!-- Title: example Pages: 1 -->
<svg width="134pt" height="169pt"
 viewBox="0.00 0.00 133.70 169.45" xmlns="http://www.w3.org/2000/svg" xmlns:xlink="http://www.w3.org/1999/xlink">
<g id="graph0" class="graph" transform="scale(1 1) rotate(0) translate(4 165.45)">
<title>example</title>
<polygon fill="white" stroke="none" points="-4,4 -4,-165.45 129.7,-165.45 129.7,4 -4,4"/>
<!-- 0 -->
<g id="node1" class="node">
<title>0</title>
<ellipse fill="none" stroke="black" cx="27.94" cy="-61.82" rx="27" ry="18"/>
<text text-anchor="middle" x="27.94" y="-56.77" font-family="Times,serif" font-size="14.00">0</text>
</g>
<!-- 1 -->
<g id="node2" class="node">
<title>1</title>
<ellipse fill="none" stroke="black" cx="98.7" cy="-65.65" rx="27" ry="18"/>
<text text-anchor="middle" x="98.7" y="-60.6" font-family="Times,serif" font-size="14.00">1</text>
</g>
<!-- 0&#45;&#45;1 -->
<g id="edge1" class="edge">
<title>0&#45;&#45;1</title>
<path fill="none" stroke="black" d="M55.09,-63.29C60.55,-63.59 66.28,-63.9 71.73,-64.19"/>
<text text-anchor="middle" x="60.04" y="-66.94" font-family="Times,serif" font-size="14.00">0</text>
</g>
<!-- 2 -->
<g id="node3" class="node">
<title>2</title>
<ellipse fill="none" stroke="black" cx="65.6" cy="-18" rx="27" ry="18"/>
<text text-anchor="middle" x="65.6" y="-12.95" font-family="Times,serif" font-size="14.00">2</text>
</g>
<!-- 0&#45;&#45;2 -->
<g id="edge2" class="edge">
<title>0&#45;&#45;2</title>
<path fill="none" stroke="black" d="M41.54,-46C44.91,-42.08 48.52,-37.87 51.9,-33.94"/>
<text text-anchor="middle" x="48.41" y="-26.67" font-family="Times,serif" font-size="14.00">1</text>
</g>
<!-- 3 -->
<g id="node4" class="node">
<title>3</title>
<ellipse fill="none" stroke="black" cx="59.04" cy="-143.45" rx="27" ry="18"/>
<text text-anchor="middle" x="59.04" y="-138.4" font-family="Times,serif" font-size="14.00">3</text>
</g>
<!-- 0&#45;&#45;3 -->
<g id="edge4" class="edge">
<title>0&#45;&#45;3</title>
<path fill="none" stroke="black" d="M34.69,-79.53C39.9,-93.22 47.09,-112.09 52.3,-125.77"/>
<text text-anchor="middle" x="40.12" y="-105.85" font-family="Times,serif" font-size="14.00">3</text>
</g>
<!-- 4 -->
<g id="node5" class="node">
<title>4</title>
<ellipse fill="none" stroke="black" cx="95.51" cy="-99.2" rx="27" ry="18"/>
<text text-anchor="middle" x="95.51" y="-94.15" font-family="Times,serif" font-size="14.00">4</text>
</g>
<!-- 0&#45;&#45;4 -->
<g id="edge5" class="edge">
<title>0&#45;&#45;4</title>
<path fill="none" stroke="black" d="M48.95,-73.44C57.01,-77.9 66.2,-82.99 74.28,-87.46"/>
<text text-anchor="middle" x="58.24" y="-83.65" font-family="Times,serif" font-size="14.00">4</text>
</g>
<!-- 1&#45;&#45;2 -->
<g id="edge3" class="edge">
<title>1&#45;&#45;2</title>
<path fill="none" stroke="black" d="M87.12,-48.98C83.92,-44.37 80.44,-39.36 77.23,-34.74"/>
<text text-anchor="middle" x="85.55" y="-45.06" font-family="Times,serif" font-size="14.00">2</text>
</g>
<!-- 1&#45;&#45;3 -->
<g id="edge7" class="edge">
<title>1&#45;&#45;3</title>
<path fill="none" stroke="black" d="M89.9,-82.92C83.37,-95.72 74.51,-113.11 67.95,-125.96"/>
<text text-anchor="middle" x="75.55" y="-107.64" font-family="Times,serif" font-size="14.00">6</text>
</g>
<!-- 5 -->
<g id="node6" class="node">
<title>5</title>
<ellipse fill="none" stroke="black" cx="27" cy="-95.61" rx="27" ry="18"/>
<text text-anchor="middle" x="27" y="-90.56" font-family="Times,serif" font-size="14.00">5</text>
</g>
<!-- 1&#45;&#45;5 -->
<g id="edge8" class="edge">
<title>1&#45;&#45;5</title>
<path fill="none" stroke="black" d="M75.62,-75.29C67.43,-78.71 58.22,-82.56 50.04,-85.98"/>
<text text-anchor="middle" x="66.2" y="-83.84" font-family="Times,serif" font-size="14.00">7</text>
</g>
<!-- 2&#45;&#45;4 -->
<g id="edge10" class="edge">
<title>2&#45;&#45;4</title>
<path fill="none" stroke="black" d="M72.09,-35.62C77.07,-49.15 83.93,-67.75 88.93,-81.33"/>
<text text-anchor="middle" x="77.14" y="-45.18" font-family="Times,serif" font-size="14.00">9</text>
</g>
<!-- 2&#45;&#45;5 -->
<g id="edge11" class="edge">
<title>2&#45;&#45;5</title>
<path fill="none" stroke="black" d="M57.04,-35.22C50.68,-47.99 42.06,-65.34 35.68,-78.16"/>
<text text-anchor="middle" x="53.11" y="-43.39" font-family="Times,serif" font-size="14.00">10</text>
</g>
<!-- 3&#45;&#45;4 -->
<g id="edge6" class="edge">
<title>3&#45;&#45;4</title>
<path fill="none" stroke="black" d="M72.21,-127.47C75.47,-123.51 78.97,-119.27 82.24,-115.3"/>
<text text-anchor="middle" x="80.6" y="-124.59" font-family="Times,serif" font-size="14.00">5</text>
</g>
<!-- 3&#45;&#45;5 -->
<g id="edge9" class="edge">
<title>3&#45;&#45;5</title>
<path fill="none" stroke="black" d="M47.83,-126.72C44.73,-122.08 41.36,-117.05 38.25,-112.41"/>
<text text-anchor="middle" x="46.42" y="-106.26" font-family="Times,serif" font-size="14.00">8</text>
</g>
<!-- 4&#45;&#45;5 -->
<g id="edge12" class="edge">
<title>4&#45;&#45;5</title>
<path fill="none" stroke="black" d="M68.43,-97.78C63.79,-97.54 58.97,-97.28 54.33,-97.04"/>
<text text-anchor="middle" x="68.13" y="-100.61" font-family="Times,serif" font-size="14.00">11</text>
</g>
</g>
</svg>
