<?xml version="1.0" encoding="UTF-8" standalone="no"?>
<!DOCTYPE svg PUBLIC "-//W3C//DTD SVG 1.1//EN"
 "http://www.w3.org/Graphics/SVG/1.1/DTD/svg11.dtd">
<!-- Generated by graphviz version 12.2.1 (20241206.2353)
 -->
<!-- Title: example Pages: 1 -->
<svg width="389pt" height="343pt"
 viewBox="0.00 0.00 389.13 343.07" xmlns="http://www.w3.org/2000/svg" xmlns:xlink="http://www.w3.org/1999/xlink">
<g id="graph0" class="graph" transform="scale(1 1) rotate(0) translate(4 339.07)">
<title>example</title>
<polygon fill="white" stroke="none" points="-4,4 -4,-339.07 385.13,-339.07 385.13,4 -4,4"/>
<!-- 0 -->
<g id="node1" class="node">
<title>0</title>
<ellipse fill="none" stroke="black" cx="122.43" cy="-317.07" rx="27" ry="18"/>
<text text-anchor="middle" x="122.43" y="-312.02" font-family="Times,serif" font-size="14.00">0</text>
</g>
<!-- 1 -->
<g id="node2" class="node">
<title>1</title>
<ellipse fill="none" stroke="black" cx="27" cy="-183.22" rx="27" ry="18"/>
<text text-anchor="middle" x="27" y="-178.17" font-family="Times,serif" font-size="14.00">1</text>
</g>
<!-- 0&#45;&#45;1 -->
<g id="edge1" class="edge">
<title>0&#45;&#45;1</title>
<path fill="none" stroke="black" d="M110.73,-300.65C92.41,-274.96 57.17,-225.54 38.8,-199.77"/>
<text text-anchor="middle" x="71.39" y="-253.41" font-family="Times,serif" font-size="14.00">0</text>
</g>
<!-- 2 -->
<g id="node3" class="node">
<title>2</title>
<ellipse fill="none" stroke="black" cx="95.11" cy="-33.61" rx="27" ry="18"/>
<text text-anchor="middle" x="95.11" y="-28.56" font-family="Times,serif" font-size="14.00">2</text>
</g>
<!-- 0&#45;&#45;2 -->
<g id="edge2" class="edge">
<title>0&#45;&#45;2</title>
<path fill="none" stroke="black" d="M120.68,-298.9C115.75,-247.83 101.83,-103.33 96.88,-51.99"/>
<text text-anchor="middle" x="105.4" y="-178.65" font-family="Times,serif" font-size="14.00">1</text>
</g>
<!-- 3 -->
<g id="node4" class="node">
<title>3</title>
<ellipse fill="none" stroke="black" cx="285.96" cy="-301.21" rx="27" ry="18"/>
<text text-anchor="middle" x="285.96" y="-296.16" font-family="Times,serif" font-size="14.00">3</text>
</g>
<!-- 0&#45;&#45;3 -->
<g id="edge4" class="edge">
<title>0&#45;&#45;3</title>
<path fill="none" stroke="black" d="M149.43,-314.45C179.73,-311.51 228.6,-306.77 258.91,-303.83"/>
<text text-anchor="middle" x="200.8" y="-312.34" font-family="Times,serif" font-size="14.00">3</text>
</g>
<!-- 4 -->
<g id="node5" class="node">
<title>4</title>
<ellipse fill="none" stroke="black" cx="354.13" cy="-151.85" rx="27" ry="18"/>
<text text-anchor="middle" x="354.13" y="-146.8" font-family="Times,serif" font-size="14.00">4</text>
</g>
<!-- 0&#45;&#45;4 -->
<g id="edge5" class="edge">
<title>0&#45;&#45;4</title>
<path fill="none" stroke="black" d="M141,-303.82C184.38,-272.89 292,-196.15 335.47,-165.15"/>
<text text-anchor="middle" x="234.86" y="-237.69" font-family="Times,serif" font-size="14.00">4</text>
</g>
<!-- 1&#45;&#45;2 -->
<g id="edge3" class="edge">
<title>1&#45;&#45;2</title>
<path fill="none" stroke="black" d="M34.95,-165.77C48.07,-136.94 74.12,-79.71 87.21,-50.96"/>
<text text-anchor="middle" x="57.7" y="-111.56" font-family="Times,serif" font-size="14.00">2</text>
</g>
<!-- 1&#45;&#45;3 -->
<g id="edge7" class="edge">
<title>1&#45;&#45;3</title>
<path fill="none" stroke="black" d="M49.53,-193.49C98.5,-215.8 214.2,-268.52 263.3,-290.89"/>
<text text-anchor="middle" x="153.04" y="-245.39" font-family="Times,serif" font-size="14.00">6</text>
</g>
<!-- 5 -->
<g id="node6" class="node">
<title>5</title>
<ellipse fill="none" stroke="black" cx="258.88" cy="-18" rx="27" ry="18"/>
<text text-anchor="middle" x="258.88" y="-12.95" font-family="Times,serif" font-size="14.00">5</text>
</g>
<!-- 1&#45;&#45;5 -->
<g id="edge8" class="edge">
<title>1&#45;&#45;5</title>
<path fill="none" stroke="black" d="M45.58,-169.98C89,-139.04 196.7,-62.3 240.21,-31.3"/>
<text text-anchor="middle" x="139.52" y="-103.84" font-family="Times,serif" font-size="14.00">7</text>
</g>
<!-- 2&#45;&#45;4 -->
<g id="edge10" class="edge">
<title>2&#45;&#45;4</title>
<path fill="none" stroke="black" d="M117.64,-43.9C166.63,-66.26 282.35,-119.08 331.46,-141.5"/>
<text text-anchor="middle" x="221.18" y="-95.9" font-family="Times,serif" font-size="14.00">9</text>
</g>
<!-- 2&#45;&#45;5 -->
<g id="edge11" class="edge">
<title>2&#45;&#45;5</title>
<path fill="none" stroke="black" d="M122.15,-31.03C152.5,-28.14 201.43,-23.48 231.8,-20.58"/>
<text text-anchor="middle" x="170.22" y="-29.01" font-family="Times,serif" font-size="14.00">10</text>
</g>
<!-- 3&#45;&#45;4 -->
<g id="edge6" class="edge">
<title>3&#45;&#45;4</title>
<path fill="none" stroke="black" d="M293.91,-283.79C307.05,-255 333.12,-197.87 346.22,-169.16"/>
<text text-anchor="middle" x="316.69" y="-229.67" font-family="Times,serif" font-size="14.00">5</text>
</g>
<!-- 3&#45;&#45;5 -->
<g id="edge9" class="edge">
<title>3&#45;&#45;5</title>
<path fill="none" stroke="black" d="M284.22,-283.06C279.34,-232.03 265.54,-87.66 260.63,-36.36"/>
<text text-anchor="middle" x="269.05" y="-162.91" font-family="Times,serif" font-size="14.00">8</text>
</g>
<!-- 4&#45;&#45;5 -->
<g id="edge12" class="edge">
<title>4&#45;&#45;5</title>
<path fill="none" stroke="black" d="M342.26,-135.17C323.9,-109.38 288.86,-60.13 270.6,-34.47"/>
<text text-anchor="middle" x="299.68" y="-88.02" font-family="Times,serif" font-size="14.00">11</text>
</g>
</g>
</svg>
