<?xml version="1.0" encoding="UTF-8" standalone="no"?>
<!DOCTYPE svg PUBLIC "-//W3C//DTD SVG 1.1//EN"
 "http://www.w3.org/Graphics/SVG/1.1/DTD/svg11.dtd">
<!-- Generated by graphviz version 12.2.1 (20241206.2353)
 -->
<!-- Title: example Pages: 1 -->
<svg width="293pt" height="165pt"
 viewBox="0.00 0.00 293.21 164.64" xmlns="http://www.w3.org/2000/svg" xmlns:xlink="http://www.w3.org/1999/xlink">
<g id="graph0" class="graph" transform="scale(1 1) rotate(0) translate(4 160.64)">
<title>example</title>
<polygon fill="white" stroke="none" points="-4,4 -4,-160.64 289.21,-160.64 289.21,4 -4,4"/>
<!-- 0 -->
<g id="node1" class="node">
<title>0</title>
<ellipse fill="none" stroke="black" cx="27" cy="-88.64" rx="27" ry="18"/>
<text text-anchor="middle" x="27" y="-83.59" font-family="Times,serif" font-size="14.00">0</text>
</g>
<!-- 5 -->
<g id="node2" class="node">
<title>5</title>
<ellipse fill="none" stroke="black" cx="98.21" cy="-78" rx="27" ry="18"/>
<text text-anchor="middle" x="98.21" y="-72.95" font-family="Times,serif" font-size="14.00">5</text>
</g>
<!-- 0&#45;&#45;5 -->
<g id="edge1" class="edge">
<title>0&#45;&#45;5</title>
<path fill="none" stroke="black" d="M53.52,-84.68C59.37,-83.8 65.57,-82.88 71.43,-82"/>
<text text-anchor="middle" x="59.1" y="-86.54" font-family="Times,serif" font-size="14.00">0</text>
</g>
<!-- 1 -->
<g id="node3" class="node">
<title>1</title>
<ellipse fill="none" stroke="black" cx="117" cy="-138.64" rx="27" ry="18"/>
<text text-anchor="middle" x="117" y="-133.59" font-family="Times,serif" font-size="14.00">1</text>
</g>
<!-- 4 -->
<g id="node4" class="node">
<title>4</title>
<ellipse fill="none" stroke="black" cx="188.21" cy="-128" rx="27" ry="18"/>
<text text-anchor="middle" x="188.21" y="-122.95" font-family="Times,serif" font-size="14.00">4</text>
</g>
<!-- 1&#45;&#45;4 -->
<g id="edge2" class="edge">
<title>1&#45;&#45;4</title>
<path fill="none" stroke="black" d="M143.52,-134.68C149.37,-133.8 155.57,-132.88 161.43,-132"/>
<text text-anchor="middle" x="149.1" y="-136.54" font-family="Times,serif" font-size="14.00">1</text>
</g>
<!-- 2 -->
<g id="node5" class="node">
<title>2</title>
<ellipse fill="none" stroke="black" cx="187" cy="-28.64" rx="27" ry="18"/>
<text text-anchor="middle" x="187" y="-23.59" font-family="Times,serif" font-size="14.00">2</text>
</g>
<!-- 3 -->
<g id="node6" class="node">
<title>3</title>
<ellipse fill="none" stroke="black" cx="258.21" cy="-18" rx="27" ry="18"/>
<text text-anchor="middle" x="258.21" y="-12.95" font-family="Times,serif" font-size="14.00">3</text>
</g>
<!-- 2&#45;&#45;3 -->
<g id="edge3" class="edge">
<title>2&#45;&#45;3</title>
<path fill="none" stroke="black" d="M213.52,-24.68C219.37,-23.8 225.57,-22.88 231.43,-22"/>
<text text-anchor="middle" x="219.1" y="-26.54" font-family="Times,serif" font-size="14.00">2</text>
</g>
</g>
</svg>
