<?xml version="1.0" encoding="UTF-8" standalone="no"?>
<!DOCTYPE svg PUBLIC "-//W3C//DTD SVG 1.1//EN"
 "http://www.w3.org/Graphics/SVG/1.1/DTD/svg11.dtd">
<!-- Generated by graphviz version 12.2.1 (20241206.2353)
 -->
<!-- Title: example Pages: 1 -->
<svg width="460pt" height="148pt"
 viewBox="0.00 0.00 459.62 148.00" xmlns="http://www.w3.org/2000/svg" xmlns:xlink="http://www.w3.org/1999/xlink">
<g id="graph0" class="graph" transform="scale(1 1) rotate(0) translate(4 144)">
<title>example</title>
<polygon fill="white" stroke="none" points="-4,4 -4,-144 455.62,-144 455.62,4 -4,4"/>
<!-- 0 -->
<g id="node1" class="node">
<title>0</title>
<ellipse fill="none" stroke="black" cx="216.62" cy="-18" rx="27" ry="18"/>
<text text-anchor="middle" x="216.62" y="-12.95" font-family="Times,serif" font-size="14.00">0</text>
</g>
<!-- 5 -->
<g id="node2" class="node">
<title>5</title>
<ellipse fill="none" stroke="black" cx="27" cy="-18" rx="27" ry="18"/>
<text text-anchor="middle" x="27" y="-12.95" font-family="Times,serif" font-size="14.00">5</text>
</g>
<!-- 0&#45;&#45;5 -->
<g id="edge1" class="edge">
<title>0&#45;&#45;5</title>
<path fill="none" stroke="black" d="M189.45,-18C153.51,-18 90.5,-18 54.42,-18"/>
<text text-anchor="middle" x="118.56" y="-21.2" font-family="Times,serif" font-size="14.00">0</text>
</g>
<!-- 1 -->
<g id="node3" class="node">
<title>1</title>
<ellipse fill="none" stroke="black" cx="320.62" cy="-70" rx="27" ry="18"/>
<text text-anchor="middle" x="320.62" y="-64.95" font-family="Times,serif" font-size="14.00">1</text>
</g>
<!-- 4 -->
<g id="node4" class="node">
<title>4</title>
<ellipse fill="none" stroke="black" cx="131" cy="-70" rx="27" ry="18"/>
<text text-anchor="middle" x="131" y="-64.95" font-family="Times,serif" font-size="14.00">4</text>
</g>
<!-- 1&#45;&#45;4 -->
<g id="edge2" class="edge">
<title>1&#45;&#45;4</title>
<path fill="none" stroke="black" d="M293.45,-70C257.51,-70 194.5,-70 158.42,-70"/>
<text text-anchor="middle" x="222.56" y="-73.2" font-family="Times,serif" font-size="14.00">1</text>
</g>
<!-- 2 -->
<g id="node5" class="node">
<title>2</title>
<ellipse fill="none" stroke="black" cx="424.62" cy="-122" rx="27" ry="18"/>
<text text-anchor="middle" x="424.62" y="-116.95" font-family="Times,serif" font-size="14.00">2</text>
</g>
<!-- 3 -->
<g id="node6" class="node">
<title>3</title>
<ellipse fill="none" stroke="black" cx="235" cy="-122" rx="27" ry="18"/>
<text text-anchor="middle" x="235" y="-116.95" font-family="Times,serif" font-size="14.00">3</text>
</g>
<!-- 2&#45;&#45;3 -->
<g id="edge3" class="edge">
<title>2&#45;&#45;3</title>
<path fill="none" stroke="black" d="M397.45,-122C361.51,-122 298.5,-122 262.42,-122"/>
<text text-anchor="middle" x="326.56" y="-125.2" font-family="Times,serif" font-size="14.00">2</text>
</g>
</g>
</svg>
