<?xml version="1.0" encoding="UTF-8" standalone="no"?>
<!DOCTYPE svg PUBLIC "-//W3C//DTD SVG 1.1//EN"
 "http://www.w3.org/Graphics/SVG/1.1/DTD/svg11.dtd">
<!-- Generated by graphviz version 12.2.1 (20241206.2353)
 -->
<!-- Title: example Pages: 1 -->
<svg width="362pt" height="340pt"
 viewBox="0.00 0.00 361.70 340.13" xmlns="http://www.w3.org/2000/svg" xmlns:xlink="http://www.w3.org/1999/xlink">
<g id="graph0" class="graph" transform="scale(1 1) rotate(0) translate(4 336.13)">
<title>example</title>
<polygon fill="white" stroke="none" points="-4,4 -4,-336.13 357.7,-336.13 357.7,4 -4,4"/>
<!-- 0 -->
<g id="node1" class="node">
<title>0</title>
<ellipse fill="none" stroke="black" cx="188.07" cy="-314.13" rx="27" ry="18"/>
<text text-anchor="middle" x="188.07" y="-309.08" font-family="Times,serif" font-size="14.00">0</text>
</g>
<!-- 1 -->
<g id="node2" class="node">
<title>1</title>
<ellipse fill="none" stroke="black" cx="27" cy="-180.11" rx="27" ry="18"/>
<text text-anchor="middle" x="27" y="-175.06" font-family="Times,serif" font-size="14.00">1</text>
</g>
<!-- 0&#45;&#45;1 -->
<g id="edge1" class="edge">
<title>0&#45;&#45;1</title>
<path fill="none" stroke="black" d="M170.83,-299.79C139.83,-273.99 75.02,-220.07 44.11,-194.35"/>
<text text-anchor="middle" x="104.1" y="-250.27" font-family="Times,serif" font-size="14.00">0</text>
</g>
<!-- 2 -->
<g id="node3" class="node">
<title>2</title>
<ellipse fill="none" stroke="black" cx="160.1" cy="-18" rx="27" ry="18"/>
<text text-anchor="middle" x="160.1" y="-12.95" font-family="Times,serif" font-size="14.00">2</text>
</g>
<!-- 0&#45;&#45;2 -->
<g id="edge2" class="edge">
<title>0&#45;&#45;2</title>
<path fill="none" stroke="black" d="M186.36,-296.05C181.37,-243.18 166.83,-89.26 161.82,-36.22"/>
<text text-anchor="middle" x="170.72" y="-169.33" font-family="Times,serif" font-size="14.00">1</text>
</g>
<!-- 3 -->
<g id="node4" class="node">
<title>3</title>
<ellipse fill="none" stroke="black" cx="326.7" cy="-152.47" rx="27" ry="18"/>
<text text-anchor="middle" x="326.7" y="-147.42" font-family="Times,serif" font-size="14.00">3</text>
</g>
<!-- 0&#45;&#45;3 -->
<g id="edge3" class="edge">
<title>0&#45;&#45;3</title>
<path fill="none" stroke="black" d="M201.61,-298.33C228.19,-267.35 286.86,-198.93 313.31,-168.09"/>
<text text-anchor="middle" x="254.09" y="-236.41" font-family="Times,serif" font-size="14.00">2</text>
</g>
<!-- 1&#45;&#45;2 -->
<g id="edge4" class="edge">
<title>1&#45;&#45;2</title>
<path fill="none" stroke="black" d="M40.25,-163.97C65.76,-132.9 121.43,-65.09 146.91,-34.07"/>
<text text-anchor="middle" x="90.2" y="-102.22" font-family="Times,serif" font-size="14.00">3</text>
</g>
<!-- 1&#45;&#45;3 -->
<g id="edge5" class="edge">
<title>1&#45;&#45;3</title>
<path fill="none" stroke="black" d="M54.13,-177.61C111.19,-172.34 243.04,-160.18 299.85,-154.94"/>
<text text-anchor="middle" x="180.36" y="-169.47" font-family="Times,serif" font-size="14.00">4</text>
</g>
<!-- 2&#45;&#45;3 -->
<g id="edge6" class="edge">
<title>2&#45;&#45;3</title>
<path fill="none" stroke="black" d="M177.61,-32.14C209.61,-57.96 277.16,-112.48 309.17,-138.32"/>
<text text-anchor="middle" x="240.02" y="-88.43" font-family="Times,serif" font-size="14.00">5</text>
</g>
</g>
</svg>
<?xml version="1.0" encoding="UTF-8" standalone="no"?>
<!DOCTYPE svg PUBLIC "-//W3C//DTD SVG 1.1//EN"
 "http://www.w3.org/Graphics/SVG/1.1/DTD/svg11.dtd">
<!-- Generated by graphviz version 12.2.1 (20241206.2353)
 -->
<!-- Title: example Pages: 1 -->
<svg width="389pt" height="343pt"
 viewBox="0.00 0.00 389.13 343.07" xmlns="http://www.w3.org/2000/svg" xmlns:xlink="http://www.w3.org/1999/xlink">
<g id="page0,1_graph0" class="graph" transform="scale(1 1) rotate(0) translate(4 339.07)">
<title>example</title>
<polygon fill="white" stroke="none" points="-4,4 -4,-339.07 385.13,-339.07 385.13,4 -4,4"/>
<!-- 0 -->
<g id="node1" class="node">
<title>0</title>
<ellipse fill="none" stroke="black" cx="122.43" cy="-317.07" rx="27" ry="18"/>
<text text-anchor="middle" x="122.43" y="-312.02" font-family="Times,serif" font-size="14.00">0</text>
</g>
<!-- 1 -->
<g id="node2" class="node">
<title>1</title>
<ellipse fill="none" stroke="black" cx="27" cy="-183.22" rx="27" ry="18"/>
<text text-anchor="middle" x="27" y="-178.17" font-family="Times,serif" font-size="14.00">1</text>
</g>
<!-- 0&#45;&#45;1 -->
<g id="edge1" class="edge">
<title>0&#45;&#45;1</title>
<path fill="none" stroke="black" d="M110.73,-300.65C92.41,-274.96 57.17,-225.54 38.8,-199.77"/>
<text text-anchor="middle" x="71.39" y="-253.41" font-family="Times,serif" font-size="14.00">0</text>
</g>
<!-- 2 -->
<g id="node3" class="node">
<title>2</title>
<ellipse fill="none" stroke="black" cx="95.11" cy="-33.61" rx="27" ry="18"/>
<text text-anchor="middle" x="95.11" y="-28.56" font-family="Times,serif" font-size="14.00">2</text>
</g>
<!-- 0&#45;&#45;2 -->
<g id="edge2" class="edge">
<title>0&#45;&#45;2</title>
<path fill="none" stroke="black" d="M120.68,-298.9C115.75,-247.83 101.83,-103.33 96.88,-51.99"/>
<text text-anchor="middle" x="105.4" y="-178.65" font-family="Times,serif" font-size="14.00">1</text>
</g>
<!-- 3 -->
<g id="node4" class="node">
<title>3</title>
<ellipse fill="none" stroke="black" cx="285.96" cy="-301.21" rx="27" ry="18"/>
<text text-anchor="middle" x="285.96" y="-296.16" font-family="Times,serif" font-size="14.00">3</text>
</g>
<!-- 0&#45;&#45;3 -->
<g id="edge4" class="edge">
<title>0&#45;&#45;3</title>
<path fill="none" stroke="black" d="M149.43,-314.45C179.73,-311.51 228.6,-306.77 258.91,-303.83"/>
<text text-anchor="middle" x="200.8" y="-312.34" font-family="Times,serif" font-size="14.00">3</text>
</g>
<!-- 4 -->
<g id="node5" class="node">
<title>4</title>
<ellipse fill="none" stroke="black" cx="354.13" cy="-151.85" rx="27" ry="18"/>
<text text-anchor="middle" x="354.13" y="-146.8" font-family="Times,serif" font-size="14.00">4</text>
</g>
<!-- 0&#45;&#45;4 -->
<g id="edge5" class="edge">
<title>0&#45;&#45;4</title>
<path fill="none" stroke="black" d="M141,-303.82C184.38,-272.89 292,-196.15 335.47,-165.15"/>
<text text-anchor="middle" x="234.86" y="-237.69" font-family="Times,serif" font-size="14.00">4</text>
</g>
<!-- 1&#45;&#45;2 -->
<g id="edge3" class="edge">
<title>1&#45;&#45;2</title>
<path fill="none" stroke="black" d="M34.95,-165.77C48.07,-136.94 74.12,-79.71 87.21,-50.96"/>
<text text-anchor="middle" x="57.7" y="-111.56" font-family="Times,serif" font-size="14.00">2</text>
</g>
<!-- 1&#45;&#45;3 -->
<g id="edge7" class="edge">
<title>1&#45;&#45;3</title>
<path fill="none" stroke="black" d="M49.53,-193.49C98.5,-215.8 214.2,-268.52 263.3,-290.89"/>
<text text-anchor="middle" x="153.04" y="-245.39" font-family="Times,serif" font-size="14.00">6</text>
</g>
<!-- 5 -->
<g id="node6" class="node">
<title>5</title>
<ellipse fill="none" stroke="black" cx="258.88" cy="-18" rx="27" ry="18"/>
<text text-anchor="middle" x="258.88" y="-12.95" font-family="Times,serif" font-size="14.00">5</text>
</g>
<!-- 1&#45;&#45;5 -->
<g id="edge8" class="edge">
<title>1&#45;&#45;5</title>
<path fill="none" stroke="black" d="M45.58,-169.98C89,-139.04 196.7,-62.3 240.21,-31.3"/>
<text text-anchor="middle" x="139.52" y="-103.84" font-family="Times,serif" font-size="14.00">7</text>
</g>
<!-- 2&#45;&#45;4 -->
<g id="edge10" class="edge">
<title>2&#45;&#45;4</title>
<path fill="none" stroke="black" d="M117.64,-43.9C166.63,-66.26 282.35,-119.08 331.46,-141.5"/>
<text text-anchor="middle" x="221.18" y="-95.9" font-family="Times,serif" font-size="14.00">9</text>
</g>
<!-- 2&#45;&#45;5 -->
<g id="edge11" class="edge">
<title>2&#45;&#45;5</title>
<path fill="none" stroke="black" d="M122.15,-31.03C152.5,-28.14 201.43,-23.48 231.8,-20.58"/>
<text text-anchor="middle" x="170.22" y="-29.01" font-family="Times,serif" font-size="14.00">10</text>
</g>
<!-- 3&#45;&#45;4 -->
<g id="edge6" class="edge">
<title>3&#45;&#45;4</title>
<path fill="none" stroke="black" d="M293.91,-283.79C307.05,-255 333.12,-197.87 346.22,-169.16"/>
<text text-anchor="middle" x="316.69" y="-229.67" font-family="Times,serif" font-size="14.00">5</text>
</g>
<!-- 3&#45;&#45;5 -->
<g id="edge9" class="edge">
<title>3&#45;&#45;5</title>
<path fill="none" stroke="black" d="M284.22,-283.06C279.34,-232.03 265.54,-87.66 260.63,-36.36"/>
<text text-anchor="middle" x="269.05" y="-162.91" font-family="Times,serif" font-size="14.00">8</text>
</g>
<!-- 4&#45;&#45;5 -->
<g id="edge12" class="edge">
<title>4&#45;&#45;5</title>
<path fill="none" stroke="black" d="M342.26,-135.17C323.9,-109.38 288.86,-60.13 270.6,-34.47"/>
<text text-anchor="middle" x="299.68" y="-88.02" font-family="Times,serif" font-size="14.00">11</text>
</g>
</g>
</svg>
<?xml version="1.0" encoding="UTF-8" standalone="no"?>
<!DOCTYPE svg PUBLIC "-//W3C//DTD SVG 1.1//EN"
 "http://www.w3.org/Graphics/SVG/1.1/DTD/svg11.dtd">
<!-- Generated by graphviz version 12.2.1 (20241206.2353)
 -->
<!-- Title: example Pages: 1 -->
<svg width="497pt" height="469pt"
 viewBox="0.00 0.00 496.93 469.24" xmlns="http://www.w3.org/2000/svg" xmlns:xlink="http://www.w3.org/1999/xlink">
<g id="page0,1_graph0" class="graph" transform="scale(1 1) rotate(0) translate(4 465.24)">
<title>example</title>
<polygon fill="white" stroke="none" points="-4,4 -4,-465.24 492.93,-465.24 492.93,4 -4,4"/>
<!-- 0 -->
<g id="node1" class="node">
<title>0</title>
<ellipse fill="none" stroke="black" cx="178.35" cy="-443.24" rx="27" ry="18"/>
<text text-anchor="middle" x="178.35" y="-438.19" font-family="Times,serif" font-size="14.00">0</text>
</g>
<!-- 1 -->
<g id="node2" class="node">
<title>1</title>
<ellipse fill="none" stroke="black" cx="270.91" cy="-346.96" rx="27" ry="18"/>
<text text-anchor="middle" x="270.91" y="-341.91" font-family="Times,serif" font-size="14.00">1</text>
</g>
<!-- 0&#45;&#45;1 -->
<g id="edge1" class="edge">
<title>0&#45;&#45;1</title>
<path fill="none" stroke="black" d="M193.22,-427.77C210.49,-409.81 238.82,-380.34 256.08,-362.39"/>
<text text-anchor="middle" x="221.27" y="-398.28" font-family="Times,serif" font-size="14.00">0</text>
</g>
<!-- 3 -->
<g id="node3" class="node">
<title>3</title>
<ellipse fill="none" stroke="black" cx="27" cy="-279.68" rx="27" ry="18"/>
<text text-anchor="middle" x="27" y="-274.63" font-family="Times,serif" font-size="14.00">3</text>
</g>
<!-- 0&#45;&#45;3 -->
<g id="edge2" class="edge">
<title>0&#45;&#45;3</title>
<path fill="none" stroke="black" d="M163.84,-427.56C134.83,-396.21 70.03,-326.18 41.25,-295.07"/>
<text text-anchor="middle" x="99.17" y="-364.52" font-family="Times,serif" font-size="14.00">1</text>
</g>
<!-- 4 -->
<g id="node4" class="node">
<title>4</title>
<ellipse fill="none" stroke="black" cx="130.43" cy="-195.33" rx="27" ry="18"/>
<text text-anchor="middle" x="130.43" y="-190.28" font-family="Times,serif" font-size="14.00">4</text>
</g>
<!-- 0&#45;&#45;4 -->
<g id="edge3" class="edge">
<title>0&#45;&#45;4</title>
<path fill="none" stroke="black" d="M174.82,-425.01C165.96,-379.17 142.82,-259.46 133.96,-213.59"/>
<text text-anchor="middle" x="151.02" y="-322.5" font-family="Times,serif" font-size="14.00">2</text>
</g>
<!-- 2 -->
<g id="node5" class="node">
<title>2</title>
<ellipse fill="none" stroke="black" cx="395.87" cy="-394.35" rx="27" ry="18"/>
<text text-anchor="middle" x="395.87" y="-389.3" font-family="Times,serif" font-size="14.00">2</text>
</g>
<!-- 0&#45;&#45;2 -->
<g id="edge7" class="edge">
<title>0&#45;&#45;2</title>
<path fill="none" stroke="black" d="M204.15,-437.44C246.02,-428.03 328.25,-409.55 370.09,-400.15"/>
<text text-anchor="middle" x="283.75" y="-421.99" font-family="Times,serif" font-size="14.00">6</text>
</g>
<!-- 6 -->
<g id="node6" class="node">
<title>6</title>
<ellipse fill="none" stroke="black" cx="157.06" cy="-311.62" rx="27" ry="18"/>
<text text-anchor="middle" x="157.06" y="-306.57" font-family="Times,serif" font-size="14.00">6</text>
</g>
<!-- 0&#45;&#45;6 -->
<g id="edge8" class="edge">
<title>0&#45;&#45;6</title>
<path fill="none" stroke="black" d="M175.39,-424.94C171.32,-399.79 164.05,-354.83 160,-329.77"/>
<text text-anchor="middle" x="164.32" y="-380.55" font-family="Times,serif" font-size="14.00">7</text>
</g>
<!-- 7 -->
<g id="node7" class="node">
<title>7</title>
<ellipse fill="none" stroke="black" cx="358.57" cy="-265.95" rx="27" ry="18"/>
<text text-anchor="middle" x="358.57" y="-260.9" font-family="Times,serif" font-size="14.00">7</text>
</g>
<!-- 0&#45;&#45;7 -->
<g id="edge9" class="edge">
<title>0&#45;&#45;7</title>
<path fill="none" stroke="black" d="M193.71,-428.12C227.76,-394.63 309.23,-314.48 343.24,-281.02"/>
<text text-anchor="middle" x="265.1" y="-357.77" font-family="Times,serif" font-size="14.00">8</text>
</g>
<!-- 1&#45;&#45;3 -->
<g id="edge4" class="edge">
<title>1&#45;&#45;3</title>
<path fill="none" stroke="black" d="M245.73,-340.02C198.99,-327.12 99.32,-299.63 52.41,-286.69"/>
<text text-anchor="middle" x="152.45" y="-300.05" font-family="Times,serif" font-size="14.00">3</text>
</g>
<!-- 1&#45;&#45;4 -->
<g id="edge5" class="edge">
<title>1&#45;&#45;4</title>
<path fill="none" stroke="black" d="M256.41,-331.31C229.35,-302.1 171.49,-239.65 144.64,-210.68"/>
<text text-anchor="middle" x="197.15" y="-274.19" font-family="Times,serif" font-size="14.00">4</text>
</g>
<!-- 1&#45;&#45;2 -->
<g id="edge13" class="edge">
<title>1&#45;&#45;2</title>
<path fill="none" stroke="black" d="M294.71,-355.99C316.94,-364.42 349.95,-376.94 372.16,-385.36"/>
<text text-anchor="middle" x="326.68" y="-373.87" font-family="Times,serif" font-size="14.00">12</text>
</g>
<!-- 9 -->
<g id="node8" class="node">
<title>9</title>
<ellipse fill="none" stroke="black" cx="331.88" cy="-149.71" rx="27" ry="18"/>
<text text-anchor="middle" x="331.88" y="-144.66" font-family="Times,serif" font-size="14.00">9</text>
</g>
<!-- 1&#45;&#45;9 -->
<g id="edge14" class="edge">
<title>1&#45;&#45;9</title>
<path fill="none" stroke="black" d="M276.43,-329.11C288.01,-291.65 314.73,-205.21 326.33,-167.67"/>
<text text-anchor="middle" x="294.63" y="-251.59" font-family="Times,serif" font-size="14.00">13</text>
</g>
<!-- 10 -->
<g id="node9" class="node">
<title>10</title>
<ellipse fill="none" stroke="black" cx="461.93" cy="-181.35" rx="27" ry="18"/>
<text text-anchor="middle" x="461.93" y="-176.3" font-family="Times,serif" font-size="14.00">10</text>
</g>
<!-- 1&#45;&#45;10 -->
<g id="edge15" class="edge">
<title>1&#45;&#45;10</title>
<path fill="none" stroke="black" d="M287.53,-332.56C323.66,-301.24 409,-227.24 445.21,-195.85"/>
<text text-anchor="middle" x="373.12" y="-267.4" font-family="Times,serif" font-size="14.00">14</text>
</g>
<!-- 3&#45;&#45;4 -->
<g id="edge6" class="edge">
<title>3&#45;&#45;4</title>
<path fill="none" stroke="black" d="M44.08,-265.75C63.13,-250.21 93.78,-225.22 112.98,-209.56"/>
<text text-anchor="middle" x="75.15" y="-240.86" font-family="Times,serif" font-size="14.00">5</text>
</g>
<!-- 3&#45;&#45;6 -->
<g id="edge20" class="edge">
<title>3&#45;&#45;6</title>
<path fill="none" stroke="black" d="M52.7,-285.99C75.5,-291.59 108.63,-299.73 131.42,-305.33"/>
<text text-anchor="middle" x="85.31" y="-298.86" font-family="Times,serif" font-size="14.00">19</text>
</g>
<!-- 5 -->
<g id="node10" class="node">
<title>5</title>
<ellipse fill="none" stroke="black" cx="93.3" cy="-67.22" rx="27" ry="18"/>
<text text-anchor="middle" x="93.3" y="-62.17" font-family="Times,serif" font-size="14.00">5</text>
</g>
<!-- 3&#45;&#45;5 -->
<g id="edge19" class="edge">
<title>3&#45;&#45;5</title>
<path fill="none" stroke="black" d="M32.54,-261.93C45.02,-221.94 75.22,-125.15 87.73,-85.06"/>
<text text-anchor="middle" x="53.38" y="-176.7" font-family="Times,serif" font-size="14.00">18</text>
</g>
<!-- 8 -->
<g id="node11" class="node">
<title>8</title>
<ellipse fill="none" stroke="black" cx="218.08" cy="-114.35" rx="27" ry="18"/>
<text text-anchor="middle" x="218.08" y="-109.3" font-family="Times,serif" font-size="14.00">8</text>
</g>
<!-- 3&#45;&#45;8 -->
<g id="edge21" class="edge">
<title>3&#45;&#45;8</title>
<path fill="none" stroke="black" d="M43.62,-265.29C79.76,-234.03 165.13,-160.16 201.36,-128.82"/>
<text text-anchor="middle" x="129.24" y="-200.26" font-family="Times,serif" font-size="14.00">20</text>
</g>
<!-- 4&#45;&#45;9 -->
<g id="edge26" class="edge">
<title>4&#45;&#45;9</title>
<path fill="none" stroke="black" d="M156.35,-189.46C195.03,-180.7 267.43,-164.31 306.06,-155.56"/>
<text text-anchor="middle" x="224.46" y="-175.71" font-family="Times,serif" font-size="14.00">25</text>
</g>
<!-- 4&#45;&#45;5 -->
<g id="edge25" class="edge">
<title>4&#45;&#45;5</title>
<path fill="none" stroke="black" d="M125.19,-177.25C118.11,-152.83 105.58,-109.58 98.51,-85.21"/>
<text text-anchor="middle" x="105.1" y="-134.43" font-family="Times,serif" font-size="14.00">24</text>
</g>
<!-- 11 -->
<g id="node12" class="node">
<title>11</title>
<ellipse fill="none" stroke="black" cx="310.77" cy="-18" rx="27" ry="18"/>
<text text-anchor="middle" x="310.77" y="-12.95" font-family="Times,serif" font-size="14.00">11</text>
</g>
<!-- 4&#45;&#45;11 -->
<g id="edge27" class="edge">
<title>4&#45;&#45;11</title>
<path fill="none" stroke="black" d="M145.8,-180.21C179.88,-146.71 261.4,-66.55 295.43,-33.08"/>
<text text-anchor="middle" x="213.87" y="-93.35" font-family="Times,serif" font-size="14.00">26</text>
</g>
<!-- 2&#45;&#45;6 -->
<g id="edge10" class="edge">
<title>2&#45;&#45;6</title>
<path fill="none" stroke="black" d="M371.65,-385.96C325.88,-370.11 227.16,-335.91 181.34,-320.03"/>
<text text-anchor="middle" x="273.12" y="-356.2" font-family="Times,serif" font-size="14.00">9</text>
</g>
<!-- 2&#45;&#45;7 -->
<g id="edge11" class="edge">
<title>2&#45;&#45;7</title>
<path fill="none" stroke="black" d="M390.6,-376.23C383.49,-351.75 370.9,-308.4 363.81,-283.98"/>
<text text-anchor="middle" x="370.45" y="-333.3" font-family="Times,serif" font-size="14.00">10</text>
</g>
<!-- 2&#45;&#45;9 -->
<g id="edge16" class="edge">
<title>2&#45;&#45;9</title>
<path fill="none" stroke="black" d="M391.16,-376.36C379.33,-331.12 348.44,-213 336.6,-167.73"/>
<text text-anchor="middle" x="357.13" y="-275.25" font-family="Times,serif" font-size="14.00">15</text>
</g>
<!-- 2&#45;&#45;10 -->
<g id="edge17" class="edge">
<title>2&#45;&#45;10</title>
<path fill="none" stroke="black" d="M401.38,-376.56C413.82,-336.47 443.92,-239.43 456.38,-199.25"/>
<text text-anchor="middle" x="422.13" y="-291.1" font-family="Times,serif" font-size="14.00">16</text>
</g>
<!-- 6&#45;&#45;7 -->
<g id="edge12" class="edge">
<title>6&#45;&#45;7</title>
<path fill="none" stroke="black" d="M182.99,-305.75C221.68,-296.98 294.1,-280.56 332.74,-271.8"/>
<text text-anchor="middle" x="251.11" y="-291.97" font-family="Times,serif" font-size="14.00">11</text>
</g>
<!-- 6&#45;&#45;8 -->
<g id="edge24" class="edge">
<title>6&#45;&#45;8</title>
<path fill="none" stroke="black" d="M162.58,-293.77C174.17,-256.31 200.91,-169.86 212.52,-132.31"/>
<text text-anchor="middle" x="180.8" y="-216.24" font-family="Times,serif" font-size="14.00">23</text>
</g>
<!-- 7&#45;&#45;10 -->
<g id="edge32" class="edge">
<title>7&#45;&#45;10</title>
<path fill="none" stroke="black" d="M375.64,-251.98C394.67,-236.4 425.31,-211.33 444.49,-195.63"/>
<text text-anchor="middle" x="403.31" y="-227" font-family="Times,serif" font-size="14.00">31</text>
</g>
<!-- 7&#45;&#45;8 -->
<g id="edge31" class="edge">
<title>7&#45;&#45;8</title>
<path fill="none" stroke="black" d="M344.06,-250.29C317,-221.09 259.14,-158.66 232.29,-129.7"/>
<text text-anchor="middle" x="281.43" y="-193.19" font-family="Times,serif" font-size="14.00">30</text>
</g>
<!-- 7&#45;&#45;11 -->
<g id="edge33" class="edge">
<title>7&#45;&#45;11</title>
<path fill="none" stroke="black" d="M355.05,-247.71C346.21,-201.86 323.13,-82.14 314.29,-36.26"/>
<text text-anchor="middle" x="327.92" y="-128.69" font-family="Times,serif" font-size="14.00">32</text>
</g>
<!-- 9&#45;&#45;10 -->
<g id="edge18" class="edge">
<title>9&#45;&#45;10</title>
<path fill="none" stroke="black" d="M357.58,-155.96C380.38,-161.51 413.51,-169.57 436.29,-175.12"/>
<text text-anchor="middle" x="390.18" y="-168.74" font-family="Times,serif" font-size="14.00">17</text>
</g>
<!-- 9&#45;&#45;11 -->
<g id="edge30" class="edge">
<title>9&#45;&#45;11</title>
<path fill="none" stroke="black" d="M328.95,-131.4C324.91,-106.23 317.7,-61.24 313.68,-36.16"/>
<text text-anchor="middle" x="314.56" y="-86.98" font-family="Times,serif" font-size="14.00">29</text>
</g>
<!-- 10&#45;&#45;11 -->
<g id="edge36" class="edge">
<title>10&#45;&#45;11</title>
<path fill="none" stroke="black" d="M447.44,-165.69C418.47,-134.39 353.75,-64.44 325,-33.38"/>
<text text-anchor="middle" x="379.47" y="-102.73" font-family="Times,serif" font-size="14.00">35</text>
</g>
<!-- 5&#45;&#45;6 -->
<g id="edge22" class="edge">
<title>5&#45;&#45;6</title>
<path fill="none" stroke="black" d="M97.99,-85.19C109.78,-130.39 140.57,-248.4 152.37,-293.63"/>
<text text-anchor="middle" x="131.93" y="-176.11" font-family="Times,serif" font-size="14.00">21</text>
</g>
<!-- 5&#45;&#45;9 -->
<g id="edge28" class="edge">
<title>5&#45;&#45;9</title>
<path fill="none" stroke="black" d="M117.49,-75.58C163.22,-91.39 261.85,-125.5 307.63,-141.33"/>
<text text-anchor="middle" x="205.81" y="-111.65" font-family="Times,serif" font-size="14.00">27</text>
</g>
<!-- 5&#45;&#45;8 -->
<g id="edge23" class="edge">
<title>5&#45;&#45;8</title>
<path fill="none" stroke="black" d="M117.06,-76.19C139.27,-84.58 172.23,-97.03 194.4,-105.41"/>
<text text-anchor="middle" x="148.98" y="-94" font-family="Times,serif" font-size="14.00">22</text>
</g>
<!-- 5&#45;&#45;11 -->
<g id="edge29" class="edge">
<title>5&#45;&#45;11</title>
<path fill="none" stroke="black" d="M119.1,-61.38C160.95,-51.91 243.17,-33.3 285,-23.83"/>
<text text-anchor="middle" x="195.3" y="-45.8" font-family="Times,serif" font-size="14.00">28</text>
</g>
<!-- 8&#45;&#45;10 -->
<g id="edge34" class="edge">
<title>8&#45;&#45;10</title>
<path fill="none" stroke="black" d="M243.25,-121.27C289.98,-134.11 389.62,-161.49 436.52,-174.37"/>
<text text-anchor="middle" x="333.14" y="-151.02" font-family="Times,serif" font-size="14.00">33</text>
</g>
<!-- 8&#45;&#45;11 -->
<g id="edge35" class="edge">
<title>8&#45;&#45;11</title>
<path fill="none" stroke="black" d="M232.97,-98.87C250.27,-80.89 278.63,-51.41 295.91,-33.44"/>
<text text-anchor="middle" x="257.69" y="-69.36" font-family="Times,serif" font-size="14.00">34</text>
</g>
</g>
</svg>
