<?xml version="1.0" encoding="UTF-8" standalone="no"?>
<!DOCTYPE svg PUBLIC "-//W3C//DTD SVG 1.1//EN"
 "http://www.w3.org/Graphics/SVG/1.1/DTD/svg11.dtd">
<!-- Generated by graphviz version 12.2.1 (20241206.2353)
 -->
<!-- Title: example Pages: 1 -->
<svg width="148pt" height="130pt"
 viewBox="0.00 0.00 147.94 130.01" xmlns="http://www.w3.org/2000/svg" xmlns:xlink="http://www.w3.org/1999/xlink">
<g id="graph0" class="graph" transform="scale(1 1) rotate(0) translate(4 126.01)">
<title>example</title>
<polygon fill="white" stroke="none" points="-4,4 -4,-126.01 143.94,-126.01 143.94,4 -4,4"/>
<!-- 0 -->
<g id="node1" class="node">
<title>0</title>
<ellipse fill="none" stroke="black" cx="27" cy="-54.63" rx="27" ry="18"/>
<text text-anchor="middle" x="27" y="-49.58" font-family="Times,serif" font-size="14.00">0</text>
</g>
<!-- 1 -->
<g id="node2" class="node">
<title>1</title>
<ellipse fill="none" stroke="black" cx="112.94" cy="-67.35" rx="27" ry="18"/>
<text text-anchor="middle" x="112.94" y="-62.3" font-family="Times,serif" font-size="14.00">1</text>
</g>
<!-- 0&#45;&#45;1 -->
<g id="edge1" class="edge">
<title>0&#45;&#45;1</title>
<path fill="none" stroke="black" d="M53.72,-58.59C64.07,-60.12 75.89,-61.87 86.23,-63.4"/>
<text text-anchor="middle" x="66.6" y="-47.69" font-family="Times,serif" font-size="14.00">0</text>
</g>
<!-- 2 -->
<g id="node3" class="node">
<title>2</title>
<ellipse fill="none" stroke="black" cx="76.29" cy="-18" rx="27" ry="18"/>
<text text-anchor="middle" x="76.29" y="-12.95" font-family="Times,serif" font-size="14.00">2</text>
</g>
<!-- 0&#45;&#45;2 -->
<g id="edge2" class="edge">
<title>0&#45;&#45;2</title>
<path fill="none" stroke="black" d="M45.35,-40.99C49.51,-37.9 53.93,-34.62 58.09,-31.53"/>
<text text-anchor="middle" x="48.35" y="-22.96" font-family="Times,serif" font-size="14.00">1</text>
</g>
<!-- 3 -->
<g id="node4" class="node">
<title>3</title>
<ellipse fill="none" stroke="black" cx="63.56" cy="-104.01" rx="27" ry="18"/>
<text text-anchor="middle" x="63.56" y="-98.96" font-family="Times,serif" font-size="14.00">3</text>
</g>
<!-- 0&#45;&#45;3 -->
<g id="edge3" class="edge">
<title>0&#45;&#45;3</title>
<path fill="none" stroke="black" d="M39.17,-71.07C43.08,-76.35 47.4,-82.19 51.31,-87.47"/>
<text text-anchor="middle" x="48.62" y="-82.47" font-family="Times,serif" font-size="14.00">2</text>
</g>
<!-- 1&#45;&#45;2 -->
<g id="edge4" class="edge">
<title>1&#45;&#45;2</title>
<path fill="none" stroke="black" d="M100.73,-50.92C96.82,-45.65 92.48,-39.81 88.57,-34.53"/>
<text text-anchor="middle" x="91.27" y="-45.92" font-family="Times,serif" font-size="14.00">3</text>
</g>
<!-- 1&#45;&#45;3 -->
<g id="edge5" class="edge">
<title>1&#45;&#45;3</title>
<path fill="none" stroke="black" d="M94.55,-81C90.38,-84.1 85.96,-87.38 81.79,-90.47"/>
<text text-anchor="middle" x="91.55" y="-88.94" font-family="Times,serif" font-size="14.00">4</text>
</g>
<!-- 2&#45;&#45;3 -->
<g id="edge6" class="edge">
<title>2&#45;&#45;3</title>
<path fill="none" stroke="black" d="M73.59,-36.24C71.43,-50.84 68.41,-71.21 66.25,-85.8"/>
<text text-anchor="middle" x="66.55" y="-64.22" font-family="Times,serif" font-size="14.00">5</text>
</g>
</g>
</svg>
<?xml version="1.0" encoding="UTF-8" standalone="no"?>
<!DOCTYPE svg PUBLIC "-//W3C//DTD SVG 1.1//EN"
 "http://www.w3.org/Graphics/SVG/1.1/DTD/svg11.dtd">
<!-- Generated by graphviz version 12.2.1 (20241206.2353)
 -->
<!-- Title: example Pages: 1 -->
<svg width="134pt" height="169pt"
 viewBox="0.00 0.00 133.70 169.45" xmlns="http://www.w3.org/2000/svg" xmlns:xlink="http://www.w3.org/1999/xlink">
<g id="page0,1_graph0" class="graph" transform="scale(1 1) rotate(0) translate(4 165.45)">
<title>example</title>
<polygon fill="white" stroke="none" points="-4,4 -4,-165.45 129.7,-165.45 129.7,4 -4,4"/>
<!-- 0 -->
<g id="node1" class="node">
<title>0</title>
<ellipse fill="none" stroke="black" cx="27.94" cy="-61.82" rx="27" ry="18"/>
<text text-anchor="middle" x="27.94" y="-56.77" font-family="Times,serif" font-size="14.00">0</text>
</g>
<!-- 1 -->
<g id="node2" class="node">
<title>1</title>
<ellipse fill="none" stroke="black" cx="98.7" cy="-65.65" rx="27" ry="18"/>
<text text-anchor="middle" x="98.7" y="-60.6" font-family="Times,serif" font-size="14.00">1</text>
</g>
<!-- 0&#45;&#45;1 -->
<g id="edge1" class="edge">
<title>0&#45;&#45;1</title>
<path fill="none" stroke="black" d="M55.09,-63.29C60.55,-63.59 66.28,-63.9 71.73,-64.19"/>
<text text-anchor="middle" x="60.04" y="-66.94" font-family="Times,serif" font-size="14.00">0</text>
</g>
<!-- 2 -->
<g id="node3" class="node">
<title>2</title>
<ellipse fill="none" stroke="black" cx="65.6" cy="-18" rx="27" ry="18"/>
<text text-anchor="middle" x="65.6" y="-12.95" font-family="Times,serif" font-size="14.00">2</text>
</g>
<!-- 0&#45;&#45;2 -->
<g id="edge2" class="edge">
<title>0&#45;&#45;2</title>
<path fill="none" stroke="black" d="M41.54,-46C44.91,-42.08 48.52,-37.87 51.9,-33.94"/>
<text text-anchor="middle" x="48.41" y="-26.67" font-family="Times,serif" font-size="14.00">1</text>
</g>
<!-- 3 -->
<g id="node4" class="node">
<title>3</title>
<ellipse fill="none" stroke="black" cx="59.04" cy="-143.45" rx="27" ry="18"/>
<text text-anchor="middle" x="59.04" y="-138.4" font-family="Times,serif" font-size="14.00">3</text>
</g>
<!-- 0&#45;&#45;3 -->
<g id="edge4" class="edge">
<title>0&#45;&#45;3</title>
<path fill="none" stroke="black" d="M34.69,-79.53C39.9,-93.22 47.09,-112.09 52.3,-125.77"/>
<text text-anchor="middle" x="40.12" y="-105.85" font-family="Times,serif" font-size="14.00">3</text>
</g>
<!-- 4 -->
<g id="node5" class="node">
<title>4</title>
<ellipse fill="none" stroke="black" cx="95.51" cy="-99.2" rx="27" ry="18"/>
<text text-anchor="middle" x="95.51" y="-94.15" font-family="Times,serif" font-size="14.00">4</text>
</g>
<!-- 0&#45;&#45;4 -->
<g id="edge5" class="edge">
<title>0&#45;&#45;4</title>
<path fill="none" stroke="black" d="M48.95,-73.44C57.01,-77.9 66.2,-82.99 74.28,-87.46"/>
<text text-anchor="middle" x="58.24" y="-83.65" font-family="Times,serif" font-size="14.00">4</text>
</g>
<!-- 1&#45;&#45;2 -->
<g id="edge3" class="edge">
<title>1&#45;&#45;2</title>
<path fill="none" stroke="black" d="M87.12,-48.98C83.92,-44.37 80.44,-39.36 77.23,-34.74"/>
<text text-anchor="middle" x="85.55" y="-45.06" font-family="Times,serif" font-size="14.00">2</text>
</g>
<!-- 1&#45;&#45;3 -->
<g id="edge7" class="edge">
<title>1&#45;&#45;3</title>
<path fill="none" stroke="black" d="M89.9,-82.92C83.37,-95.72 74.51,-113.11 67.95,-125.96"/>
<text text-anchor="middle" x="75.55" y="-107.64" font-family="Times,serif" font-size="14.00">6</text>
</g>
<!-- 5 -->
<g id="node6" class="node">
<title>5</title>
<ellipse fill="none" stroke="black" cx="27" cy="-95.61" rx="27" ry="18"/>
<text text-anchor="middle" x="27" y="-90.56" font-family="Times,serif" font-size="14.00">5</text>
</g>
<!-- 1&#45;&#45;5 -->
<g id="edge8" class="edge">
<title>1&#45;&#45;5</title>
<path fill="none" stroke="black" d="M75.62,-75.29C67.43,-78.71 58.22,-82.56 50.04,-85.98"/>
<text text-anchor="middle" x="66.2" y="-83.84" font-family="Times,serif" font-size="14.00">7</text>
</g>
<!-- 2&#45;&#45;4 -->
<g id="edge10" class="edge">
<title>2&#45;&#45;4</title>
<path fill="none" stroke="black" d="M72.09,-35.62C77.07,-49.15 83.93,-67.75 88.93,-81.33"/>
<text text-anchor="middle" x="77.14" y="-45.18" font-family="Times,serif" font-size="14.00">9</text>
</g>
<!-- 2&#45;&#45;5 -->
<g id="edge11" class="edge">
<title>2&#45;&#45;5</title>
<path fill="none" stroke="black" d="M57.04,-35.22C50.68,-47.99 42.06,-65.34 35.68,-78.16"/>
<text text-anchor="middle" x="53.11" y="-43.39" font-family="Times,serif" font-size="14.00">10</text>
</g>
<!-- 3&#45;&#45;4 -->
<g id="edge6" class="edge">
<title>3&#45;&#45;4</title>
<path fill="none" stroke="black" d="M72.21,-127.47C75.47,-123.51 78.97,-119.27 82.24,-115.3"/>
<text text-anchor="middle" x="80.6" y="-124.59" font-family="Times,serif" font-size="14.00">5</text>
</g>
<!-- 3&#45;&#45;5 -->
<g id="edge9" class="edge">
<title>3&#45;&#45;5</title>
<path fill="none" stroke="black" d="M47.83,-126.72C44.73,-122.08 41.36,-117.05 38.25,-112.41"/>
<text text-anchor="middle" x="46.42" y="-106.26" font-family="Times,serif" font-size="14.00">8</text>
</g>
<!-- 4&#45;&#45;5 -->
<g id="edge12" class="edge">
<title>4&#45;&#45;5</title>
<path fill="none" stroke="black" d="M68.43,-97.78C63.79,-97.54 58.97,-97.28 54.33,-97.04"/>
<text text-anchor="middle" x="68.13" y="-100.61" font-family="Times,serif" font-size="14.00">11</text>
</g>
</g>
</svg>
<?xml version="1.0" encoding="UTF-8" standalone="no"?>
<!DOCTYPE svg PUBLIC "-//W3C//DTD SVG 1.1//EN"
 "http://www.w3.org/Graphics/SVG/1.1/DTD/svg11.dtd">
<!-- Generated by graphviz version 12.2.1 (20241206.2353)
 -->
<!-- Title: example Pages: 1 -->
<svg width="226pt" height="193pt"
 viewBox="0.00 0.00 225.84 192.84" xmlns="http://www.w3.org/2000/svg" xmlns:xlink="http://www.w3.org/1999/xlink">
<g id="page0,1_graph0" class="graph" transform="scale(1 1) rotate(0) translate(4 188.84)">
<title>example</title>
<polygon fill="white" stroke="none" points="-4,4 -4,-188.84 221.84,-188.84 221.84,4 -4,4"/>
<!-- 0 -->
<g id="node1" class="node">
<title>0</title>
<ellipse fill="none" stroke="black" cx="63.25" cy="-160.62" rx="27" ry="18"/>
<text text-anchor="middle" x="63.25" y="-155.57" font-family="Times,serif" font-size="14.00">0</text>
</g>
<!-- 1 -->
<g id="node2" class="node">
<title>1</title>
<ellipse fill="none" stroke="black" cx="143.48" cy="-166.84" rx="27" ry="18"/>
<text text-anchor="middle" x="143.48" y="-161.79" font-family="Times,serif" font-size="14.00">1</text>
</g>
<!-- 0&#45;&#45;1 -->
<g id="edge1" class="edge">
<title>0&#45;&#45;1</title>
<path fill="none" stroke="black" d="M90.41,-162.73C98.77,-163.38 107.98,-164.09 116.34,-164.74"/>
<text text-anchor="middle" x="100" y="-166.93" font-family="Times,serif" font-size="14.00">0</text>
</g>
<!-- 3 -->
<g id="node3" class="node">
<title>3</title>
<ellipse fill="none" stroke="black" cx="68.32" cy="-112.33" rx="27" ry="18"/>
<text text-anchor="middle" x="68.32" y="-107.28" font-family="Times,serif" font-size="14.00">3</text>
</g>
<!-- 0&#45;&#45;3 -->
<g id="edge2" class="edge">
<title>0&#45;&#45;3</title>
<path fill="none" stroke="black" d="M65.16,-142.36C65.57,-138.52 65.99,-134.46 66.4,-130.61"/>
<text text-anchor="middle" x="62.41" y="-139.69" font-family="Times,serif" font-size="14.00">1</text>
</g>
<!-- 4 -->
<g id="node4" class="node">
<title>4</title>
<ellipse fill="none" stroke="black" cx="144.91" cy="-118.05" rx="27" ry="18"/>
<text text-anchor="middle" x="144.91" y="-113" font-family="Times,serif" font-size="14.00">4</text>
</g>
<!-- 0&#45;&#45;4 -->
<g id="edge3" class="edge">
<title>0&#45;&#45;4</title>
<path fill="none" stroke="black" d="M84.7,-149.43C96.61,-143.22 111.38,-135.52 123.31,-129.3"/>
<text text-anchor="middle" x="107.38" y="-142.57" font-family="Times,serif" font-size="14.00">2</text>
</g>
<!-- 2 -->
<g id="node5" class="node">
<title>2</title>
<ellipse fill="none" stroke="black" cx="105.77" cy="-133.01" rx="27" ry="18"/>
<text text-anchor="middle" x="105.77" y="-127.96" font-family="Times,serif" font-size="14.00">2</text>
</g>
<!-- 0&#45;&#45;2 -->
<g id="edge7" class="edge">
<title>0&#45;&#45;2</title>
<path fill="none" stroke="black" d="M83.01,-147.79C84.06,-147.11 85.1,-146.43 86.14,-145.75"/>
<text text-anchor="middle" x="87.95" y="-149.97" font-family="Times,serif" font-size="14.00">6</text>
</g>
<!-- 6 -->
<g id="node6" class="node">
<title>6</title>
<ellipse fill="none" stroke="black" cx="27" cy="-85.67" rx="27" ry="18"/>
<text text-anchor="middle" x="27" y="-80.62" font-family="Times,serif" font-size="14.00">6</text>
</g>
<!-- 0&#45;&#45;6 -->
<g id="edge8" class="edge">
<title>0&#45;&#45;6</title>
<path fill="none" stroke="black" d="M54.84,-143.24C49.03,-131.22 41.32,-115.28 35.49,-103.22"/>
<text text-anchor="middle" x="41.79" y="-126.43" font-family="Times,serif" font-size="14.00">7</text>
</g>
<!-- 7 -->
<g id="node7" class="node">
<title>7</title>
<ellipse fill="none" stroke="black" cx="72.8" cy="-66.76" rx="27" ry="18"/>
<text text-anchor="middle" x="72.8" y="-61.71" font-family="Times,serif" font-size="14.00">7</text>
</g>
<!-- 0&#45;&#45;7 -->
<g id="edge9" class="edge">
<title>0&#45;&#45;7</title>
<path fill="none" stroke="black" d="M65.09,-142.52C66.77,-126.01 69.24,-101.72 70.93,-85.12"/>
<text text-anchor="middle" x="71.38" y="-100.52" font-family="Times,serif" font-size="14.00">8</text>
</g>
<!-- 1&#45;&#45;3 -->
<g id="edge4" class="edge">
<title>1&#45;&#45;3</title>
<path fill="none" stroke="black" d="M124.9,-153.37C113.33,-144.98 98.52,-134.23 86.94,-125.84"/>
<text text-anchor="middle" x="102.55" y="-142.81" font-family="Times,serif" font-size="14.00">3</text>
</g>
<!-- 1&#45;&#45;4 -->
<g id="edge5" class="edge">
<title>1&#45;&#45;4</title>
<path fill="none" stroke="black" d="M144.02,-148.4C144.13,-144.51 144.25,-140.41 144.37,-136.52"/>
<text text-anchor="middle" x="147.57" y="-145.66" font-family="Times,serif" font-size="14.00">4</text>
</g>
<!-- 1&#45;&#45;2 -->
<g id="edge13" class="edge">
<title>1&#45;&#45;2</title>
<path fill="none" stroke="black" d="M127.27,-152.3C125.51,-150.72 123.72,-149.12 121.96,-147.54"/>
<text text-anchor="middle" x="131.37" y="-136.62" font-family="Times,serif" font-size="14.00">12</text>
</g>
<!-- 9 -->
<g id="node8" class="node">
<title>9</title>
<ellipse fill="none" stroke="black" cx="190.84" cy="-99.35" rx="27" ry="18"/>
<text text-anchor="middle" x="190.84" y="-94.3" font-family="Times,serif" font-size="14.00">9</text>
</g>
<!-- 1&#45;&#45;9 -->
<g id="edge14" class="edge">
<title>1&#45;&#45;9</title>
<path fill="none" stroke="black" d="M155.18,-150.16C162.52,-139.7 171.95,-126.27 179.26,-115.84"/>
<text text-anchor="middle" x="173.97" y="-136.2" font-family="Times,serif" font-size="14.00">13</text>
</g>
<!-- 10 -->
<g id="node9" class="node">
<title>10</title>
<ellipse fill="none" stroke="black" cx="149.64" cy="-72.52" rx="27" ry="18"/>
<text text-anchor="middle" x="149.64" y="-67.47" font-family="Times,serif" font-size="14.00">10</text>
</g>
<!-- 1&#45;&#45;10 -->
<g id="edge15" class="edge">
<title>1&#45;&#45;10</title>
<path fill="none" stroke="black" d="M144.66,-148.66C145.75,-132.06 147.35,-107.65 148.44,-90.97"/>
<text text-anchor="middle" x="139.8" y="-106.51" font-family="Times,serif" font-size="14.00">14</text>
</g>
<!-- 3&#45;&#45;4 -->
<g id="edge6" class="edge">
<title>3&#45;&#45;4</title>
<path fill="none" stroke="black" d="M95.54,-114.36C102.76,-114.9 110.56,-115.48 117.78,-116.02"/>
<text text-anchor="middle" x="103.28" y="-101.89" font-family="Times,serif" font-size="14.00">5</text>
</g>
<!-- 3&#45;&#45;6 -->
<g id="edge20" class="edge">
<title>3&#45;&#45;6</title>
<path fill="none" stroke="black" d="M48.63,-99.63C47.96,-99.2 47.3,-98.77 46.63,-98.34"/>
<text text-anchor="middle" x="40.88" y="-102.18" font-family="Times,serif" font-size="14.00">19</text>
</g>
<!-- 5 -->
<g id="node10" class="node">
<title>5</title>
<ellipse fill="none" stroke="black" cx="112.06" cy="-52.05" rx="27" ry="18"/>
<text text-anchor="middle" x="112.06" y="-47" font-family="Times,serif" font-size="14.00">5</text>
</g>
<!-- 3&#45;&#45;5 -->
<g id="edge19" class="edge">
<title>3&#45;&#45;5</title>
<path fill="none" stroke="black" d="M80.27,-95.86C86.44,-87.35 93.95,-77.01 100.12,-68.5"/>
<text text-anchor="middle" x="96.94" y="-85.38" font-family="Times,serif" font-size="14.00">18</text>
</g>
<!-- 8 -->
<g id="node11" class="node">
<title>8</title>
<ellipse fill="none" stroke="black" cx="74.53" cy="-18" rx="27" ry="18"/>
<text text-anchor="middle" x="74.53" y="-12.95" font-family="Times,serif" font-size="14.00">8</text>
</g>
<!-- 3&#45;&#45;8 -->
<g id="edge21" class="edge">
<title>3&#45;&#45;8</title>
<path fill="none" stroke="black" d="M69.52,-94.14C70.61,-77.55 72.22,-53.13 73.31,-36.45"/>
<text text-anchor="middle" x="78.17" y="-68.5" font-family="Times,serif" font-size="14.00">20</text>
</g>
<!-- 4&#45;&#45;9 -->
<g id="edge26" class="edge">
<title>4&#45;&#45;9</title>
<path fill="none" stroke="black" d="M168.41,-108.48C168.5,-108.44 168.59,-108.41 168.68,-108.37"/>
<text text-anchor="middle" x="175.29" y="-111.62" font-family="Times,serif" font-size="14.00">25</text>
</g>
<!-- 4&#45;&#45;5 -->
<g id="edge25" class="edge">
<title>4&#45;&#45;5</title>
<path fill="none" stroke="black" d="M136.28,-100.71C131.49,-91.08 125.54,-79.15 120.74,-69.5"/>
<text text-anchor="middle" x="121.76" y="-88.31" font-family="Times,serif" font-size="14.00">24</text>
</g>
<!-- 11 -->
<g id="node12" class="node">
<title>11</title>
<ellipse fill="none" stroke="black" cx="154.53" cy="-24.25" rx="27" ry="18"/>
<text text-anchor="middle" x="154.53" y="-19.2" font-family="Times,serif" font-size="14.00">11</text>
</g>
<!-- 4&#45;&#45;11 -->
<g id="edge27" class="edge">
<title>4&#45;&#45;11</title>
<path fill="none" stroke="black" d="M146.76,-99.96C148.46,-83.46 150.95,-59.19 152.65,-42.6"/>
<text text-anchor="middle" x="142.96" y="-74.48" font-family="Times,serif" font-size="14.00">26</text>
</g>
<!-- 2&#45;&#45;6 -->
<g id="edge10" class="edge">
<title>2&#45;&#45;6</title>
<path fill="none" stroke="black" d="M85.48,-120.82C73.81,-113.81 59.19,-105.02 47.49,-97.99"/>
<text text-anchor="middle" x="63.11" y="-96.11" font-family="Times,serif" font-size="14.00">9</text>
</g>
<!-- 2&#45;&#45;7 -->
<g id="edge11" class="edge">
<title>2&#45;&#45;7</title>
<path fill="none" stroke="black" d="M97.11,-115.61C92.3,-105.94 86.33,-93.96 81.52,-84.28"/>
<text text-anchor="middle" x="82.56" y="-86.64" font-family="Times,serif" font-size="14.00">10</text>
</g>
<!-- 2&#45;&#45;9 -->
<g id="edge16" class="edge">
<title>2&#45;&#45;9</title>
<path fill="none" stroke="black" d="M129.47,-123.64C141.26,-118.97 155.49,-113.34 167.27,-108.67"/>
<text text-anchor="middle" x="155.12" y="-119.35" font-family="Times,serif" font-size="14.00">15</text>
</g>
<!-- 2&#45;&#45;10 -->
<g id="edge17" class="edge">
<title>2&#45;&#45;10</title>
<path fill="none" stroke="black" d="M117.76,-116.48C123.95,-107.95 131.48,-97.56 137.67,-89.03"/>
<text text-anchor="middle" x="134.46" y="-89.46" font-family="Times,serif" font-size="14.00">16</text>
</g>
<!-- 6&#45;&#45;7 -->
<g id="edge12" class="edge">
<title>6&#45;&#45;7</title>
<path fill="none" stroke="black" d="M50.43,-76C50.52,-75.96 50.61,-75.92 50.7,-75.89"/>
<text text-anchor="middle" x="57.32" y="-79.14" font-family="Times,serif" font-size="14.00">11</text>
</g>
<!-- 6&#45;&#45;8 -->
<g id="edge24" class="edge">
<title>6&#45;&#45;8</title>
<path fill="none" stroke="black" d="M38.51,-69.29C45.87,-58.81 55.39,-45.25 62.8,-34.7"/>
<text text-anchor="middle" x="43.9" y="-38.7" font-family="Times,serif" font-size="14.00">23</text>
</g>
<!-- 7&#45;&#45;10 -->
<g id="edge32" class="edge">
<title>7&#45;&#45;10</title>
<path fill="none" stroke="black" d="M100.11,-68.81C107.35,-69.35 115.18,-69.94 122.42,-70.48"/>
<text text-anchor="middle" x="104.51" y="-72.84" font-family="Times,serif" font-size="14.00">31</text>
</g>
<!-- 7&#45;&#45;8 -->
<g id="edge31" class="edge">
<title>7&#45;&#45;8</title>
<path fill="none" stroke="black" d="M73.45,-48.33C73.59,-44.44 73.73,-40.35 73.87,-36.46"/>
<text text-anchor="middle" x="66.91" y="-45.59" font-family="Times,serif" font-size="14.00">30</text>
</g>
<!-- 7&#45;&#45;11 -->
<g id="edge33" class="edge">
<title>7&#45;&#45;11</title>
<path fill="none" stroke="black" d="M94.27,-55.59C106.19,-49.39 120.97,-41.71 132.92,-35.5"/>
<text text-anchor="middle" x="116.97" y="-32.24" font-family="Times,serif" font-size="14.00">32</text>
</g>
<!-- 9&#45;&#45;10 -->
<g id="edge18" class="edge">
<title>9&#45;&#45;10</title>
<path fill="none" stroke="black" d="M171.21,-86.56C170.54,-86.13 169.88,-85.7 169.21,-85.26"/>
<text text-anchor="middle" x="176.96" y="-72.61" font-family="Times,serif" font-size="14.00">17</text>
</g>
<!-- 9&#45;&#45;11 -->
<g id="edge30" class="edge">
<title>9&#45;&#45;11</title>
<path fill="none" stroke="black" d="M182.42,-81.93C176.59,-69.89 168.87,-53.92 163.03,-41.84"/>
<text text-anchor="middle" x="179.48" y="-48.58" font-family="Times,serif" font-size="14.00">29</text>
</g>
<!-- 10&#45;&#45;11 -->
<g id="edge36" class="edge">
<title>10&#45;&#45;11</title>
<path fill="none" stroke="black" d="M151.49,-54.27C151.88,-50.43 152.29,-46.37 152.68,-42.53"/>
<text text-anchor="middle" x="158.84" y="-51.6" font-family="Times,serif" font-size="14.00">35</text>
</g>
<!-- 5&#45;&#45;6 -->
<g id="edge22" class="edge">
<title>5&#45;&#45;6</title>
<path fill="none" stroke="black" d="M88.36,-61.42C76.57,-66.08 62.35,-71.7 50.57,-76.36"/>
<text text-anchor="middle" x="62.71" y="-72.09" font-family="Times,serif" font-size="14.00">21</text>
</g>
<!-- 5&#45;&#45;9 -->
<g id="edge28" class="edge">
<title>5&#45;&#45;9</title>
<path fill="none" stroke="black" d="M132.34,-64.23C144.02,-71.24 158.64,-80.02 170.34,-87.04"/>
<text text-anchor="middle" x="158.09" y="-78.84" font-family="Times,serif" font-size="14.00">27</text>
</g>
<!-- 5&#45;&#45;8 -->
<g id="edge23" class="edge">
<title>5&#45;&#45;8</title>
<path fill="none" stroke="black" d="M95.92,-37.41C94.18,-35.83 92.4,-34.21 90.65,-32.63"/>
<text text-anchor="middle" x="100.04" y="-21.72" font-family="Times,serif" font-size="14.00">22</text>
</g>
<!-- 5&#45;&#45;11 -->
<g id="edge29" class="edge">
<title>5&#45;&#45;11</title>
<path fill="none" stroke="black" d="M131.31,-39.45C132.54,-38.65 133.77,-37.84 135,-37.03"/>
<text text-anchor="middle" x="139.9" y="-41.44" font-family="Times,serif" font-size="14.00">28</text>
</g>
<!-- 8&#45;&#45;10 -->
<g id="edge34" class="edge">
<title>8&#45;&#45;10</title>
<path fill="none" stroke="black" d="M93.1,-31.48C104.65,-39.86 119.46,-50.61 131.03,-59.01"/>
<text text-anchor="middle" x="118.81" y="-48.44" font-family="Times,serif" font-size="14.00">33</text>
</g>
<!-- 8&#45;&#45;11 -->
<g id="edge35" class="edge">
<title>8&#45;&#45;11</title>
<path fill="none" stroke="black" d="M101.61,-20.12C109.96,-20.77 119.14,-21.49 127.48,-22.14"/>
<text text-anchor="middle" x="117.92" y="-7.83" font-family="Times,serif" font-size="14.00">34</text>
</g>
</g>
</svg>
