<?xml version="1.0" encoding="UTF-8" standalone="no"?>
<!DOCTYPE svg PUBLIC "-//W3C//DTD SVG 1.1//EN"
 "http://www.w3.org/Graphics/SVG/1.1/DTD/svg11.dtd">
<!-- Generated by graphviz version 12.2.1 (20241206.2353)
 -->
<!-- Title: example Pages: 1 -->
<svg width="222pt" height="204pt"
 viewBox="0.00 0.00 222.43 204.43" xmlns="http://www.w3.org/2000/svg" xmlns:xlink="http://www.w3.org/1999/xlink">
<g id="graph0" class="graph" transform="scale(1 1) rotate(0) translate(4 200.43)">
<title>example</title>
<polygon fill="white" stroke="none" points="-4,4 -4,-200.43 218.43,-200.43 218.43,4 -4,4"/>
<!-- 0 -->
<g id="node1" class="node">
<title>0</title>
<ellipse fill="none" stroke="black" cx="107.21" cy="-18" rx="27" ry="18"/>
<text text-anchor="middle" x="107.21" y="-12.95" font-family="Times,serif" font-size="14.00">0</text>
</g>
<!-- 1 -->
<g id="node2" class="node">
<title>1</title>
<ellipse fill="none" stroke="black" cx="187.43" cy="-98.21" rx="27" ry="18"/>
<text text-anchor="middle" x="187.43" y="-93.16" font-family="Times,serif" font-size="14.00">1</text>
</g>
<!-- 0&#45;&#45;1 -->
<g id="edge1" class="edge">
<title>0&#45;&#45;1</title>
<path fill="none" stroke="black" d="M122.3,-33.09C136.55,-47.34 157.82,-68.6 172.14,-82.92"/>
<text text-anchor="middle" x="143.84" y="-61.2" font-family="Times,serif" font-size="14.00">0</text>
</g>
<!-- 2 -->
<g id="node3" class="node">
<title>2</title>
<ellipse fill="none" stroke="black" cx="107.21" cy="-178.43" rx="27" ry="18"/>
<text text-anchor="middle" x="107.21" y="-173.38" font-family="Times,serif" font-size="14.00">2</text>
</g>
<!-- 0&#45;&#45;2 -->
<g id="edge2" class="edge">
<title>0&#45;&#45;2</title>
<path fill="none" stroke="black" d="M107.21,-36.4C107.21,-67.35 107.21,-129.44 107.21,-160.24"/>
<text text-anchor="middle" x="103.84" y="-101.52" font-family="Times,serif" font-size="14.00">1</text>
</g>
<!-- 3 -->
<g id="node4" class="node">
<title>3</title>
<ellipse fill="none" stroke="black" cx="27" cy="-98.21" rx="27" ry="18"/>
<text text-anchor="middle" x="27" y="-93.16" font-family="Times,serif" font-size="14.00">3</text>
</g>
<!-- 0&#45;&#45;3 -->
<g id="edge3" class="edge">
<title>0&#45;&#45;3</title>
<path fill="none" stroke="black" d="M92.13,-33.09C77.88,-47.34 56.61,-68.6 42.29,-82.92"/>
<text text-anchor="middle" x="63.83" y="-61.2" font-family="Times,serif" font-size="14.00">2</text>
</g>
<!-- 1&#45;&#45;2 -->
<g id="edge4" class="edge">
<title>1&#45;&#45;2</title>
<path fill="none" stroke="black" d="M172.34,-113.3C158.09,-127.55 136.82,-148.82 122.51,-163.14"/>
<text text-anchor="middle" x="144.05" y="-141.42" font-family="Times,serif" font-size="14.00">3</text>
</g>
<!-- 1&#45;&#45;3 -->
<g id="edge5" class="edge">
<title>1&#45;&#45;3</title>
<path fill="none" stroke="black" d="M160.21,-98.21C130.71,-98.21 83.9,-98.21 54.35,-98.21"/>
<text text-anchor="middle" x="103.91" y="-84.91" font-family="Times,serif" font-size="14.00">4</text>
</g>
<!-- 2&#45;&#45;3 -->
<g id="edge6" class="edge">
<title>2&#45;&#45;3</title>
<path fill="none" stroke="black" d="M92.13,-163.34C77.88,-149.09 56.61,-127.82 42.29,-113.51"/>
<text text-anchor="middle" x="63.83" y="-141.62" font-family="Times,serif" font-size="14.00">5</text>
</g>
</g>
</svg>
<?xml version="1.0" encoding="UTF-8" standalone="no"?>
<!DOCTYPE svg PUBLIC "-//W3C//DTD SVG 1.1//EN"
 "http://www.w3.org/Graphics/SVG/1.1/DTD/svg11.dtd">
<!-- Generated by graphviz version 12.2.1 (20241206.2353)
 -->
<!-- Title: example Pages: 1 -->
<svg width="303pt" height="252pt"
 viewBox="0.00 0.00 302.64 252.40" xmlns="http://www.w3.org/2000/svg" xmlns:xlink="http://www.w3.org/1999/xlink">
<g id="page0,1_graph0" class="graph" transform="scale(1 1) rotate(0) translate(4 248.4)">
<title>example</title>
<polygon fill="white" stroke="none" points="-4,4 -4,-248.4 298.64,-248.4 298.64,4 -4,4"/>
<!-- 0 -->
<g id="node1" class="node">
<title>0</title>
<ellipse fill="none" stroke="black" cx="207.48" cy="-18" rx="27" ry="18"/>
<text text-anchor="middle" x="207.48" y="-12.95" font-family="Times,serif" font-size="14.00">0</text>
</g>
<!-- 1 -->
<g id="node2" class="node">
<title>1</title>
<ellipse fill="none" stroke="black" cx="267.64" cy="-122.2" rx="27" ry="18"/>
<text text-anchor="middle" x="267.64" y="-117.15" font-family="Times,serif" font-size="14.00">1</text>
</g>
<!-- 0&#45;&#45;1 -->
<g id="edge1" class="edge">
<title>0&#45;&#45;1</title>
<path fill="none" stroke="black" d="M217.42,-35.21C228.56,-54.51 246.54,-85.65 257.69,-104.97"/>
<text text-anchor="middle" x="234.18" y="-73.29" font-family="Times,serif" font-size="14.00">0</text>
</g>
<!-- 2 -->
<g id="node3" class="node">
<title>2</title>
<ellipse fill="none" stroke="black" cx="207.48" cy="-226.4" rx="27" ry="18"/>
<text text-anchor="middle" x="207.48" y="-221.35" font-family="Times,serif" font-size="14.00">2</text>
</g>
<!-- 0&#45;&#45;2 -->
<g id="edge2" class="edge">
<title>0&#45;&#45;2</title>
<path fill="none" stroke="black" d="M207.48,-36.49C207.48,-76.04 207.48,-168.44 207.48,-207.95"/>
<text text-anchor="middle" x="204.11" y="-125.42" font-family="Times,serif" font-size="14.00">1</text>
</g>
<!-- 3 -->
<g id="node4" class="node">
<title>3</title>
<ellipse fill="none" stroke="black" cx="27" cy="-122.2" rx="27" ry="18"/>
<text text-anchor="middle" x="27" y="-117.15" font-family="Times,serif" font-size="14.00">3</text>
</g>
<!-- 0&#45;&#45;3 -->
<g id="edge4" class="edge">
<title>0&#45;&#45;3</title>
<path fill="none" stroke="black" d="M186.78,-29.95C152.06,-50 82.48,-90.17 47.74,-110.23"/>
<text text-anchor="middle" x="113.88" y="-73.29" font-family="Times,serif" font-size="14.00">3</text>
</g>
<!-- 4 -->
<g id="node5" class="node">
<title>4</title>
<ellipse fill="none" stroke="black" cx="87.16" cy="-18" rx="27" ry="18"/>
<text text-anchor="middle" x="87.16" y="-12.95" font-family="Times,serif" font-size="14.00">4</text>
</g>
<!-- 0&#45;&#45;4 -->
<g id="edge5" class="edge">
<title>0&#45;&#45;4</title>
<path fill="none" stroke="black" d="M180.18,-18C160.49,-18 134.02,-18 114.36,-18"/>
<text text-anchor="middle" x="143.89" y="-21.2" font-family="Times,serif" font-size="14.00">4</text>
</g>
<!-- 1&#45;&#45;2 -->
<g id="edge3" class="edge">
<title>1&#45;&#45;2</title>
<path fill="none" stroke="black" d="M257.71,-139.41C246.56,-158.71 228.58,-189.85 217.43,-209.17"/>
<text text-anchor="middle" x="234.19" y="-177.49" font-family="Times,serif" font-size="14.00">2</text>
</g>
<!-- 1&#45;&#45;3 -->
<g id="edge7" class="edge">
<title>1&#45;&#45;3</title>
<path fill="none" stroke="black" d="M240.51,-122.2C194.29,-122.2 100.81,-122.2 54.41,-122.2"/>
<text text-anchor="middle" x="144.08" y="-125.4" font-family="Times,serif" font-size="14.00">6</text>
</g>
<!-- 5 -->
<g id="node6" class="node">
<title>5</title>
<ellipse fill="none" stroke="black" cx="87.16" cy="-226.4" rx="27" ry="18"/>
<text text-anchor="middle" x="87.16" y="-221.35" font-family="Times,serif" font-size="14.00">5</text>
</g>
<!-- 1&#45;&#45;5 -->
<g id="edge8" class="edge">
<title>1&#45;&#45;5</title>
<path fill="none" stroke="black" d="M246.94,-134.15C212.22,-154.2 142.65,-194.37 107.9,-214.43"/>
<text text-anchor="middle" x="174.04" y="-177.49" font-family="Times,serif" font-size="14.00">7</text>
</g>
<!-- 2&#45;&#45;4 -->
<g id="edge10" class="edge">
<title>2&#45;&#45;4</title>
<path fill="none" stroke="black" d="M197.64,-209.35C175.02,-170.17 119.56,-74.12 96.97,-35"/>
<text text-anchor="middle" x="143.93" y="-108.87" font-family="Times,serif" font-size="14.00">9</text>
</g>
<!-- 2&#45;&#45;5 -->
<g id="edge11" class="edge">
<title>2&#45;&#45;5</title>
<path fill="none" stroke="black" d="M180.18,-226.4C160.49,-226.4 134.02,-226.4 114.36,-226.4"/>
<text text-anchor="middle" x="140.52" y="-229.6" font-family="Times,serif" font-size="14.00">10</text>
</g>
<!-- 3&#45;&#45;4 -->
<g id="edge6" class="edge">
<title>3&#45;&#45;4</title>
<path fill="none" stroke="black" d="M36.93,-104.99C48.08,-85.69 66.06,-54.55 77.21,-35.23"/>
<text text-anchor="middle" x="53.7" y="-73.31" font-family="Times,serif" font-size="14.00">5</text>
</g>
<!-- 3&#45;&#45;5 -->
<g id="edge9" class="edge">
<title>3&#45;&#45;5</title>
<path fill="none" stroke="black" d="M36.93,-139.41C48.08,-158.71 66.06,-189.85 77.21,-209.17"/>
<text text-anchor="middle" x="53.7" y="-177.49" font-family="Times,serif" font-size="14.00">8</text>
</g>
<!-- 4&#45;&#45;5 -->
<g id="edge12" class="edge">
<title>4&#45;&#45;5</title>
<path fill="none" stroke="black" d="M87.16,-36.49C87.16,-76.04 87.16,-168.44 87.16,-207.95"/>
<text text-anchor="middle" x="80.41" y="-125.42" font-family="Times,serif" font-size="14.00">11</text>
</g>
</g>
</svg>
<?xml version="1.0" encoding="UTF-8" standalone="no"?>
<!DOCTYPE svg PUBLIC "-//W3C//DTD SVG 1.1//EN"
 "http://www.w3.org/Graphics/SVG/1.1/DTD/svg11.dtd">
<!-- Generated by graphviz version 12.2.1 (20241206.2353)
 -->
<!-- Title: example Pages: 1 -->
<svg width="543pt" height="525pt"
 viewBox="0.00 0.00 543.28 525.28" xmlns="http://www.w3.org/2000/svg" xmlns:xlink="http://www.w3.org/1999/xlink">
<g id="page0,1_graph0" class="graph" transform="scale(1 1) rotate(0) translate(4 521.28)">
<title>example</title>
<polygon fill="white" stroke="none" points="-4,4 -4,-521.28 539.28,-521.28 539.28,4 -4,4"/>
<!-- 0 -->
<g id="node1" class="node">
<title>0</title>
<ellipse fill="none" stroke="black" cx="59.24" cy="-378.96" rx="27" ry="18"/>
<text text-anchor="middle" x="59.24" y="-373.91" font-family="Times,serif" font-size="14.00">0</text>
</g>
<!-- 1 -->
<g id="node2" class="node">
<title>1</title>
<ellipse fill="none" stroke="black" cx="147.32" cy="-50.24" rx="27" ry="18"/>
<text text-anchor="middle" x="147.32" y="-45.19" font-family="Times,serif" font-size="14.00">1</text>
</g>
<!-- 0&#45;&#45;1 -->
<g id="edge1" class="edge">
<title>0&#45;&#45;1</title>
<path fill="none" stroke="black" d="M64.1,-360.82C79.5,-303.35 127.1,-125.72 142.48,-68.33"/>
<text text-anchor="middle" x="99.91" y="-217.77" font-family="Times,serif" font-size="14.00">0</text>
</g>
<!-- 3 -->
<g id="node3" class="node">
<title>3</title>
<ellipse fill="none" stroke="black" cx="508.28" cy="-258.64" rx="27" ry="18"/>
<text text-anchor="middle" x="508.28" y="-253.59" font-family="Times,serif" font-size="14.00">3</text>
</g>
<!-- 0&#45;&#45;3 -->
<g id="edge2" class="edge">
<title>0&#45;&#45;3</title>
<path fill="none" stroke="black" d="M84.67,-372.15C163.61,-351 403.91,-286.61 482.86,-265.46"/>
<text text-anchor="middle" x="280.39" y="-322" font-family="Times,serif" font-size="14.00">1</text>
</g>
<!-- 4 -->
<g id="node4" class="node">
<title>4</title>
<ellipse fill="none" stroke="black" cx="476.04" cy="-138.32" rx="27" ry="18"/>
<text text-anchor="middle" x="476.04" y="-133.27" font-family="Times,serif" font-size="14.00">4</text>
</g>
<!-- 0&#45;&#45;4 -->
<g id="edge3" class="edge">
<title>0&#45;&#45;4</title>
<path fill="none" stroke="black" d="M79.91,-367.03C150.87,-326.06 384.1,-191.41 455.25,-150.33"/>
<text text-anchor="middle" x="264.2" y="-261.88" font-family="Times,serif" font-size="14.00">2</text>
</g>
<!-- 2 -->
<g id="node5" class="node">
<title>2</title>
<ellipse fill="none" stroke="black" cx="27" cy="-258.64" rx="27" ry="18"/>
<text text-anchor="middle" x="27" y="-253.59" font-family="Times,serif" font-size="14.00">2</text>
</g>
<!-- 0&#45;&#45;2 -->
<g id="edge7" class="edge">
<title>0&#45;&#45;2</title>
<path fill="none" stroke="black" d="M54.41,-360.95C48.34,-338.27 37.95,-299.52 31.86,-276.78"/>
<text text-anchor="middle" x="39.76" y="-322.06" font-family="Times,serif" font-size="14.00">6</text>
</g>
<!-- 6 -->
<g id="node6" class="node">
<title>6</title>
<ellipse fill="none" stroke="black" cx="387.96" cy="-467.04" rx="27" ry="18"/>
<text text-anchor="middle" x="387.96" y="-461.99" font-family="Times,serif" font-size="14.00">6</text>
</g>
<!-- 0&#45;&#45;6 -->
<g id="edge8" class="edge">
<title>0&#45;&#45;6</title>
<path fill="none" stroke="black" d="M84.76,-385.8C146.16,-402.25 301.54,-443.89 362.68,-460.27"/>
<text text-anchor="middle" x="220.35" y="-426.24" font-family="Times,serif" font-size="14.00">7</text>
</g>
<!-- 7 -->
<g id="node7" class="node">
<title>7</title>
<ellipse fill="none" stroke="black" cx="147.32" cy="-467.04" rx="27" ry="18"/>
<text text-anchor="middle" x="147.32" y="-461.99" font-family="Times,serif" font-size="14.00">7</text>
</g>
<!-- 0&#45;&#45;7 -->
<g id="edge9" class="edge">
<title>0&#45;&#45;7</title>
<path fill="none" stroke="black" d="M74.58,-394.31C90.75,-410.47 116.05,-435.78 132.15,-451.88"/>
<text text-anchor="middle" x="99.99" y="-426.29" font-family="Times,serif" font-size="14.00">8</text>
</g>
<!-- 1&#45;&#45;3 -->
<g id="edge4" class="edge">
<title>1&#45;&#45;3</title>
<path fill="none" stroke="black" d="M168.02,-62.19C231.69,-98.95 424.11,-210.04 487.66,-246.74"/>
<text text-anchor="middle" x="324.47" y="-157.67" font-family="Times,serif" font-size="14.00">3</text>
</g>
<!-- 1&#45;&#45;4 -->
<g id="edge5" class="edge">
<title>1&#45;&#45;4</title>
<path fill="none" stroke="black" d="M172.84,-57.08C234.24,-73.53 389.62,-115.16 450.77,-131.55"/>
<text text-anchor="middle" x="308.43" y="-97.51" font-family="Times,serif" font-size="14.00">4</text>
</g>
<!-- 1&#45;&#45;2 -->
<g id="edge13" class="edge">
<title>1&#45;&#45;2</title>
<path fill="none" stroke="black" d="M137.47,-67.29C114.86,-106.47 59.4,-202.52 36.81,-241.64"/>
<text text-anchor="middle" x="93.89" y="-157.67" font-family="Times,serif" font-size="14.00">12</text>
</g>
<!-- 9 -->
<g id="node8" class="node">
<title>9</title>
<ellipse fill="none" stroke="black" cx="267.64" cy="-18" rx="27" ry="18"/>
<text text-anchor="middle" x="267.64" y="-12.95" font-family="Times,serif" font-size="14.00">9</text>
</g>
<!-- 1&#45;&#45;9 -->
<g id="edge14" class="edge">
<title>1&#45;&#45;9</title>
<path fill="none" stroke="black" d="M172.84,-43.4C193.26,-37.93 221.75,-30.3 242.16,-24.83"/>
<text text-anchor="middle" x="200.75" y="-37.32" font-family="Times,serif" font-size="14.00">13</text>
</g>
<!-- 10 -->
<g id="node9" class="node">
<title>10</title>
<ellipse fill="none" stroke="black" cx="59.24" cy="-138.32" rx="27" ry="18"/>
<text text-anchor="middle" x="59.24" y="-133.27" font-family="Times,serif" font-size="14.00">10</text>
</g>
<!-- 1&#45;&#45;10 -->
<g id="edge15" class="edge">
<title>1&#45;&#45;10</title>
<path fill="none" stroke="black" d="M131.98,-65.58C115.81,-81.75 90.51,-107.05 74.41,-123.15"/>
<text text-anchor="middle" x="96.44" y="-97.57" font-family="Times,serif" font-size="14.00">14</text>
</g>
<!-- 3&#45;&#45;4 -->
<g id="edge6" class="edge">
<title>3&#45;&#45;4</title>
<path fill="none" stroke="black" d="M503.46,-240.63C497.38,-217.95 487,-179.2 480.9,-156.46"/>
<text text-anchor="middle" x="488.81" y="-201.74" font-family="Times,serif" font-size="14.00">5</text>
</g>
<!-- 3&#45;&#45;6 -->
<g id="edge20" class="edge">
<title>3&#45;&#45;6</title>
<path fill="none" stroke="black" d="M498.44,-275.7C475.82,-314.87 420.36,-410.93 397.78,-450.05"/>
<text text-anchor="middle" x="441.36" y="-366.07" font-family="Times,serif" font-size="14.00">19</text>
</g>
<!-- 5 -->
<g id="node10" class="node">
<title>5</title>
<ellipse fill="none" stroke="black" cx="476.04" cy="-378.96" rx="27" ry="18"/>
<text text-anchor="middle" x="476.04" y="-373.91" font-family="Times,serif" font-size="14.00">5</text>
</g>
<!-- 3&#45;&#45;5 -->
<g id="edge19" class="edge">
<title>3&#45;&#45;5</title>
<path fill="none" stroke="black" d="M503.46,-276.66C497.38,-299.34 487,-338.09 480.9,-360.83"/>
<text text-anchor="middle" x="485.43" y="-321.94" font-family="Times,serif" font-size="14.00">18</text>
</g>
<!-- 8 -->
<g id="node11" class="node">
<title>8</title>
<ellipse fill="none" stroke="black" cx="267.64" cy="-499.28" rx="27" ry="18"/>
<text text-anchor="middle" x="267.64" y="-494.23" font-family="Times,serif" font-size="14.00">8</text>
</g>
<!-- 3&#45;&#45;8 -->
<g id="edge21" class="edge">
<title>3&#45;&#45;8</title>
<path fill="none" stroke="black" d="M493.23,-273.7C450.02,-316.91 325.9,-441.03 282.69,-484.24"/>
<text text-anchor="middle" x="381.21" y="-382.17" font-family="Times,serif" font-size="14.00">20</text>
</g>
<!-- 4&#45;&#45;9 -->
<g id="edge26" class="edge">
<title>4&#45;&#45;9</title>
<path fill="none" stroke="black" d="M455.3,-126.34C415.35,-103.28 328.18,-52.95 288.3,-29.93"/>
<text text-anchor="middle" x="365.05" y="-81.34" font-family="Times,serif" font-size="14.00">25</text>
</g>
<!-- 4&#45;&#45;5 -->
<g id="edge25" class="edge">
<title>4&#45;&#45;5</title>
<path fill="none" stroke="black" d="M476.04,-156.8C476.04,-201.71 476.04,-316.12 476.04,-360.75"/>
<text text-anchor="middle" x="469.29" y="-261.98" font-family="Times,serif" font-size="14.00">24</text>
</g>
<!-- 11 -->
<g id="node12" class="node">
<title>11</title>
<ellipse fill="none" stroke="black" cx="387.96" cy="-50.24" rx="27" ry="18"/>
<text text-anchor="middle" x="387.96" y="-45.19" font-family="Times,serif" font-size="14.00">11</text>
</g>
<!-- 4&#45;&#45;11 -->
<g id="edge27" class="edge">
<title>4&#45;&#45;11</title>
<path fill="none" stroke="black" d="M460.7,-122.98C444.54,-106.81 419.23,-81.51 403.13,-65.41"/>
<text text-anchor="middle" x="425.17" y="-97.39" font-family="Times,serif" font-size="14.00">26</text>
</g>
<!-- 2&#45;&#45;6 -->
<g id="edge10" class="edge">
<title>2&#45;&#45;6</title>
<path fill="none" stroke="black" d="M47.7,-270.6C111.37,-307.35 303.79,-418.45 367.34,-455.14"/>
<text text-anchor="middle" x="204.15" y="-366.07" font-family="Times,serif" font-size="14.00">9</text>
</g>
<!-- 2&#45;&#45;7 -->
<g id="edge11" class="edge">
<title>2&#45;&#45;7</title>
<path fill="none" stroke="black" d="M36.85,-275.7C59.46,-314.87 114.92,-410.93 137.51,-450.05"/>
<text text-anchor="middle" x="93.93" y="-366.07" font-family="Times,serif" font-size="14.00">10</text>
</g>
<!-- 2&#45;&#45;9 -->
<g id="edge16" class="edge">
<title>2&#45;&#45;9</title>
<path fill="none" stroke="black" d="M42.05,-243.59C85.27,-200.37 209.39,-76.26 252.59,-33.05"/>
<text text-anchor="middle" x="140.57" y="-141.52" font-family="Times,serif" font-size="14.00">15</text>
</g>
<!-- 2&#45;&#45;10 -->
<g id="edge17" class="edge">
<title>2&#45;&#45;10</title>
<path fill="none" stroke="black" d="M31.83,-240.63C37.9,-217.95 48.29,-179.2 54.38,-156.46"/>
<text text-anchor="middle" x="36.35" y="-201.74" font-family="Times,serif" font-size="14.00">16</text>
</g>
<!-- 6&#45;&#45;7 -->
<g id="edge12" class="edge">
<title>6&#45;&#45;7</title>
<path fill="none" stroke="black" d="M360.83,-467.04C314.61,-467.04 221.13,-467.04 174.73,-467.04"/>
<text text-anchor="middle" x="261.03" y="-453.74" font-family="Times,serif" font-size="14.00">11</text>
</g>
<!-- 6&#45;&#45;8 -->
<g id="edge24" class="edge">
<title>6&#45;&#45;8</title>
<path fill="none" stroke="black" d="M362.45,-473.88C342.03,-479.35 313.53,-486.99 293.12,-492.46"/>
<text text-anchor="middle" x="321.03" y="-486.37" font-family="Times,serif" font-size="14.00">23</text>
</g>
<!-- 7&#45;&#45;10 -->
<g id="edge32" class="edge">
<title>7&#45;&#45;10</title>
<path fill="none" stroke="black" d="M142.46,-448.9C127.06,-391.43 79.46,-213.8 64.09,-156.41"/>
<text text-anchor="middle" x="96.52" y="-305.85" font-family="Times,serif" font-size="14.00">31</text>
</g>
<!-- 7&#45;&#45;8 -->
<g id="edge31" class="edge">
<title>7&#45;&#45;8</title>
<path fill="none" stroke="black" d="M172.84,-473.88C193.26,-479.35 221.75,-486.99 242.16,-492.46"/>
<text text-anchor="middle" x="200.75" y="-486.37" font-family="Times,serif" font-size="14.00">30</text>
</g>
<!-- 7&#45;&#45;11 -->
<g id="edge33" class="edge">
<title>7&#45;&#45;11</title>
<path fill="none" stroke="black" d="M157.2,-449.93C196.21,-382.37 339.22,-134.67 378.13,-67.27"/>
<text text-anchor="middle" x="260.92" y="-245.3" font-family="Times,serif" font-size="14.00">32</text>
</g>
<!-- 9&#45;&#45;10 -->
<g id="edge18" class="edge">
<title>9&#45;&#45;10</title>
<path fill="none" stroke="black" d="M246.9,-29.98C206.95,-53.04 119.78,-103.37 79.9,-126.39"/>
<text text-anchor="middle" x="156.65" y="-81.38" font-family="Times,serif" font-size="14.00">17</text>
</g>
<!-- 9&#45;&#45;11 -->
<g id="edge30" class="edge">
<title>9&#45;&#45;11</title>
<path fill="none" stroke="black" d="M293.16,-24.84C313.58,-30.31 342.07,-37.94 362.48,-43.41"/>
<text text-anchor="middle" x="321.07" y="-37.32" font-family="Times,serif" font-size="14.00">29</text>
</g>
<!-- 10&#45;&#45;11 -->
<g id="edge36" class="edge">
<title>10&#45;&#45;11</title>
<path fill="none" stroke="black" d="M84.76,-131.48C146.16,-115.03 301.54,-73.4 362.68,-57.01"/>
<text text-anchor="middle" x="216.97" y="-97.45" font-family="Times,serif" font-size="14.00">35</text>
</g>
<!-- 5&#45;&#45;6 -->
<g id="edge22" class="edge">
<title>5&#45;&#45;6</title>
<path fill="none" stroke="black" d="M460.7,-394.31C444.54,-410.47 419.23,-435.78 403.13,-451.88"/>
<text text-anchor="middle" x="425.17" y="-426.29" font-family="Times,serif" font-size="14.00">21</text>
</g>
<!-- 5&#45;&#45;9 -->
<g id="edge28" class="edge">
<title>5&#45;&#45;9</title>
<path fill="none" stroke="black" d="M466.27,-362.04C431.27,-301.41 312.37,-95.46 277.39,-34.89"/>
<text text-anchor="middle" x="365.08" y="-201.66" font-family="Times,serif" font-size="14.00">27</text>
</g>
<!-- 5&#45;&#45;8 -->
<g id="edge23" class="edge">
<title>5&#45;&#45;8</title>
<path fill="none" stroke="black" d="M455.3,-390.94C415.35,-414 328.18,-464.33 288.3,-487.36"/>
<text text-anchor="middle" x="365.05" y="-425.85" font-family="Times,serif" font-size="14.00">22</text>
</g>
<!-- 5&#45;&#45;11 -->
<g id="edge29" class="edge">
<title>5&#45;&#45;11</title>
<path fill="none" stroke="black" d="M471.18,-360.82C455.78,-303.35 408.19,-125.72 392.81,-68.33"/>
<text text-anchor="middle" x="425.25" y="-217.77" font-family="Times,serif" font-size="14.00">28</text>
</g>
<!-- 8&#45;&#45;10 -->
<g id="edge34" class="edge">
<title>8&#45;&#45;10</title>
<path fill="none" stroke="black" d="M257.87,-482.36C222.86,-421.73 103.96,-215.78 68.99,-155.21"/>
<text text-anchor="middle" x="156.68" y="-321.98" font-family="Times,serif" font-size="14.00">33</text>
</g>
<!-- 8&#45;&#45;11 -->
<g id="edge35" class="edge">
<title>8&#45;&#45;11</title>
<path fill="none" stroke="black" d="M272.51,-481.13C291.94,-408.6 363.87,-140.18 383.17,-68.13"/>
<text text-anchor="middle" x="321.09" y="-277.83" font-family="Times,serif" font-size="14.00">34</text>
</g>
</g>
</svg>
