<?xml version="1.0" encoding="UTF-8" standalone="no"?>
<!DOCTYPE svg PUBLIC "-//W3C//DTD SVG 1.1//EN"
 "http://www.w3.org/Graphics/SVG/1.1/DTD/svg11.dtd">
<!-- Generated by graphviz version 12.2.1 (20241206.2353)
 -->
<!-- Title: example Pages: 1 -->
<svg width="131pt" height="310pt"
 viewBox="0.00 0.00 130.55 309.50" xmlns="http://www.w3.org/2000/svg" xmlns:xlink="http://www.w3.org/1999/xlink">
<g id="graph0" class="graph" transform="scale(1 1) rotate(0) translate(4 305.5)">
<title>example</title>
<polygon fill="white" stroke="none" points="-4,4 -4,-305.5 126.55,-305.5 126.55,4 -4,4"/>
<!-- 0 -->
<g id="node1" class="node">
<title>0</title>
<ellipse fill="none" stroke="black" cx="90" cy="-283.5" rx="27" ry="18"/>
<text text-anchor="middle" x="90" y="-278.45" font-family="Times,serif" font-size="14.00">0</text>
</g>
<!-- 1 -->
<g id="node2" class="node">
<title>1</title>
<ellipse fill="none" stroke="black" cx="27" cy="-195" rx="27" ry="18"/>
<text text-anchor="middle" x="27" y="-189.95" font-family="Times,serif" font-size="14.00">1</text>
</g>
<!-- 0&#45;&#45;1 -->
<g id="edge1" class="edge">
<title>0&#45;&#45;1</title>
<path fill="none" stroke="black" d="M78.74,-267.04C67.34,-251.39 49.82,-227.33 38.38,-211.62"/>
<text text-anchor="middle" x="67.52" y="-234.2" font-family="Times,serif" font-size="14.00">0</text>
</g>
<!-- 2 -->
<g id="node3" class="node">
<title>2</title>
<ellipse fill="none" stroke="black" cx="74" cy="-106.5" rx="27" ry="18"/>
<text text-anchor="middle" x="74" y="-101.45" font-family="Times,serif" font-size="14.00">2</text>
</g>
<!-- 0&#45;&#45;2 -->
<g id="edge2" class="edge">
<title>0&#45;&#45;2</title>
<path fill="none" stroke="black" d="M88.41,-265.08C85.34,-231.54 78.65,-158.34 75.59,-124.85"/>
<text text-anchor="middle" x="86.97" y="-189.95" font-family="Times,serif" font-size="14.00">1</text>
</g>
<!-- 3 -->
<g id="node4" class="node">
<title>3</title>
<ellipse fill="none" stroke="black" cx="74" cy="-18" rx="27" ry="18"/>
<text text-anchor="middle" x="74" y="-12.95" font-family="Times,serif" font-size="14.00">3</text>
</g>
<!-- 0&#45;&#45;3 -->
<g id="edge3" class="edge">
<title>0&#45;&#45;3</title>
<path fill="none" stroke="black" d="M95.53,-265.63C105.84,-231.63 125.63,-152.65 110,-88.5 105.18,-68.7 93.65,-48.24 84.92,-34.69"/>
<text text-anchor="middle" x="119.17" y="-145.7" font-family="Times,serif" font-size="14.00">2</text>
</g>
<!-- 1&#45;&#45;2 -->
<g id="edge4" class="edge">
<title>1&#45;&#45;2</title>
<path fill="none" stroke="black" d="M35.84,-177.73C44.24,-162.27 56.81,-139.14 65.2,-123.7"/>
<text text-anchor="middle" x="58.08" y="-145.7" font-family="Times,serif" font-size="14.00">3</text>
</g>
<!-- 1&#45;&#45;3 -->
<g id="edge5" class="edge">
<title>1&#45;&#45;3</title>
<path fill="none" stroke="black" d="M25.07,-176.75C23.28,-155.48 22.11,-118.48 31.25,-88.5 37.49,-68.04 51.24,-47.54 61.47,-34.16"/>
<text text-anchor="middle" x="34.62" y="-101.45" font-family="Times,serif" font-size="14.00">4</text>
</g>
<!-- 2&#45;&#45;3 -->
<g id="edge6" class="edge">
<title>2&#45;&#45;3</title>
<path fill="none" stroke="black" d="M74,-88.41C74,-73.34 74,-51.49 74,-36.35"/>
<text text-anchor="middle" x="77.38" y="-57.2" font-family="Times,serif" font-size="14.00">5</text>
</g>
</g>
</svg>
<?xml version="1.0" encoding="UTF-8" standalone="no"?>
<!DOCTYPE svg PUBLIC "-//W3C//DTD SVG 1.1//EN"
 "http://www.w3.org/Graphics/SVG/1.1/DTD/svg11.dtd">
<!-- Generated by graphviz version 12.2.1 (20241206.2353)
 -->
<!-- Title: example Pages: 1 -->
<svg width="175pt" height="398pt"
 viewBox="0.00 0.00 174.78 398.00" xmlns="http://www.w3.org/2000/svg" xmlns:xlink="http://www.w3.org/1999/xlink">
<g id="page0,1_graph0" class="graph" transform="scale(1 1) rotate(0) translate(4 394)">
<title>example</title>
<polygon fill="white" stroke="none" points="-4,4 -4,-394 170.78,-394 170.78,4 -4,4"/>
<!-- 0 -->
<g id="node1" class="node">
<title>0</title>
<ellipse fill="none" stroke="black" cx="59.78" cy="-372" rx="27" ry="18"/>
<text text-anchor="middle" x="59.78" y="-366.95" font-family="Times,serif" font-size="14.00">0</text>
</g>
<!-- 1 -->
<g id="node2" class="node">
<title>1</title>
<ellipse fill="none" stroke="black" cx="139.78" cy="-283.5" rx="27" ry="18"/>
<text text-anchor="middle" x="139.78" y="-278.45" font-family="Times,serif" font-size="14.00">1</text>
</g>
<!-- 0&#45;&#45;1 -->
<g id="edge1" class="edge">
<title>0&#45;&#45;1</title>
<path fill="none" stroke="black" d="M74.8,-357C81.38,-350.71 89.11,-343.12 95.78,-336 106.88,-324.16 118.8,-310.12 127.43,-299.69"/>
<text text-anchor="middle" x="112.88" y="-322.7" font-family="Times,serif" font-size="14.00">0</text>
</g>
<!-- 2 -->
<g id="node3" class="node">
<title>2</title>
<ellipse fill="none" stroke="black" cx="43.78" cy="-195" rx="27" ry="18"/>
<text text-anchor="middle" x="43.78" y="-189.95" font-family="Times,serif" font-size="14.00">2</text>
</g>
<!-- 0&#45;&#45;2 -->
<g id="edge2" class="edge">
<title>0&#45;&#45;2</title>
<path fill="none" stroke="black" d="M58.05,-353.58C56.66,-339.53 54.67,-319.24 53.03,-301.5 50.16,-270.38 47.02,-234.07 45.24,-213.18"/>
<text text-anchor="middle" x="56.41" y="-278.45" font-family="Times,serif" font-size="14.00">1</text>
</g>
<!-- 3 -->
<g id="node4" class="node">
<title>3</title>
<ellipse fill="none" stroke="black" cx="115.78" cy="-195" rx="27" ry="18"/>
<text text-anchor="middle" x="115.78" y="-189.95" font-family="Times,serif" font-size="14.00">3</text>
</g>
<!-- 0&#45;&#45;3 -->
<g id="edge4" class="edge">
<title>0&#45;&#45;3</title>
<path fill="none" stroke="black" d="M63.9,-353.94C72.32,-319.18 91.14,-242.45 95.78,-231 98.42,-224.51 102.04,-217.76 105.49,-211.93"/>
<text text-anchor="middle" x="89.24" y="-278.45" font-family="Times,serif" font-size="14.00">3</text>
</g>
<!-- 4 -->
<g id="node5" class="node">
<title>4</title>
<ellipse fill="none" stroke="black" cx="72.78" cy="-106.5" rx="27" ry="18"/>
<text text-anchor="middle" x="72.78" y="-101.45" font-family="Times,serif" font-size="14.00">4</text>
</g>
<!-- 0&#45;&#45;4 -->
<g id="edge5" class="edge">
<title>0&#45;&#45;4</title>
<path fill="none" stroke="black" d="M48.92,-355.27C27.18,-321.74 -17.5,-241.06 7.78,-177 17.19,-153.18 39.03,-132.73 54.81,-120.3"/>
<text text-anchor="middle" x="6.3" y="-234.2" font-family="Times,serif" font-size="14.00">4</text>
</g>
<!-- 1&#45;&#45;2 -->
<g id="edge3" class="edge">
<title>1&#45;&#45;2</title>
<path fill="none" stroke="black" d="M124.36,-268.6C106.55,-252.56 77.42,-226.3 59.49,-210.15"/>
<text text-anchor="middle" x="103.76" y="-234.2" font-family="Times,serif" font-size="14.00">2</text>
</g>
<!-- 1&#45;&#45;3 -->
<g id="edge7" class="edge">
<title>1&#45;&#45;3</title>
<path fill="none" stroke="black" d="M135.04,-265.41C130.84,-250.25 124.72,-228.21 120.52,-213.05"/>
<text text-anchor="middle" x="133.31" y="-234.2" font-family="Times,serif" font-size="14.00">6</text>
</g>
<!-- 5 -->
<g id="node6" class="node">
<title>5</title>
<ellipse fill="none" stroke="black" cx="119.78" cy="-18" rx="27" ry="18"/>
<text text-anchor="middle" x="119.78" y="-12.95" font-family="Times,serif" font-size="14.00">5</text>
</g>
<!-- 1&#45;&#45;5 -->
<g id="edge8" class="edge">
<title>1&#45;&#45;5</title>
<path fill="none" stroke="black" d="M143.62,-265.18C146.52,-251.19 150.25,-230.93 151.78,-213 157.86,-142.09 150.7,-122.88 132.78,-54 131.22,-47.98 129,-41.55 126.84,-35.87"/>
<text text-anchor="middle" x="157.04" y="-145.7" font-family="Times,serif" font-size="14.00">7</text>
</g>
<!-- 2&#45;&#45;4 -->
<g id="edge10" class="edge">
<title>2&#45;&#45;4</title>
<path fill="none" stroke="black" d="M49.51,-176.91C54.6,-161.75 61.99,-139.71 67.07,-124.55"/>
<text text-anchor="middle" x="64.26" y="-145.7" font-family="Times,serif" font-size="14.00">9</text>
</g>
<!-- 2&#45;&#45;5 -->
<g id="edge11" class="edge">
<title>2&#45;&#45;5</title>
<path fill="none" stroke="black" d="M34.46,-177.73C23.44,-156.19 8.4,-117.56 23.28,-88.5 38.62,-58.55 73.55,-38.56 96.9,-27.99"/>
<text text-anchor="middle" x="30.03" y="-101.45" font-family="Times,serif" font-size="14.00">10</text>
</g>
<!-- 3&#45;&#45;4 -->
<g id="edge6" class="edge">
<title>3&#45;&#45;4</title>
<path fill="none" stroke="black" d="M107.7,-177.73C100.06,-162.36 88.66,-139.43 80.98,-123.99"/>
<text text-anchor="middle" x="101.51" y="-145.7" font-family="Times,serif" font-size="14.00">5</text>
</g>
<!-- 3&#45;&#45;5 -->
<g id="edge9" class="edge">
<title>3&#45;&#45;5</title>
<path fill="none" stroke="black" d="M116.18,-176.58C116.95,-143.04 118.62,-69.84 119.39,-36.35"/>
<text text-anchor="middle" x="121.56" y="-101.45" font-family="Times,serif" font-size="14.00">8</text>
</g>
<!-- 4&#45;&#45;5 -->
<g id="edge12" class="edge">
<title>4&#45;&#45;5</title>
<path fill="none" stroke="black" d="M81.62,-89.23C90.03,-73.77 102.59,-50.64 110.98,-35.2"/>
<text text-anchor="middle" x="107.24" y="-57.2" font-family="Times,serif" font-size="14.00">11</text>
</g>
</g>
</svg>
<?xml version="1.0" encoding="UTF-8" standalone="no"?>
<!DOCTYPE svg PUBLIC "-//W3C//DTD SVG 1.1//EN"
 "http://www.w3.org/Graphics/SVG/1.1/DTD/svg11.dtd">
<!-- Generated by graphviz version 12.2.1 (20241206.2353)
 -->
<!-- Title: example Pages: 1 -->
<svg width="508pt" height="841pt"
 viewBox="0.00 0.00 507.75 840.50" xmlns="http://www.w3.org/2000/svg" xmlns:xlink="http://www.w3.org/1999/xlink">
<g id="page0,1_graph0" class="graph" transform="scale(1 1) rotate(0) translate(4 836.5)">
<title>example</title>
<polygon fill="white" stroke="none" points="-4,4 -4,-836.5 503.75,-836.5 503.75,4 -4,4"/>
<!-- 0 -->
<g id="node1" class="node">
<title>0</title>
<ellipse fill="none" stroke="black" cx="361" cy="-814.5" rx="27" ry="18"/>
<text text-anchor="middle" x="361" y="-809.45" font-family="Times,serif" font-size="14.00">0</text>
</g>
<!-- 1 -->
<g id="node2" class="node">
<title>1</title>
<ellipse fill="none" stroke="black" cx="277" cy="-726" rx="27" ry="18"/>
<text text-anchor="middle" x="277" y="-720.95" font-family="Times,serif" font-size="14.00">1</text>
</g>
<!-- 0&#45;&#45;1 -->
<g id="edge1" class="edge">
<title>0&#45;&#45;1</title>
<path fill="none" stroke="black" d="M346.75,-798.83C331.3,-782.92 306.79,-757.68 291.32,-741.75"/>
<text text-anchor="middle" x="329.9" y="-765.2" font-family="Times,serif" font-size="14.00">0</text>
</g>
<!-- 3 -->
<g id="node3" class="node">
<title>3</title>
<ellipse fill="none" stroke="black" cx="170" cy="-637.5" rx="27" ry="18"/>
<text text-anchor="middle" x="170" y="-632.45" font-family="Times,serif" font-size="14.00">3</text>
</g>
<!-- 0&#45;&#45;3 -->
<g id="edge2" class="edge">
<title>0&#45;&#45;3</title>
<path fill="none" stroke="black" d="M337.66,-805.03C310.33,-794.2 264.91,-773.3 234.25,-744 206.96,-717.92 186.83,-677.84 176.91,-655.33"/>
<text text-anchor="middle" x="237.62" y="-720.95" font-family="Times,serif" font-size="14.00">1</text>
</g>
<!-- 4 -->
<g id="node4" class="node">
<title>4</title>
<ellipse fill="none" stroke="black" cx="67" cy="-549" rx="27" ry="18"/>
<text text-anchor="middle" x="67" y="-543.95" font-family="Times,serif" font-size="14.00">4</text>
</g>
<!-- 0&#45;&#45;4 -->
<g id="edge3" class="edge">
<title>0&#45;&#45;4</title>
<path fill="none" stroke="black" d="M335.51,-807.58C312.89,-801.81 279.28,-791.93 252,-778.5 172.15,-739.2 141.83,-730.55 94,-655.5 76.42,-627.92 70.27,-589.43 68.13,-567.38"/>
<text text-anchor="middle" x="121.49" y="-676.7" font-family="Times,serif" font-size="14.00">2</text>
</g>
<!-- 2 -->
<g id="node5" class="node">
<title>2</title>
<ellipse fill="none" stroke="black" cx="382" cy="-460.5" rx="27" ry="18"/>
<text text-anchor="middle" x="382" y="-455.45" font-family="Times,serif" font-size="14.00">2</text>
</g>
<!-- 0&#45;&#45;2 -->
<g id="edge7" class="edge">
<title>0&#45;&#45;2</title>
<path fill="none" stroke="black" d="M367.64,-796.56C373.8,-779.33 382,-751.73 382,-727 382,-727 382,-727 382,-548 382,-523.97 382,-496.19 382,-478.73"/>
<text text-anchor="middle" x="385.38" y="-632.45" font-family="Times,serif" font-size="14.00">6</text>
</g>
<!-- 6 -->
<g id="node6" class="node">
<title>6</title>
<ellipse fill="none" stroke="black" cx="350" cy="-372" rx="27" ry="18"/>
<text text-anchor="middle" x="350" y="-366.95" font-family="Times,serif" font-size="14.00">6</text>
</g>
<!-- 0&#45;&#45;6 -->
<g id="edge8" class="edge">
<title>0&#45;&#45;6</title>
<path fill="none" stroke="black" d="M380.97,-802.28C403.49,-787.98 437,-760.98 437,-727 437,-727 437,-727 437,-503.75 437,-475.25 432.6,-466.98 418,-442.5 404.6,-420.03 382.5,-399.29 367.14,-386.42"/>
<text text-anchor="middle" x="440.38" y="-588.2" font-family="Times,serif" font-size="14.00">7</text>
</g>
<!-- 7 -->
<g id="node7" class="node">
<title>7</title>
<ellipse fill="none" stroke="black" cx="451" cy="-283.5" rx="27" ry="18"/>
<text text-anchor="middle" x="451" y="-278.45" font-family="Times,serif" font-size="14.00">7</text>
</g>
<!-- 0&#45;&#45;7 -->
<g id="edge9" class="edge">
<title>0&#45;&#45;7</title>
<path fill="none" stroke="black" d="M387.08,-808.64C425.55,-799.8 493,-777.14 493,-727 493,-727 493,-727 493,-371 493,-343.79 475.97,-316.16 463.6,-299.68"/>
<text text-anchor="middle" x="496.38" y="-543.95" font-family="Times,serif" font-size="14.00">8</text>
</g>
<!-- 1&#45;&#45;3 -->
<g id="edge4" class="edge">
<title>1&#45;&#45;3</title>
<path fill="none" stroke="black" d="M260.28,-711.48C240.18,-695.23 206.65,-668.13 186.6,-651.92"/>
<text text-anchor="middle" x="236.46" y="-676.7" font-family="Times,serif" font-size="14.00">3</text>
</g>
<!-- 1&#45;&#45;4 -->
<g id="edge5" class="edge">
<title>1&#45;&#45;4</title>
<path fill="none" stroke="black" d="M256.45,-713.82C252.67,-711.83 248.73,-709.82 245,-708 193.5,-682.88 169.73,-693.95 127.25,-655.5 99.57,-630.45 81.36,-589.6 72.76,-566.78"/>
<text text-anchor="middle" x="130.62" y="-632.45" font-family="Times,serif" font-size="14.00">4</text>
</g>
<!-- 1&#45;&#45;2 -->
<g id="edge13" class="edge">
<title>1&#45;&#45;2</title>
<path fill="none" stroke="black" d="M293.84,-711.44C300.31,-705.47 307.28,-697.99 312,-690 357.53,-612.91 338.89,-581.17 368,-496.5 370.08,-490.43 372.63,-483.88 374.97,-478.11"/>
<text text-anchor="middle" x="354.57" y="-588.2" font-family="Times,serif" font-size="14.00">12</text>
</g>
<!-- 9 -->
<g id="node8" class="node">
<title>9</title>
<ellipse fill="none" stroke="black" cx="206" cy="-372" rx="27" ry="18"/>
<text text-anchor="middle" x="206" y="-366.95" font-family="Times,serif" font-size="14.00">9</text>
</g>
<!-- 1&#45;&#45;9 -->
<g id="edge14" class="edge">
<title>1&#45;&#45;9</title>
<path fill="none" stroke="black" d="M274.27,-707.73C268.15,-669.52 252.56,-574.98 236,-496.5 227.94,-458.29 216.68,-413.88 210.5,-390.11"/>
<text text-anchor="middle" x="256.59" y="-543.95" font-family="Times,serif" font-size="14.00">13</text>
</g>
<!-- 10 -->
<g id="node9" class="node">
<title>10</title>
<ellipse fill="none" stroke="black" cx="268" cy="-106.5" rx="27" ry="18"/>
<text text-anchor="middle" x="268" y="-101.45" font-family="Times,serif" font-size="14.00">10</text>
</g>
<!-- 1&#45;&#45;10 -->
<g id="edge15" class="edge">
<title>1&#45;&#45;10</title>
<path fill="none" stroke="black" d="M280.99,-708C282.17,-702.31 283.32,-695.91 284,-690 302.26,-530.41 295,-489.38 295,-328.75 295,-328.75 295,-328.75 295,-194 295,-168.67 284.32,-140.99 276.39,-123.93"/>
<text text-anchor="middle" x="302.51" y="-411.2" font-family="Times,serif" font-size="14.00">14</text>
</g>
<!-- 3&#45;&#45;4 -->
<g id="edge6" class="edge">
<title>3&#45;&#45;4</title>
<path fill="none" stroke="black" d="M153.74,-622.88C146.01,-616.4 136.65,-608.55 128.25,-601.5 113.03,-588.73 95.71,-574.15 83.37,-563.78"/>
<text text-anchor="middle" x="131.62" y="-588.2" font-family="Times,serif" font-size="14.00">5</text>
</g>
<!-- 3&#45;&#45;6 -->
<g id="edge20" class="edge">
<title>3&#45;&#45;6</title>
<path fill="none" stroke="black" d="M179.3,-620.12C191.37,-599.13 213.33,-561.76 234,-531 266.87,-482.09 278.25,-472.1 313,-424.5 321.7,-412.58 331.43,-399.03 338.73,-388.82"/>
<text text-anchor="middle" x="264.63" y="-499.7" font-family="Times,serif" font-size="14.00">19</text>
</g>
<!-- 5 -->
<g id="node10" class="node">
<title>5</title>
<ellipse fill="none" stroke="black" cx="67" cy="-460.5" rx="27" ry="18"/>
<text text-anchor="middle" x="67" y="-455.45" font-family="Times,serif" font-size="14.00">5</text>
</g>
<!-- 3&#45;&#45;5 -->
<g id="edge19" class="edge">
<title>3&#45;&#45;5</title>
<path fill="none" stroke="black" d="M160.49,-620.35C140.87,-587.01 96.08,-510.92 76.48,-477.61"/>
<text text-anchor="middle" x="135.49" y="-543.95" font-family="Times,serif" font-size="14.00">18</text>
</g>
<!-- 8 -->
<g id="node11" class="node">
<title>8</title>
<ellipse fill="none" stroke="black" cx="167" cy="-195" rx="27" ry="18"/>
<text text-anchor="middle" x="167" y="-189.95" font-family="Times,serif" font-size="14.00">8</text>
</g>
<!-- 3&#45;&#45;8 -->
<g id="edge21" class="edge">
<title>3&#45;&#45;8</title>
<path fill="none" stroke="black" d="M171.1,-619.03C172.78,-584.62 174.29,-505.91 158,-442.5 155.8,-433.93 151.44,-433.13 149.5,-424.5 147.9,-417.34 149.2,-415.33 149.5,-408 152.49,-335.49 161.2,-249.39 165.09,-213.28"/>
<text text-anchor="middle" x="156.25" y="-411.2" font-family="Times,serif" font-size="14.00">20</text>
</g>
<!-- 4&#45;&#45;9 -->
<g id="edge26" class="edge">
<title>4&#45;&#45;9</title>
<path fill="none" stroke="black" d="M84.51,-534.74C110.79,-513.97 160.37,-471.29 189,-424.5 195.49,-413.9 199.8,-400.54 202.46,-390.08"/>
<text text-anchor="middle" x="182.55" y="-455.45" font-family="Times,serif" font-size="14.00">25</text>
</g>
<!-- 4&#45;&#45;5 -->
<g id="edge25" class="edge">
<title>4&#45;&#45;5</title>
<path fill="none" stroke="black" d="M67,-530.91C67,-515.84 67,-493.99 67,-478.85"/>
<text text-anchor="middle" x="73.75" y="-499.7" font-family="Times,serif" font-size="14.00">24</text>
</g>
<!-- 11 -->
<g id="node12" class="node">
<title>11</title>
<ellipse fill="none" stroke="black" cx="129" cy="-18" rx="27" ry="18"/>
<text text-anchor="middle" x="129" y="-12.95" font-family="Times,serif" font-size="14.00">11</text>
</g>
<!-- 4&#45;&#45;11 -->
<g id="edge27" class="edge">
<title>4&#45;&#45;11</title>
<path fill="none" stroke="black" d="M48.69,-535.68C28.85,-520.69 0,-493.41 0,-461.5 0,-461.5 0,-461.5 0,-105.5 0,-56.29 65.56,-33.28 103.2,-24.13"/>
<text text-anchor="middle" x="6.75" y="-278.45" font-family="Times,serif" font-size="14.00">26</text>
</g>
<!-- 2&#45;&#45;6 -->
<g id="edge10" class="edge">
<title>2&#45;&#45;6</title>
<path fill="none" stroke="black" d="M372.39,-443.5C369.16,-437.67 365.75,-430.92 363.25,-424.5 358.89,-413.32 355.54,-400.21 353.3,-390.02"/>
<text text-anchor="middle" x="366.62" y="-411.2" font-family="Times,serif" font-size="14.00">9</text>
</g>
<!-- 2&#45;&#45;7 -->
<g id="edge11" class="edge">
<title>2&#45;&#45;7</title>
<path fill="none" stroke="black" d="M400.29,-447.1C407.79,-441.12 415.89,-433.32 421,-424.5 444.06,-384.71 449.46,-329.32 450.68,-301.65"/>
<text text-anchor="middle" x="451.36" y="-366.95" font-family="Times,serif" font-size="14.00">10</text>
</g>
<!-- 2&#45;&#45;9 -->
<g id="edge16" class="edge">
<title>2&#45;&#45;9</title>
<path fill="none" stroke="black" d="M355.96,-455.4C330.82,-450.64 292.28,-441.23 262.5,-424.5 245.61,-415.01 229.61,-399.59 218.97,-388.1"/>
<text text-anchor="middle" x="269.25" y="-411.2" font-family="Times,serif" font-size="14.00">15</text>
</g>
<!-- 2&#45;&#45;10 -->
<g id="edge17" class="edge">
<title>2&#45;&#45;10</title>
<path fill="none" stroke="black" d="M384.93,-442.44C388.94,-415.82 394.59,-362.94 385,-319.5 366.54,-235.9 359.77,-211.43 309,-142.5 302.67,-133.91 293.85,-126.03 286.01,-119.93"/>
<text text-anchor="middle" x="387.7" y="-278.45" font-family="Times,serif" font-size="14.00">16</text>
</g>
<!-- 6&#45;&#45;7 -->
<g id="edge12" class="edge">
<title>6&#45;&#45;7</title>
<path fill="none" stroke="black" d="M366.23,-357.1C385.08,-340.96 415.98,-314.49 434.81,-298.36"/>
<text text-anchor="middle" x="416.3" y="-322.7" font-family="Times,serif" font-size="14.00">11</text>
</g>
<!-- 6&#45;&#45;8 -->
<g id="edge24" class="edge">
<title>6&#45;&#45;8</title>
<path fill="none" stroke="black" d="M332.55,-358.01C304.36,-336.61 247.76,-291.87 206,-247.5 195.55,-236.39 185.19,-222.55 177.78,-212.02"/>
<text text-anchor="middle" x="269.34" y="-278.45" font-family="Times,serif" font-size="14.00">23</text>
</g>
<!-- 7&#45;&#45;10 -->
<g id="edge32" class="edge">
<title>7&#45;&#45;10</title>
<path fill="none" stroke="black" d="M450.57,-265.07C448.85,-235.46 440.98,-175.36 406,-142.5 375.82,-114.16 326.06,-107.92 295.26,-106.99"/>
<text text-anchor="middle" x="449.17" y="-189.95" font-family="Times,serif" font-size="14.00">31</text>
</g>
<!-- 7&#45;&#45;8 -->
<g id="edge31" class="edge">
<title>7&#45;&#45;8</title>
<path fill="none" stroke="black" d="M429.05,-272.86C422.94,-270.32 416.26,-267.68 410,-265.5 331.7,-238.17 236.57,-213.31 192.13,-202.17"/>
<text text-anchor="middle" x="357.46" y="-234.2" font-family="Times,serif" font-size="14.00">30</text>
</g>
<!-- 7&#45;&#45;11 -->
<g id="edge33" class="edge">
<title>7&#45;&#45;11</title>
<path fill="none" stroke="black" d="M457.2,-265.63C464.06,-244.11 472.61,-206.2 460,-177 451.47,-157.24 443.69,-154.77 426,-142.5 335.15,-79.48 207.17,-40.06 153.84,-25.44"/>
<text text-anchor="middle" x="455.29" y="-145.7" font-family="Times,serif" font-size="14.00">32</text>
</g>
<!-- 9&#45;&#45;10 -->
<g id="edge18" class="edge">
<title>9&#45;&#45;10</title>
<path fill="none" stroke="black" d="M207.67,-353.68C209.87,-332.67 214.28,-296.22 221,-265.5 232.43,-213.22 252.24,-153.01 262.09,-124.35"/>
<text text-anchor="middle" x="235.91" y="-234.2" font-family="Times,serif" font-size="14.00">17</text>
</g>
<!-- 9&#45;&#45;11 -->
<g id="edge30" class="edge">
<title>9&#45;&#45;11</title>
<path fill="none" stroke="black" d="M193.74,-355.58C173.16,-328.59 132.43,-270.19 117.5,-213 100.93,-149.5 116.18,-70.51 124.46,-36.22"/>
<text text-anchor="middle" x="124.25" y="-189.95" font-family="Times,serif" font-size="14.00">29</text>
</g>
<!-- 10&#45;&#45;11 -->
<g id="edge36" class="edge">
<title>10&#45;&#45;11</title>
<path fill="none" stroke="black" d="M248.67,-93.47C222.12,-76.95 174.63,-47.4 148.16,-30.93"/>
<text text-anchor="middle" x="217.7" y="-57.2" font-family="Times,serif" font-size="14.00">35</text>
</g>
<!-- 5&#45;&#45;6 -->
<g id="edge22" class="edge">
<title>5&#45;&#45;6</title>
<path fill="none" stroke="black" d="M88.97,-449.91C95.08,-447.38 101.76,-444.73 108,-442.5 185.81,-414.73 280.63,-390.08 324.94,-379.08"/>
<text text-anchor="middle" x="220.02" y="-411.2" font-family="Times,serif" font-size="14.00">21</text>
</g>
<!-- 5&#45;&#45;9 -->
<g id="edge28" class="edge">
<title>5&#45;&#45;9</title>
<path fill="none" stroke="black" d="M74.45,-442.99C80.33,-431.69 89.52,-417.14 101.5,-408 124.62,-390.36 157.12,-381.33 179.72,-376.9"/>
<text text-anchor="middle" x="108.25" y="-411.2" font-family="Times,serif" font-size="14.00">27</text>
</g>
<!-- 5&#45;&#45;8 -->
<g id="edge23" class="edge">
<title>5&#45;&#45;8</title>
<path fill="none" stroke="black" d="M71.92,-442.31C74.81,-432.29 78.56,-419.41 82,-408 106.07,-328.04 107.09,-305.4 145,-231 148.32,-224.48 152.49,-217.6 156.3,-211.68"/>
<text text-anchor="middle" x="114.32" y="-322.7" font-family="Times,serif" font-size="14.00">22</text>
</g>
<!-- 5&#45;&#45;11 -->
<g id="edge29" class="edge">
<title>5&#45;&#45;11</title>
<path fill="none" stroke="black" d="M59.23,-443C51.89,-425.89 42,-398.17 42,-373 42,-373 42,-373 42,-105.5 42,-68.87 81.27,-42.41 107.05,-28.99"/>
<text text-anchor="middle" x="48.75" y="-234.2" font-family="Times,serif" font-size="14.00">28</text>
</g>
<!-- 8&#45;&#45;10 -->
<g id="edge34" class="edge">
<title>8&#45;&#45;10</title>
<path fill="none" stroke="black" d="M173.77,-177.48C178.95,-166.46 186.99,-152.26 197.5,-142.5 210.82,-130.13 229.33,-121.17 244.04,-115.41"/>
<text text-anchor="middle" x="204.25" y="-145.7" font-family="Times,serif" font-size="14.00">33</text>
</g>
<!-- 8&#45;&#45;11 -->
<g id="edge35" class="edge">
<title>8&#45;&#45;11</title>
<path fill="none" stroke="black" d="M163.29,-176.9C156.02,-143.45 140,-69.68 132.73,-36.17"/>
<text text-anchor="middle" x="158.53" y="-101.45" font-family="Times,serif" font-size="14.00">34</text>
</g>
</g>
</svg>
