<?xml version="1.0" encoding="UTF-8" standalone="no"?>
<!DOCTYPE svg PUBLIC "-//W3C//DTD SVG 1.1//EN"
 "http://www.w3.org/Graphics/SVG/1.1/DTD/svg11.dtd">
<!-- Generated by graphviz version 12.2.1 (20241206.2353)
 -->
<!-- Title: example Pages: 1 -->
<svg width="207pt" height="192pt"
 viewBox="0.00 0.00 206.84 192.47" xmlns="http://www.w3.org/2000/svg" xmlns:xlink="http://www.w3.org/1999/xlink">
<g id="graph0" class="graph" transform="scale(1 1) rotate(0) translate(4 188.47)">
<title>example</title>
<polygon fill="white" stroke="none" points="-4,4 -4,-188.47 202.84,-188.47 202.84,4 -4,4"/>
<!-- 2 -->
<g id="node1" class="node">
<title>2</title>
<ellipse fill="none" stroke="black" cx="166.41" cy="-30.42" rx="27" ry="18"/>
<text text-anchor="middle" x="166.41" y="-25.37" font-family="Times,serif" font-size="14.00">2</text>
</g>
<!-- 5 -->
<g id="node2" class="node">
<title>5</title>
<ellipse fill="none" stroke="black" cx="171.84" cy="-106.99" rx="27" ry="18"/>
<text text-anchor="middle" x="171.84" y="-101.94" font-family="Times,serif" font-size="14.00">5</text>
</g>
<!-- 2&#45;&#45;5 -->
<g id="edge1" class="edge">
<title>2&#45;&#45;5</title>
<path fill="none" stroke="black" d="M167.7,-48.57C168.56,-60.68 169.68,-76.56 170.54,-88.71"/>
</g>
<!-- 8 -->
<g id="node3" class="node">
<title>8</title>
<ellipse fill="none" stroke="black" cx="100.33" cy="-56.9" rx="27" ry="18"/>
<text text-anchor="middle" x="100.33" y="-51.85" font-family="Times,serif" font-size="14.00">8</text>
</g>
<!-- 2&#45;&#45;8 -->
<g id="edge2" class="edge">
<title>2&#45;&#45;8</title>
<path fill="none" stroke="black" d="M142.92,-39.83C136.69,-42.33 129.96,-45.02 123.73,-47.52"/>
</g>
<!-- 5&#45;&#45;8 -->
<g id="edge3" class="edge">
<title>5&#45;&#45;8</title>
<path fill="none" stroke="black" d="M153.05,-93.83C142.62,-86.53 129.69,-77.46 119.24,-70.15"/>
</g>
<!-- 3 -->
<g id="node4" class="node">
<title>3</title>
<ellipse fill="none" stroke="black" cx="122.47" cy="-166.47" rx="27" ry="18"/>
<text text-anchor="middle" x="122.47" y="-161.42" font-family="Times,serif" font-size="14.00">3</text>
</g>
<!-- 3&#45;&#45;5 -->
<g id="edge5" class="edge">
<title>3&#45;&#45;5</title>
<path fill="none" stroke="black" d="M135.7,-150.53C142.78,-142 151.48,-131.52 158.57,-122.98"/>
</g>
<!-- 4 -->
<g id="node5" class="node">
<title>4</title>
<ellipse fill="none" stroke="black" cx="83.86" cy="-105.45" rx="27" ry="18"/>
<text text-anchor="middle" x="83.86" y="-100.4" font-family="Times,serif" font-size="14.00">4</text>
</g>
<!-- 3&#45;&#45;4 -->
<g id="edge4" class="edge">
<title>3&#45;&#45;4</title>
<path fill="none" stroke="black" d="M111.71,-149.48C106.36,-141.01 99.9,-130.81 94.56,-122.36"/>
</g>
<!-- 6 -->
<g id="node6" class="node">
<title>6</title>
<ellipse fill="none" stroke="black" cx="53.48" cy="-132.14" rx="27" ry="18"/>
<text text-anchor="middle" x="53.48" y="-127.09" font-family="Times,serif" font-size="14.00">6</text>
</g>
<!-- 3&#45;&#45;6 -->
<g id="edge15" class="edge">
<title>3&#45;&#45;6</title>
<path fill="none" stroke="black" d="M100.64,-155.61C92.59,-151.6 83.46,-147.06 75.4,-143.05"/>
</g>
<!-- 4&#45;&#45;5 -->
<g id="edge6" class="edge">
<title>4&#45;&#45;5</title>
<path fill="none" stroke="black" d="M111.21,-105.93C121.81,-106.12 133.91,-106.33 144.5,-106.51"/>
</g>
<!-- 7 -->
<g id="node7" class="node">
<title>7</title>
<ellipse fill="none" stroke="black" cx="27" cy="-60.64" rx="27" ry="18"/>
<text text-anchor="middle" x="27" y="-55.59" font-family="Times,serif" font-size="14.00">7</text>
</g>
<!-- 4&#45;&#45;7 -->
<g id="edge18" class="edge">
<title>4&#45;&#45;7</title>
<path fill="none" stroke="black" d="M66.18,-91.52C59.27,-86.07 51.36,-79.84 44.47,-74.41"/>
</g>
<!-- 6&#45;&#45;8 -->
<g id="edge8" class="edge">
<title>6&#45;&#45;8</title>
<path fill="none" stroke="black" d="M63.88,-115.44C71.59,-103.06 82.06,-86.24 89.8,-73.81"/>
</g>
<!-- 6&#45;&#45;7 -->
<g id="edge7" class="edge">
<title>6&#45;&#45;7</title>
<path fill="none" stroke="black" d="M46.93,-114.47C42.83,-103.38 37.56,-89.15 33.47,-78.11"/>
</g>
<!-- 7&#45;&#45;8 -->
<g id="edge9" class="edge">
<title>7&#45;&#45;8</title>
<path fill="none" stroke="black" d="M54.3,-59.24C60.49,-58.93 67.06,-58.59 73.24,-58.28"/>
</g>
<!-- 0 -->
<g id="node8" class="node">
<title>0</title>
<ellipse fill="none" stroke="black" cx="132.49" cy="-95.12" rx="27" ry="18"/>
<text text-anchor="middle" x="132.49" y="-90.07" font-family="Times,serif" font-size="14.00">0</text>
</g>
<!-- 0&#45;&#45;2 -->
<g id="edge11" class="edge">
<title>0&#45;&#45;2</title>
<path fill="none" stroke="black" d="M141.58,-77.78C146.45,-68.5 152.42,-57.1 157.29,-47.81"/>
</g>
<!-- 0&#45;&#45;3 -->
<g id="edge13" class="edge">
<title>0&#45;&#45;3</title>
<path fill="none" stroke="black" d="M129.91,-113.5C128.4,-124.23 126.51,-137.73 125,-148.41"/>
</g>
<!-- 0&#45;&#45;6 -->
<g id="edge14" class="edge">
<title>0&#45;&#45;6</title>
<path fill="none" stroke="black" d="M110.06,-105.63C99.39,-110.64 86.65,-116.6 75.97,-121.61"/>
</g>
<!-- 1 -->
<g id="node9" class="node">
<title>1</title>
<ellipse fill="none" stroke="black" cx="89.76" cy="-18" rx="27" ry="18"/>
<text text-anchor="middle" x="89.76" y="-12.95" font-family="Times,serif" font-size="14.00">1</text>
</g>
<!-- 0&#45;&#45;1 -->
<g id="edge10" class="edge">
<title>0&#45;&#45;1</title>
<path fill="none" stroke="black" d="M123.01,-78.01C115.93,-65.23 106.29,-47.84 99.22,-35.07"/>
</g>
<!-- 1&#45;&#45;2 -->
<g id="edge12" class="edge">
<title>1&#45;&#45;2</title>
<path fill="none" stroke="black" d="M116.14,-22.27C123.76,-23.51 132.08,-24.86 139.72,-26.09"/>
</g>
<!-- 1&#45;&#45;4 -->
<g id="edge16" class="edge">
<title>1&#45;&#45;4</title>
<path fill="none" stroke="black" d="M88.54,-36.12C87.53,-51.03 86.11,-72.07 85.1,-87.05"/>
</g>
<!-- 1&#45;&#45;7 -->
<g id="edge17" class="edge">
<title>1&#45;&#45;7</title>
<path fill="none" stroke="black" d="M70.59,-31.02C62.8,-36.31 53.83,-42.41 46.05,-47.69"/>
</g>
</g>
</svg>
