<?xml version="1.0" encoding="UTF-8" standalone="no"?>
<!DOCTYPE svg PUBLIC "-//W3C//DTD SVG 1.1//EN"
 "http://www.w3.org/Graphics/SVG/1.1/DTD/svg11.dtd">
<!-- Generated by graphviz version 12.2.1 (20241206.2353)
 -->
<!-- Title: example Pages: 1 -->
<svg width="466pt" height="324pt"
 viewBox="0.00 0.00 465.73 324.48" xmlns="http://www.w3.org/2000/svg" xmlns:xlink="http://www.w3.org/1999/xlink">
<g id="graph0" class="graph" transform="scale(1 1) rotate(0) translate(4 320.48)">
<title>example</title>
<polygon fill="white" stroke="none" points="-4,4 -4,-320.48 461.73,-320.48 461.73,4 -4,4"/>
<!-- 2 -->
<g id="node1" class="node">
<title>2</title>
<ellipse fill="none" stroke="black" cx="159.04" cy="-20.26" rx="27" ry="18"/>
<text text-anchor="middle" x="159.04" y="-15.21" font-family="Times,serif" font-size="14.00">2</text>
</g>
<!-- 5 -->
<g id="node2" class="node">
<title>5</title>
<ellipse fill="none" stroke="black" cx="305.17" cy="-159.36" rx="27" ry="18"/>
<text text-anchor="middle" x="305.17" y="-154.31" font-family="Times,serif" font-size="14.00">5</text>
</g>
<!-- 2&#45;&#45;5 -->
<g id="edge1" class="edge">
<title>2&#45;&#45;5</title>
<path fill="none" stroke="black" d="M174.68,-35.14C202.8,-61.92 261.6,-117.89 289.64,-144.58"/>
</g>
<!-- 8 -->
<g id="node3" class="node">
<title>8</title>
<ellipse fill="none" stroke="black" cx="158.17" cy="-298.48" rx="27" ry="18"/>
<text text-anchor="middle" x="158.17" y="-293.43" font-family="Times,serif" font-size="14.00">8</text>
</g>
<!-- 2&#45;&#45;8 -->
<g id="edge2" class="edge">
<title>2&#45;&#45;8</title>
<path fill="none" stroke="black" d="M158.98,-38.51C158.82,-88.92 158.38,-229.67 158.22,-280.16"/>
</g>
<!-- 5&#45;&#45;8 -->
<g id="edge3" class="edge">
<title>5&#45;&#45;8</title>
<path fill="none" stroke="black" d="M289.44,-174.25C261.14,-201.03 202,-257 173.78,-283.7"/>
</g>
<!-- 3 -->
<g id="node4" class="node">
<title>3</title>
<ellipse fill="none" stroke="black" cx="430.73" cy="-155.72" rx="27" ry="18"/>
<text text-anchor="middle" x="430.73" y="-150.67" font-family="Times,serif" font-size="14.00">3</text>
</g>
<!-- 3&#45;&#45;5 -->
<g id="edge5" class="edge">
<title>3&#45;&#45;5</title>
<path fill="none" stroke="black" d="M403.48,-156.51C382.42,-157.12 353.41,-157.96 332.36,-158.57"/>
</g>
<!-- 4 -->
<g id="node5" class="node">
<title>4</title>
<ellipse fill="none" stroke="black" cx="164.66" cy="-157.16" rx="27" ry="18"/>
<text text-anchor="middle" x="164.66" y="-152.11" font-family="Times,serif" font-size="14.00">4</text>
</g>
<!-- 3&#45;&#45;4 -->
<g id="edge4" class="edge">
<title>3&#45;&#45;4</title>
<path fill="none" stroke="black" d="M403.25,-155.87C352.14,-156.14 242.98,-156.73 191.98,-157.01"/>
</g>
<!-- 6 -->
<g id="node6" class="node">
<title>6</title>
<ellipse fill="none" stroke="black" cx="296.1" cy="-294.96" rx="27" ry="18"/>
<text text-anchor="middle" x="296.1" y="-289.91" font-family="Times,serif" font-size="14.00">6</text>
</g>
<!-- 3&#45;&#45;6 -->
<g id="edge15" class="edge">
<title>3&#45;&#45;6</title>
<path fill="none" stroke="black" d="M415.8,-171.15C389.93,-197.91 337.02,-252.64 311.09,-279.45"/>
</g>
<!-- 4&#45;&#45;5 -->
<g id="edge6" class="edge">
<title>4&#45;&#45;5</title>
<path fill="none" stroke="black" d="M192.08,-157.59C216.84,-157.98 253.07,-158.54 277.81,-158.93"/>
</g>
<!-- 7 -->
<g id="node7" class="node">
<title>7</title>
<ellipse fill="none" stroke="black" cx="27" cy="-268.96" rx="27" ry="18"/>
<text text-anchor="middle" x="27" y="-263.91" font-family="Times,serif" font-size="14.00">7</text>
</g>
<!-- 4&#45;&#45;7 -->
<g id="edge18" class="edge">
<title>4&#45;&#45;7</title>
<path fill="none" stroke="black" d="M147.22,-171.32C120.74,-192.82 70.69,-233.48 44.29,-254.91"/>
</g>
<!-- 6&#45;&#45;8 -->
<g id="edge8" class="edge">
<title>6&#45;&#45;8</title>
<path fill="none" stroke="black" d="M268.85,-295.65C244.67,-296.27 209.53,-297.17 185.36,-297.79"/>
</g>
<!-- 6&#45;&#45;7 -->
<g id="edge7" class="edge">
<title>6&#45;&#45;7</title>
<path fill="none" stroke="black" d="M269.07,-292.34C217.49,-287.36 105.58,-276.55 54.02,-271.57"/>
</g>
<!-- 7&#45;&#45;8 -->
<g id="edge9" class="edge">
<title>7&#45;&#45;8</title>
<path fill="none" stroke="black" d="M52.91,-274.79C75.91,-279.97 109.33,-287.49 132.31,-292.66"/>
</g>
<!-- 0 -->
<g id="node8" class="node">
<title>0</title>
<ellipse fill="none" stroke="black" cx="296.22" cy="-18" rx="27" ry="18"/>
<text text-anchor="middle" x="296.22" y="-12.95" font-family="Times,serif" font-size="14.00">0</text>
</g>
<!-- 0&#45;&#45;2 -->
<g id="edge11" class="edge">
<title>0&#45;&#45;2</title>
<path fill="none" stroke="black" d="M268.79,-18.45C244.86,-18.85 210.34,-19.41 186.42,-19.81"/>
</g>
<!-- 0&#45;&#45;3 -->
<g id="edge13" class="edge">
<title>0&#45;&#45;3</title>
<path fill="none" stroke="black" d="M311.13,-33.26C336.98,-59.74 389.85,-113.86 415.75,-140.38"/>
</g>
<!-- 0&#45;&#45;6 -->
<g id="edge14" class="edge">
<title>0&#45;&#45;6</title>
<path fill="none" stroke="black" d="M296.21,-36.17C296.19,-86.35 296.13,-226.45 296.11,-276.72"/>
</g>
<!-- 1 -->
<g id="node9" class="node">
<title>1</title>
<ellipse fill="none" stroke="black" cx="27.47" cy="-41.84" rx="27" ry="18"/>
<text text-anchor="middle" x="27.47" y="-36.79" font-family="Times,serif" font-size="14.00">1</text>
</g>
<!-- 0&#45;&#45;1 -->
<g id="edge10" class="edge">
<title>0&#45;&#45;1</title>
<path fill="none" stroke="black" d="M268.97,-20.42C217.33,-25 105.78,-34.89 54.39,-39.45"/>
</g>
<!-- 1&#45;&#45;2 -->
<g id="edge12" class="edge">
<title>1&#45;&#45;2</title>
<path fill="none" stroke="black" d="M54.1,-37.47C76.93,-33.73 109.64,-28.36 132.46,-24.62"/>
</g>
<!-- 1&#45;&#45;4 -->
<g id="edge16" class="edge">
<title>1&#45;&#45;4</title>
<path fill="none" stroke="black" d="M44.57,-56.21C71,-78.43 121.48,-120.86 147.78,-142.97"/>
</g>
<!-- 1&#45;&#45;7 -->
<g id="edge17" class="edge">
<title>1&#45;&#45;7</title>
<path fill="none" stroke="black" d="M27.44,-60.04C27.35,-102.56 27.13,-208.06 27.04,-250.67"/>
</g>
</g>
</svg>
