<?xml version="1.0" encoding="UTF-8" standalone="no"?>
<!DOCTYPE svg PUBLIC "-//W3C//DTD SVG 1.1//EN"
 "http://www.w3.org/Graphics/SVG/1.1/DTD/svg11.dtd">
<!-- Generated by graphviz version 12.2.1 (20241206.2353)
 -->
<!-- Title: example Pages: 1 -->
<svg width="282pt" height="332pt"
 viewBox="0.00 0.00 282.00 332.00" xmlns="http://www.w3.org/2000/svg" xmlns:xlink="http://www.w3.org/1999/xlink">
<g id="graph0" class="graph" transform="scale(1 1) rotate(0) translate(4 328)">
<title>example</title>
<polygon fill="white" stroke="none" points="-4,4 -4,-328 278,-328 278,4 -4,4"/>
<!-- 2 -->
<g id="node1" class="node">
<title>2</title>
<ellipse fill="none" stroke="black" cx="27" cy="-162" rx="27" ry="18"/>
<text text-anchor="middle" x="27" y="-156.95" font-family="Times,serif" font-size="14.00">2</text>
</g>
<!-- 5 -->
<g id="node2" class="node">
<title>5</title>
<ellipse fill="none" stroke="black" cx="94" cy="-90" rx="27" ry="18"/>
<text text-anchor="middle" x="94" y="-84.95" font-family="Times,serif" font-size="14.00">5</text>
</g>
<!-- 2&#45;&#45;5 -->
<g id="edge1" class="edge">
<title>2&#45;&#45;5</title>
<path fill="none" stroke="black" d="M40.88,-146.5C52.38,-134.48 68.64,-117.49 80.14,-105.49"/>
</g>
<!-- 8 -->
<g id="node3" class="node">
<title>8</title>
<ellipse fill="none" stroke="black" cx="130" cy="-18" rx="27" ry="18"/>
<text text-anchor="middle" x="130" y="-12.95" font-family="Times,serif" font-size="14.00">8</text>
</g>
<!-- 2&#45;&#45;8 -->
<g id="edge2" class="edge">
<title>2&#45;&#45;8</title>
<path fill="none" stroke="black" d="M29.82,-143.84C33.63,-124.79 41.87,-93.85 58,-72 71.46,-53.77 92.98,-39.09 109,-29.85"/>
</g>
<!-- 5&#45;&#45;8 -->
<g id="edge3" class="edge">
<title>5&#45;&#45;8</title>
<path fill="none" stroke="black" d="M102.35,-72.76C108.17,-61.46 115.89,-46.44 121.7,-35.15"/>
</g>
<!-- 3 -->
<g id="node4" class="node">
<title>3</title>
<ellipse fill="none" stroke="black" cx="186" cy="-234" rx="27" ry="18"/>
<text text-anchor="middle" x="186" y="-228.95" font-family="Times,serif" font-size="14.00">3</text>
</g>
<!-- 3&#45;&#45;5 -->
<g id="edge5" class="edge">
<title>3&#45;&#45;5</title>
<path fill="none" stroke="black" d="M177.44,-216.52C167.8,-198.34 151.33,-168.43 135,-144 126.21,-130.85 115.18,-116.71 106.78,-106.35"/>
</g>
<!-- 4 -->
<g id="node5" class="node">
<title>4</title>
<ellipse fill="none" stroke="black" cx="99" cy="-162" rx="27" ry="18"/>
<text text-anchor="middle" x="99" y="-156.95" font-family="Times,serif" font-size="14.00">4</text>
</g>
<!-- 3&#45;&#45;4 -->
<g id="edge4" class="edge">
<title>3&#45;&#45;4</title>
<path fill="none" stroke="black" d="M169.23,-219.5C153.82,-207.11 131.11,-188.84 115.72,-176.46"/>
</g>
<!-- 6 -->
<g id="node6" class="node">
<title>6</title>
<ellipse fill="none" stroke="black" cx="247" cy="-162" rx="27" ry="18"/>
<text text-anchor="middle" x="247" y="-156.95" font-family="Times,serif" font-size="14.00">6</text>
</g>
<!-- 3&#45;&#45;6 -->
<g id="edge15" class="edge">
<title>3&#45;&#45;6</title>
<path fill="none" stroke="black" d="M199.24,-217.81C209.47,-206.07 223.56,-189.89 233.79,-178.16"/>
</g>
<!-- 4&#45;&#45;5 -->
<g id="edge6" class="edge">
<title>4&#45;&#45;5</title>
<path fill="none" stroke="black" d="M97.76,-143.7C96.99,-132.85 95.99,-118.92 95.22,-108.1"/>
</g>
<!-- 7 -->
<g id="node7" class="node">
<title>7</title>
<ellipse fill="none" stroke="black" cx="166" cy="-90" rx="27" ry="18"/>
<text text-anchor="middle" x="166" y="-84.95" font-family="Times,serif" font-size="14.00">7</text>
</g>
<!-- 4&#45;&#45;7 -->
<g id="edge18" class="edge">
<title>4&#45;&#45;7</title>
<path fill="none" stroke="black" d="M112.88,-146.5C124.38,-134.48 140.64,-117.49 152.14,-105.49"/>
</g>
<!-- 6&#45;&#45;8 -->
<g id="edge8" class="edge">
<title>6&#45;&#45;8</title>
<path fill="none" stroke="black" d="M241.24,-144.21C234.14,-125.22 220.68,-94.07 202,-72 187.36,-54.7 166,-39.89 150.35,-30.36"/>
</g>
<!-- 6&#45;&#45;7 -->
<g id="edge7" class="edge">
<title>6&#45;&#45;7</title>
<path fill="none" stroke="black" d="M231,-147.17C216.8,-134.9 196.16,-117.06 181.97,-104.8"/>
</g>
<!-- 7&#45;&#45;8 -->
<g id="edge9" class="edge">
<title>7&#45;&#45;8</title>
<path fill="none" stroke="black" d="M157.65,-72.76C151.83,-61.46 144.11,-46.44 138.3,-35.15"/>
</g>
<!-- 0 -->
<g id="node8" class="node">
<title>0</title>
<ellipse fill="none" stroke="black" cx="145" cy="-306" rx="27" ry="18"/>
<text text-anchor="middle" x="145" y="-300.95" font-family="Times,serif" font-size="14.00">0</text>
</g>
<!-- 0&#45;&#45;2 -->
<g id="edge11" class="edge">
<title>0&#45;&#45;2</title>
<path fill="none" stroke="black" d="M124.69,-293.6C109.06,-284.05 87.71,-269.23 73,-252 54.14,-229.91 40.31,-198.77 32.98,-179.78"/>
</g>
<!-- 0&#45;&#45;3 -->
<g id="edge13" class="edge">
<title>0&#45;&#45;3</title>
<path fill="none" stroke="black" d="M154.51,-288.76C161.13,-277.46 169.93,-262.44 176.54,-251.15"/>
</g>
<!-- 0&#45;&#45;6 -->
<g id="edge14" class="edge">
<title>0&#45;&#45;6</title>
<path fill="none" stroke="black" d="M167.09,-295.09C184.47,-286.2 208.03,-271.54 222,-252 237.5,-230.33 243.41,-199.34 245.65,-180.23"/>
</g>
<!-- 1 -->
<g id="node9" class="node">
<title>1</title>
<ellipse fill="none" stroke="black" cx="109" cy="-234" rx="27" ry="18"/>
<text text-anchor="middle" x="109" y="-228.95" font-family="Times,serif" font-size="14.00">1</text>
</g>
<!-- 0&#45;&#45;1 -->
<g id="edge10" class="edge">
<title>0&#45;&#45;1</title>
<path fill="none" stroke="black" d="M136.65,-288.76C130.83,-277.46 123.11,-262.44 117.3,-251.15"/>
</g>
<!-- 1&#45;&#45;2 -->
<g id="edge12" class="edge">
<title>1&#45;&#45;2</title>
<path fill="none" stroke="black" d="M92.8,-219.17C78.42,-206.9 57.53,-189.06 43.17,-176.8"/>
</g>
<!-- 1&#45;&#45;4 -->
<g id="edge16" class="edge">
<title>1&#45;&#45;4</title>
<path fill="none" stroke="black" d="M106.53,-215.7C104.98,-204.85 102.99,-190.92 101.44,-180.1"/>
</g>
<!-- 1&#45;&#45;7 -->
<g id="edge17" class="edge">
<title>1&#45;&#45;7</title>
<path fill="none" stroke="black" d="M117.72,-216.53C123.04,-206.18 129.79,-192.48 135,-180 145.28,-155.39 155.04,-126.04 160.77,-107.96"/>
</g>
</g>
</svg>
