<?xml version="1.0" encoding="UTF-8" standalone="no"?>
<!DOCTYPE svg PUBLIC "-//W3C//DTD SVG 1.1//EN"
 "http://www.w3.org/Graphics/SVG/1.1/DTD/svg11.dtd">
<!-- Generated by graphviz version 12.2.1 (20241206.2353)
 -->
<!-- Title: example Pages: 1 -->
<svg width="303pt" height="252pt"
 viewBox="0.00 0.00 302.64 252.40" xmlns="http://www.w3.org/2000/svg" xmlns:xlink="http://www.w3.org/1999/xlink">
<g id="graph0" class="graph" transform="scale(1 1) rotate(0) translate(4 248.4)">
<title>example</title>
<polygon fill="white" stroke="none" points="-4,4 -4,-248.4 298.64,-248.4 298.64,4 -4,4"/>
<!-- 0 -->
<g id="node1" class="node">
<title>0</title>
<ellipse fill="none" stroke="black" cx="207.48" cy="-18" rx="27" ry="18"/>
<text text-anchor="middle" x="207.48" y="-12.95" font-family="Times,serif" font-size="14.00">0</text>
</g>
<!-- 3 -->
<g id="node2" class="node">
<title>3</title>
<ellipse fill="none" stroke="black" cx="267.64" cy="-122.2" rx="27" ry="18"/>
<text text-anchor="middle" x="267.64" y="-117.15" font-family="Times,serif" font-size="14.00">3</text>
</g>
<!-- 0&#45;&#45;3 -->
<g id="edge1" class="edge">
<title>0&#45;&#45;3</title>
<path fill="none" stroke="black" d="M217.42,-35.21C228.56,-54.51 246.54,-85.65 257.69,-104.97"/>
<text text-anchor="middle" x="234.18" y="-73.29" font-family="Times,serif" font-size="14.00">0</text>
</g>
<!-- 4 -->
<g id="node3" class="node">
<title>4</title>
<ellipse fill="none" stroke="black" cx="87.16" cy="-18" rx="27" ry="18"/>
<text text-anchor="middle" x="87.16" y="-12.95" font-family="Times,serif" font-size="14.00">4</text>
</g>
<!-- 0&#45;&#45;4 -->
<g id="edge2" class="edge">
<title>0&#45;&#45;4</title>
<path fill="none" stroke="black" d="M180.18,-18C160.49,-18 134.02,-18 114.36,-18"/>
<text text-anchor="middle" x="143.89" y="-21.2" font-family="Times,serif" font-size="14.00">1</text>
</g>
<!-- 5 -->
<g id="node4" class="node">
<title>5</title>
<ellipse fill="none" stroke="black" cx="87.16" cy="-226.4" rx="27" ry="18"/>
<text text-anchor="middle" x="87.16" y="-221.35" font-family="Times,serif" font-size="14.00">5</text>
</g>
<!-- 0&#45;&#45;5 -->
<g id="edge3" class="edge">
<title>0&#45;&#45;5</title>
<path fill="none" stroke="black" d="M197.64,-35.05C175.02,-74.23 119.56,-170.28 96.97,-209.4"/>
<text text-anchor="middle" x="143.93" y="-125.43" font-family="Times,serif" font-size="14.00">2</text>
</g>
<!-- 1 -->
<g id="node5" class="node">
<title>1</title>
<ellipse fill="none" stroke="black" cx="27" cy="-122.2" rx="27" ry="18"/>
<text text-anchor="middle" x="27" y="-117.15" font-family="Times,serif" font-size="14.00">1</text>
</g>
<!-- 1&#45;&#45;3 -->
<g id="edge4" class="edge">
<title>1&#45;&#45;3</title>
<path fill="none" stroke="black" d="M54.14,-122.2C100.35,-122.2 193.83,-122.2 240.24,-122.2"/>
<text text-anchor="middle" x="143.81" y="-108.9" font-family="Times,serif" font-size="14.00">3</text>
</g>
<!-- 1&#45;&#45;4 -->
<g id="edge5" class="edge">
<title>1&#45;&#45;4</title>
<path fill="none" stroke="black" d="M36.93,-104.99C48.08,-85.69 66.06,-54.55 77.21,-35.23"/>
<text text-anchor="middle" x="53.7" y="-73.31" font-family="Times,serif" font-size="14.00">4</text>
</g>
<!-- 1&#45;&#45;5 -->
<g id="edge6" class="edge">
<title>1&#45;&#45;5</title>
<path fill="none" stroke="black" d="M36.93,-139.41C48.08,-158.71 66.06,-189.85 77.21,-209.17"/>
<text text-anchor="middle" x="53.7" y="-177.49" font-family="Times,serif" font-size="14.00">5</text>
</g>
<!-- 2 -->
<g id="node6" class="node">
<title>2</title>
<ellipse fill="none" stroke="black" cx="207.48" cy="-226.4" rx="27" ry="18"/>
<text text-anchor="middle" x="207.48" y="-221.35" font-family="Times,serif" font-size="14.00">2</text>
</g>
<!-- 2&#45;&#45;3 -->
<g id="edge7" class="edge">
<title>2&#45;&#45;3</title>
<path fill="none" stroke="black" d="M217.42,-209.2C228.56,-189.89 246.54,-158.75 257.69,-139.43"/>
<text text-anchor="middle" x="234.18" y="-177.51" font-family="Times,serif" font-size="14.00">6</text>
</g>
<!-- 2&#45;&#45;4 -->
<g id="edge8" class="edge">
<title>2&#45;&#45;4</title>
<path fill="none" stroke="black" d="M197.64,-209.35C175.02,-170.17 119.56,-74.12 96.97,-35"/>
<text text-anchor="middle" x="150.68" y="-125.37" font-family="Times,serif" font-size="14.00">7</text>
</g>
<!-- 2&#45;&#45;5 -->
<g id="edge9" class="edge">
<title>2&#45;&#45;5</title>
<path fill="none" stroke="black" d="M180.18,-226.4C160.49,-226.4 134.02,-226.4 114.36,-226.4"/>
<text text-anchor="middle" x="143.89" y="-229.6" font-family="Times,serif" font-size="14.00">8</text>
</g>
</g>
</svg>
