<?xml version="1.0" encoding="UTF-8" standalone="no"?>
<!DOCTYPE svg PUBLIC "-//W3C//DTD SVG 1.1//EN"
 "http://www.w3.org/Graphics/SVG/1.1/DTD/svg11.dtd">
<!-- Generated by graphviz version 12.2.1 (20241206.2353)
 -->
<!-- Title: example Pages: 1 -->
<svg width="248pt" height="133pt"
 viewBox="0.00 0.00 248.00 132.50" xmlns="http://www.w3.org/2000/svg" xmlns:xlink="http://www.w3.org/1999/xlink">
<g id="graph0" class="graph" transform="scale(1 1) rotate(0) translate(4 128.5)">
<title>example</title>
<polygon fill="white" stroke="none" points="-4,4 -4,-128.5 244,-128.5 244,4 -4,4"/>
<!-- 0 -->
<g id="node1" class="node">
<title>0</title>
<ellipse fill="none" stroke="black" cx="42" cy="-106.5" rx="27" ry="18"/>
<text text-anchor="middle" x="42" y="-101.45" font-family="Times,serif" font-size="14.00">0</text>
</g>
<!-- 3 -->
<g id="node2" class="node">
<title>3</title>
<ellipse fill="none" stroke="black" cx="99" cy="-18" rx="27" ry="18"/>
<text text-anchor="middle" x="99" y="-12.95" font-family="Times,serif" font-size="14.00">3</text>
</g>
<!-- 0&#45;&#45;3 -->
<g id="edge1" class="edge">
<title>0&#45;&#45;3</title>
<path fill="none" stroke="black" d="M52.45,-89.63C62.68,-74.12 78.15,-50.63 88.42,-35.06"/>
<text text-anchor="middle" x="78.98" y="-57.2" font-family="Times,serif" font-size="14.00">0</text>
</g>
<!-- 4 -->
<g id="node3" class="node">
<title>4</title>
<ellipse fill="none" stroke="black" cx="27" cy="-18" rx="27" ry="18"/>
<text text-anchor="middle" x="27" y="-12.95" font-family="Times,serif" font-size="14.00">4</text>
</g>
<!-- 0&#45;&#45;4 -->
<g id="edge2" class="edge">
<title>0&#45;&#45;4</title>
<path fill="none" stroke="black" d="M23.99,-92.93C17.07,-87.01 9.95,-79.31 6.25,-70.5 1.17,-58.42 7.34,-44.64 14.25,-34.37"/>
<text text-anchor="middle" x="9.62" y="-57.2" font-family="Times,serif" font-size="14.00">1</text>
</g>
<!-- 5 -->
<g id="node4" class="node">
<title>5</title>
<ellipse fill="none" stroke="black" cx="183" cy="-18" rx="27" ry="18"/>
<text text-anchor="middle" x="183" y="-12.95" font-family="Times,serif" font-size="14.00">5</text>
</g>
<!-- 0&#45;&#45;5 -->
<g id="edge3" class="edge">
<title>0&#45;&#45;5</title>
<path fill="none" stroke="black" d="M63.14,-95.03C67.98,-92.77 73.13,-90.47 78,-88.5 101.06,-79.17 109.84,-83.59 131,-70.5 146.56,-60.87 161.07,-45.78 170.78,-34.42"/>
<text text-anchor="middle" x="154.91" y="-57.2" font-family="Times,serif" font-size="14.00">2</text>
</g>
<!-- 1 -->
<g id="node5" class="node">
<title>1</title>
<ellipse fill="none" stroke="black" cx="213" cy="-106.5" rx="27" ry="18"/>
<text text-anchor="middle" x="213" y="-101.45" font-family="Times,serif" font-size="14.00">1</text>
</g>
<!-- 1&#45;&#45;3 -->
<g id="edge4" class="edge">
<title>1&#45;&#45;3</title>
<path fill="none" stroke="black" d="M205.9,-88.79C200.46,-77.69 192.02,-63.46 181,-54 171.84,-46.14 143.39,-34.86 122.57,-27.25"/>
<text text-anchor="middle" x="198.48" y="-57.2" font-family="Times,serif" font-size="14.00">3</text>
</g>
<!-- 1&#45;&#45;4 -->
<g id="edge5" class="edge">
<title>1&#45;&#45;4</title>
<path fill="none" stroke="black" d="M189.25,-97.34C171.49,-90.91 146.84,-81.25 126.25,-70.5 114.37,-64.3 112.7,-60.55 101,-54 100.36,-53.64 70.17,-39.38 48.56,-29.17"/>
<text text-anchor="middle" x="129.62" y="-57.2" font-family="Times,serif" font-size="14.00">4</text>
</g>
<!-- 1&#45;&#45;5 -->
<g id="edge6" class="edge">
<title>1&#45;&#45;5</title>
<path fill="none" stroke="black" d="M220.19,-88.66C223.52,-78.29 225.8,-64.94 221,-54 216.97,-44.8 209.19,-36.95 201.71,-31.03"/>
<text text-anchor="middle" x="227.12" y="-57.2" font-family="Times,serif" font-size="14.00">5</text>
</g>
<!-- 2 -->
<g id="node6" class="node">
<title>2</title>
<ellipse fill="none" stroke="black" cx="114" cy="-106.5" rx="27" ry="18"/>
<text text-anchor="middle" x="114" y="-101.45" font-family="Times,serif" font-size="14.00">2</text>
</g>
<!-- 2&#45;&#45;3 -->
<g id="edge7" class="edge">
<title>2&#45;&#45;3</title>
<path fill="none" stroke="black" d="M103.84,-89.38C100.77,-83.64 97.8,-76.99 96.25,-70.5 93.54,-59.18 94.29,-46.08 95.69,-35.92"/>
<text text-anchor="middle" x="99.62" y="-57.2" font-family="Times,serif" font-size="14.00">6</text>
</g>
<!-- 2&#45;&#45;4 -->
<g id="edge8" class="edge">
<title>2&#45;&#45;4</title>
<path fill="none" stroke="black" d="M93.14,-94.85C78.39,-87.04 60.24,-76.75 54.25,-70.5 44.73,-60.56 37.64,-46.65 33.08,-35.79"/>
<text text-anchor="middle" x="57.62" y="-57.2" font-family="Times,serif" font-size="14.00">7</text>
</g>
<!-- 2&#45;&#45;5 -->
<g id="edge9" class="edge">
<title>2&#45;&#45;5</title>
<path fill="none" stroke="black" d="M133.77,-94.17C143.01,-88.1 153.57,-79.93 161,-70.5 169.06,-60.27 174.71,-46.64 178.27,-35.97"/>
<text text-anchor="middle" x="173.97" y="-57.2" font-family="Times,serif" font-size="14.00">8</text>
</g>
</g>
</svg>
