<?xml version="1.0" encoding="UTF-8" standalone="no"?>
<!DOCTYPE svg PUBLIC "-//W3C//DTD SVG 1.1//EN"
 "http://www.w3.org/Graphics/SVG/1.1/DTD/svg11.dtd">
<!-- Generated by graphviz version 12.2.1 (20241206.2353)
 -->
<!-- Title: example Pages: 1 -->
<svg width="256pt" height="232pt"
 viewBox="0.00 0.00 255.53 232.33" xmlns="http://www.w3.org/2000/svg" xmlns:xlink="http://www.w3.org/1999/xlink">
<g id="graph0" class="graph" transform="scale(1 1) rotate(0) translate(4 228.33)">
<title>example</title>
<polygon fill="white" stroke="none" points="-4,4 -4,-228.33 251.53,-228.33 251.53,4 -4,4"/>
<!-- 1 -->
<g id="node1" class="node">
<title>1</title>
<ellipse fill="none" stroke="black" cx="73.08" cy="-86.81" rx="27" ry="18"/>
<text text-anchor="middle" x="73.08" y="-81.76" font-family="Times,serif" font-size="14.00">1</text>
</g>
<!-- 8 -->
<g id="node2" class="node">
<title>8</title>
<ellipse fill="none" stroke="black" cx="93.51" cy="-18" rx="27" ry="18"/>
<text text-anchor="middle" x="93.51" y="-12.95" font-family="Times,serif" font-size="14.00">8</text>
</g>
<!-- 1&#45;&#45;8 -->
<g id="edge1" class="edge">
<title>1&#45;&#45;8</title>
<path fill="none" stroke="black" d="M78.45,-68.73C81.48,-58.54 85.24,-45.85 88.25,-35.72"/>
</g>
<!-- 2 -->
<g id="node3" class="node">
<title>2</title>
<ellipse fill="none" stroke="black" cx="147.66" cy="-166.02" rx="27" ry="18"/>
<text text-anchor="middle" x="147.66" y="-160.97" font-family="Times,serif" font-size="14.00">2</text>
</g>
<!-- 1&#45;&#45;2 -->
<g id="edge2" class="edge">
<title>1&#45;&#45;2</title>
<path fill="none" stroke="black" d="M87.46,-102.08C100.58,-116.02 119.89,-136.52 133.07,-150.52"/>
</g>
<!-- 7 -->
<g id="node4" class="node">
<title>7</title>
<ellipse fill="none" stroke="black" cx="220.53" cy="-171.46" rx="27" ry="18"/>
<text text-anchor="middle" x="220.53" y="-166.41" font-family="Times,serif" font-size="14.00">7</text>
</g>
<!-- 2&#45;&#45;7 -->
<g id="edge3" class="edge">
<title>2&#45;&#45;7</title>
<path fill="none" stroke="black" d="M174.8,-168.04C180.95,-168.5 187.48,-168.99 193.62,-169.45"/>
</g>
<!-- 3 -->
<g id="node5" class="node">
<title>3</title>
<ellipse fill="none" stroke="black" cx="95.79" cy="-187.03" rx="27" ry="18"/>
<text text-anchor="middle" x="95.79" y="-181.98" font-family="Times,serif" font-size="14.00">3</text>
</g>
<!-- 2&#45;&#45;3 -->
<g id="edge4" class="edge">
<title>2&#45;&#45;3</title>
<path fill="none" stroke="black" d="M124.15,-175.54C122.55,-176.19 120.92,-176.85 119.32,-177.5"/>
</g>
<!-- 9 -->
<g id="node6" class="node">
<title>9</title>
<ellipse fill="none" stroke="black" cx="27" cy="-206.33" rx="27" ry="18"/>
<text text-anchor="middle" x="27" y="-201.28" font-family="Times,serif" font-size="14.00">9</text>
</g>
<!-- 3&#45;&#45;9 -->
<g id="edge5" class="edge">
<title>3&#45;&#45;9</title>
<path fill="none" stroke="black" d="M70.56,-194.11C64.58,-195.79 58.2,-197.58 52.22,-199.26"/>
</g>
<!-- 4 -->
<g id="node7" class="node">
<title>4</title>
<ellipse fill="none" stroke="black" cx="128.27" cy="-82.33" rx="27" ry="18"/>
<text text-anchor="middle" x="128.27" y="-77.28" font-family="Times,serif" font-size="14.00">4</text>
</g>
<!-- 3&#45;&#45;4 -->
<g id="edge6" class="edge">
<title>3&#45;&#45;4</title>
<path fill="none" stroke="black" d="M101.3,-169.27C107.27,-150.02 116.75,-119.47 122.73,-100.18"/>
</g>
<!-- 4&#45;&#45;8 -->
<g id="edge7" class="edge">
<title>4&#45;&#45;8</title>
<path fill="none" stroke="black" d="M118.95,-65.09C113.96,-55.86 107.84,-44.52 102.85,-35.29"/>
</g>
<!-- 5 -->
<g id="node8" class="node">
<title>5</title>
<ellipse fill="none" stroke="black" cx="171.23" cy="-119.17" rx="27" ry="18"/>
<text text-anchor="middle" x="171.23" y="-114.12" font-family="Times,serif" font-size="14.00">5</text>
</g>
<!-- 4&#45;&#45;5 -->
<g id="edge8" class="edge">
<title>4&#45;&#45;5</title>
<path fill="none" stroke="black" d="M144.75,-96.47C147.88,-99.14 151.15,-101.95 154.29,-104.64"/>
</g>
<!-- 5&#45;&#45;7 -->
<g id="edge10" class="edge">
<title>5&#45;&#45;7</title>
<path fill="none" stroke="black" d="M185.76,-134.57C192.12,-141.32 199.57,-149.22 205.94,-155.98"/>
</g>
<!-- 6 -->
<g id="node9" class="node">
<title>6</title>
<ellipse fill="none" stroke="black" cx="63.86" cy="-142.93" rx="27" ry="18"/>
<text text-anchor="middle" x="63.86" y="-137.88" font-family="Times,serif" font-size="14.00">6</text>
</g>
<!-- 5&#45;&#45;6 -->
<g id="edge9" class="edge">
<title>5&#45;&#45;6</title>
<path fill="none" stroke="black" d="M145.24,-124.92C128.36,-128.66 106.45,-133.5 89.61,-137.23"/>
</g>
<!-- 6&#45;&#45;1 -->
<g id="edge12" class="edge">
<title>6&#45;&#45;1</title>
<path fill="none" stroke="black" d="M66.88,-124.55C67.91,-118.29 69.06,-111.29 70.09,-105.03"/>
</g>
<!-- 6&#45;&#45;9 -->
<g id="edge11" class="edge">
<title>6&#45;&#45;9</title>
<path fill="none" stroke="black" d="M53.98,-159.92C48.69,-169.02 42.2,-180.19 36.91,-189.29"/>
</g>
</g>
</svg>
